<?xml version="1.0" standalone="no"?>
<!DOCTYPE svg PUBLIC "-//W3C//DTD SVG 20010904//EN"
 "http://www.w3.org/TR/2001/REC-SVG-20010904/DTD/svg10.dtd">
<svg version="1.0" xmlns="http://www.w3.org/2000/svg"
 width="300.000000pt" height="81.000000pt" viewBox="0 0 300.000000 81.000000"
 preserveAspectRatio="xMidYMid meet">
<metadata>
Created by potrace 1.10, written by Peter Selinger 2001-2011
</metadata>
<g transform="translate(0.000000,81.000000) scale(0.050000,-0.050000)"
fill="#000000" stroke="none">
<path d="M2154 1383 c-13 -15 -23 -47 -23 -70 -1 -24 -12 -41 -25 -38 -23 4
-77 -71 -69 -95 1 -5 -6 -10 -16 -10 -40 0 -72 -54 -79 -136 -1 -9 -10 -11
-20 -5 -9 6 -29 -4 -43 -21 -22 -26 -21 -34 2 -49 25 -16 24 -18 -2 -19 -52 0
-107 51 -93 88 14 35 -52 119 -75 96 -7 -7 -7 3 1 23 9 26 2 38 -29 46 -23 7
-38 18 -33 26 5 8 -5 32 -22 53 -17 21 -25 27 -18 13 7 -14 3 -25 -9 -25 -11
0 -21 13 -21 28 0 16 -11 33 -25 39 -18 7 -18 10 2 11 92 6 -33 62 -136 62
-114 0 -114 0 -114 -61 0 -41 8 -58 25 -51 15 6 22 -1 16 -15 -5 -14 15 -52
46 -84 30 -33 55 -63 56 -69 1 -33 97 -138 115 -127 12 8 15 4 8 -9 -8 -12 6
-40 30 -63 25 -22 38 -41 30 -41 -9 0 13 -40 48 -88 60 -84 63 -96 56 -245
l-7 -157 125 -6 125 -6 0 189 c0 104 7 193 16 196 39 17 104 134 79 144 -16 6
-14 10 7 11 47 3 178 178 163 217 -9 23 -3 29 20 20 44 -17 180 186 145 218
-37 35 -229 42 -256 10z m19 -340 c-18 -20 -33 -48 -33 -63 0 -18 -10 -14 -29
11 -26 36 -24 41 25 63 73 33 75 32 37 -11z"/>
<path d="M340 1385 c0 -9 -20 -25 -45 -36 -25 -11 -43 -31 -40 -44 2 -13 -8
-19 -23 -13 -15 6 -42 -10 -60 -35 -40 -57 -42 -90 -3 -58 21 18 39 18 71 1
50 -27 660 -43 660 -17 0 9 10 17 21 17 12 0 16 -8 10 -18 -6 -10 18 -17 54
-15 50 2 66 -6 72 -37 7 -38 6 -39 -31 -5 -59 53 -72 42 -27 -20 115 -157 -2
-210 -468 -209 -198 1 -350 -4 -336 -9 41 -17 9 -44 -37 -32 -32 8 -35 15 -15
29 22 15 21 17 -3 11 -24 -7 -31 -57 -36 -263 l-5 -254 125 6 c103 5 127 13
133 43 5 31 0 33 -33 15 -31 -16 -43 -15 -51 8 -8 20 5 34 40 43 46 11 50 20
40 81 -13 82 -14 81 211 91 143 6 177 2 186 -23 9 -23 16 -25 28 -6 11 19 24
14 52 -16 37 -41 37 -41 -1 -28 -22 8 10 -37 70 -99 l110 -113 178 0 c155 0
175 4 153 30 -13 16 -32 25 -41 19 -9 -5 -23 1 -31 14 -9 16 -5 18 14 7 15 -9
-7 21 -50 66 -43 45 -86 78 -95 72 -9 -6 -33 -1 -52 10 -33 19 -32 21 3 21 38
1 38 2 0 44 -28 32 -31 45 -12 52 241 84 268 558 34 617 -27 7 -50 21 -50 31
0 11 -8 14 -19 8 -10 -6 -24 -3 -31 9 -15 24 -343 25 -465 2 -47 -9 -85 -9
-85 1 0 9 -27 17 -60 17 -33 0 -60 -7 -60 -15z"/>
<path d="M2700 1386 c-50 -19 -220 -148 -220 -168 0 -10 -17 -35 -38 -56 -124
-124 -28 -662 109 -609 13 5 29 -5 36 -23 9 -22 5 -28 -12 -18 -14 8 -8 -4 13
-28 20 -24 44 -39 52 -34 8 5 45 -6 83 -25 148 -77 656 -36 657 52 1 26 4 27
18 6 14 -22 26 -21 69 7 60 39 71 74 18 57 -28 -8 -29 -7 -7 9 16 11 38 17 50
12 12 -5 34 11 49 35 24 38 23 41 -7 30 -22 -9 -30 -4 -25 12 5 14 20 25 33
25 69 0 103 119 47 163 -33 26 -32 28 5 23 33 -5 41 7 46 64 4 54 0 63 -16 40
-16 -23 -18 -18 -9 23 17 74 -53 216 -150 304 -74 67 -139 99 -112 55 16 -26
-39 -15 -75 15 -20 17 -32 18 -37 3 -5 -15 -31 -15 -87 -1 l-80 20 75 -8 c41
-5 75 0 75 10 0 20 -508 24 -560 5z m560 -218 c0 -17 8 -25 18 -19 10 6 23 -4
30 -21 7 -18 25 -27 41 -21 15 6 40 -4 55 -22 22 -28 22 -30 -2 -16 -23 14
-25 9 -12 -21 35 -78 35 -227 1 -279 -18 -28 -27 -59 -21 -69 7 -11 -2 -14
-22 -6 -26 10 -32 5 -23 -18 11 -28 -22 -31 -278 -29 l-290 3 -67 73 c-41 45
-72 65 -78 50 -6 -12 -5 2 1 32 8 40 2 58 -24 68 -32 13 -32 15 -1 38 35 26
84 159 51 138 -33 -20 -20 25 15 54 23 18 29 19 19 2 -22 -37 4 -30 62 15 37
30 42 40 18 40 -18 0 -33 9 -33 20 0 11 21 10 51 -4 40 -18 61 -18 91 1 22 13
51 18 64 9 13 -8 89 -15 169 -15 80 -1 136 2 125 6 -11 3 -15 15 -9 25 16 26
49 2 49 -34z"/>
<path d="M3757 1315 c-2 -47 -4 -276 -5 -510 l-3 -425 113 0 c130 0 140 17
131 217 -6 123 10 162 52 127 16 -13 36 -17 45 -9 9 8 11 5 4 -7 -7 -13 5 -39
26 -58 22 -20 40 -30 40 -22 0 7 25 -12 56 -42 64 -65 151 -133 109 -86 -34
38 -31 80 5 80 27 0 39 -38 35 -116 0 -15 10 -22 25 -17 14 6 24 -4 23 -24 -3
-29 24 -34 197 -37 156 -3 188 1 145 17 -30 11 -50 29 -43 40 7 11 -10 13 -42
5 -50 -12 -52 -10 -33 27 18 33 15 46 -15 68 -20 15 -84 65 -141 112 -58 47
-114 79 -126 72 -12 -7 -15 -4 -8 8 7 11 -1 32 -17 45 -32 27 -65 -19 -42 -57
18 -28 -9 -85 -32 -70 -13 7 -10 19 7 31 21 15 21 21 2 29 -18 8 -19 20 -3 51
17 32 13 49 -22 86 l-44 47 87 76 c48 42 114 104 147 136 33 33 67 58 75 55 8
-2 15 10 15 26 0 16 7 28 15 25 17 -5 36 8 155 113 l80 71 -174 0 c-192 1
-211 -9 -399 -203 -41 -42 -82 -76 -92 -76 -10 0 -35 -18 -55 -40 -52 -58 -64
-24 -56 160 l7 160 -121 0 -120 0 -3 -85z m609 -102 c-20 -27 -47 -44 -61 -38
-18 7 -13 21 18 47 60 53 86 47 43 -9z m63 -579 c-6 -16 10 -27 44 -30 63 -5
79 -15 43 -29 -40 -15 -116 20 -116 54 0 17 9 31 19 31 11 0 15 -12 10 -26z"/>
<path d="M4930 1362 c-44 -20 -114 -73 -155 -119 -74 -82 -99 -137 -50 -113
14 7 8 -1 -13 -18 -26 -21 -40 -63 -44 -136 -5 -80 -3 -93 10 -56 18 49 18 49
20 5 1 -25 -8 -61 -20 -81 -26 -41 23 -184 63 -184 13 0 19 -12 13 -26 -14
-38 60 -119 116 -125 55 -6 63 9 25 51 -21 24 -20 24 8 4 23 -18 47 -19 86 -4
35 13 49 13 41 0 -7 -11 -21 -20 -31 -20 -34 0 -99 -78 -76 -92 134 -83 679
-94 648 -12 -10 23 -6 25 16 6 39 -32 109 -2 199 86 83 80 89 101 39 130 -19
12 -24 21 -11 21 13 1 29 -8 36 -19 37 -59 104 81 82 170 -7 26 -3 53 9 60 46
29 -38 290 -93 290 -19 0 -28 14 -24 35 8 39 -92 135 -122 116 -27 -17 -82 9
-82 40 0 45 -587 37 -690 -9z m561 -180 c-36 -14 -34 -17 15 -26 30 -6 54 -2
54 8 0 9 13 6 28 -8 15 -14 25 -31 21 -37 -8 -13 64 -79 74 -69 4 4 9 -21 11
-54 3 -33 16 -75 30 -92 20 -24 20 -28 1 -17 -17 10 -25 2 -25 -27 0 -23 9
-37 20 -30 11 7 20 -2 20 -19 0 -17 -11 -31 -25 -32 -14 -1 -47 -29 -74 -63
l-49 -61 49 26 c45 23 47 23 22 -8 -18 -21 -20 -33 -5 -33 12 0 22 -10 22 -22
0 -16 -10 -15 -31 3 -22 18 -120 25 -355 25 -178 -1 -312 3 -298 8 33 12 -7
66 -42 58 -13 -3 -18 -2 -10 3 8 4 2 36 -12 71 -56 134 -70 194 -45 195 13 0
41 29 63 65 56 89 134 120 320 129 88 4 169 11 180 15 41 14 80 7 41 -8z"/>
<path d="M130 272 c40 -61 166 -148 264 -183 114 -41 4617 -42 4632 -1 6 15 1
37 -10 48 -38 38 -1 84 65 84 62 0 63 -2 56 -80 l-8 -80 230 0 c284 1 486 81
561 221 21 39 -5 39 -2900 39 l-2921 0 31 -48z m916 -63 c45 -93 43 -115 -6
-84 -32 20 -48 20 -80 0 -48 -30 -51 -10 -11 86 37 87 55 87 97 -2z m1045 41
c37 -29 36 -30 -21 -25 -50 4 -61 -3 -67 -42 -6 -43 -1 -46 60 -32 60 13 64
11 39 -18 -34 -42 -90 -42 -131 -2 -75 76 35 185 120 119z m949 -66 c0 -82
-69 -115 -118 -56 -31 37 -6 92 40 92 21 0 38 9 38 20 0 11 9 20 20 20 11 0
20 -34 20 -76z m461 -3 c-13 -23 -11 -43 4 -58 17 -17 15 -23 -11 -23 -37 0
-65 81 -46 132 10 26 18 28 42 8 20 -17 24 -35 11 -59z m-2201 -21 c0 -33 -9
-60 -20 -60 -11 0 -20 27 -20 60 0 33 9 60 20 60 11 0 20 -27 20 -60z m255 38
c-19 -11 -35 -38 -35 -59 0 -21 -9 -39 -20 -39 -11 0 -20 27 -20 60 0 52 7 60
55 59 47 0 50 -3 20 -21z m865 -8 c20 -24 20 -36 0 -60 -50 -61 -156 -14 -128
57 15 41 95 43 128 3z m313 0 c6 -17 5 -46 -4 -65 -13 -31 -16 -29 -27 11 -16
61 -50 66 -58 9 -10 -66 -44 -55 -44 15 0 67 109 92 133 30z m527 -31 c0 -36
-8 -56 -20 -49 -11 7 -20 34 -20 61 0 27 9 49 20 49 11 0 20 -28 20 -61z m460
1 c0 -33 -9 -60 -20 -60 -11 0 -20 27 -20 60 0 33 9 60 20 60 11 0 20 -27 20
-60z m317 12 c8 -41 -27 -71 -83 -72 -41 0 -64 45 -46 91 17 45 120 30 129
-19z m303 -12 c0 -33 -9 -60 -20 -60 -11 0 -20 23 -20 50 0 28 -9 50 -20 50
-11 0 -20 -17 -20 -39 0 -21 -9 -44 -20 -51 -12 -7 -20 13 -20 49 0 54 6 61
60 61 53 0 60 -7 60 -60z m215 9 c-9 -65 -43 -65 -51 0 -5 36 3 51 25 51 23 0
30 -15 26 -51z m265 -9 c0 -33 -9 -60 -20 -60 -11 0 -20 23 -20 50 0 28 -9 50
-20 50 -11 0 -20 -22 -20 -50 0 -27 -9 -50 -20 -50 -11 0 -20 27 -20 60 0 53
7 60 60 60 53 0 60 -7 60 -60z"/>
</g>
</svg>
