<?xml version="1.0" standalone="no"?>
<!DOCTYPE svg PUBLIC "-//W3C//DTD SVG 20010904//EN"
 "http://www.w3.org/TR/2001/REC-SVG-20010904/DTD/svg10.dtd">
<svg version="1.0" xmlns="http://www.w3.org/2000/svg"
 width="300.000000pt" height="300.000000pt" viewBox="0 0 300.000000 300.000000"
 preserveAspectRatio="xMidYMid meet">
<metadata>
Created by potrace 1.10, written by Peter Selinger 2001-2011
</metadata>
<g transform="translate(0.000000,300.000000) scale(0.100000,-0.100000)"
fill="#292828" stroke="none">
<path d="M866 2914 c-3 -9 -6 -153 -6 -320 l0 -304 -164 0 c-150 0 -165 -2
-190 -21 -21 -16 -26 -29 -26 -63 0 -23 7 -52 16 -64 15 -21 21 -22 189 -22
l174 0 3 -597 3 -598 28 -57 c31 -64 94 -124 165 -160 l47 -23 435 0 c425 0
436 1 482 22 63 29 134 96 166 158 l27 50 0 570 0 570 -29 53 c-37 66 -92 116
-165 151 l-56 26 -467 3 -468 3 0 300 c0 188 -4 308 -10 320 -9 16 -22 19 -79
19 -54 0 -70 -4 -75 -16z m1115 -828 c70 -48 69 -35 69 -606 0 -358 -3 -518
-11 -533 -24 -47 -62 -76 -113 -87 -34 -8 -173 -10 -416 -8 -417 3 -415 3
-457 88 l-23 44 0 563 0 563 458 0 457 0 36 -24z"/>
<path d="M207 463 c-4 -3 -7 -80 -7 -170 l0 -163 30 0 c17 0 30 5 30 10 0 6
13 4 30 -5 49 -26 95 -19 137 18 31 29 37 41 40 88 8 112 -71 169 -184 134
-22 -7 -23 -5 -23 44 0 47 -2 51 -23 51 -13 0 -27 -3 -30 -7z m188 -156 c25
-36 19 -92 -11 -116 -34 -27 -64 -27 -98 0 -46 36 -28 133 27 141 37 6 67 -3
82 -25z"/>
<path d="M797 463 c-4 -3 -7 -80 -7 -170 l0 -163 30 0 30 0 0 81 c0 99 9 119
55 119 46 0 55 -20 55 -119 l0 -81 31 0 31 0 -4 100 c-3 93 -5 101 -30 127
-28 28 -72 35 -115 20 -22 -8 -23 -6 -23 42 0 47 -2 51 -23 51 -13 0 -27 -3
-30 -7z"/>
<path d="M1077 463 c-4 -3 -7 -24 -7 -45 0 -27 -4 -38 -15 -38 -9 0 -15 -9
-15 -25 0 -16 6 -25 15 -25 12 0 15 -18 15 -100 l0 -100 30 0 30 0 0 100 c0
93 1 100 20 100 15 0 20 7 20 25 0 18 -5 25 -20 25 -17 0 -20 7 -20 45 0 40
-2 45 -23 45 -13 0 -27 -3 -30 -7z"/>
<path d="M1530 426 c0 -41 -2 -45 -27 -48 -39 -4 -42 -28 -4 -28 l31 0 0 -110
c0 -91 3 -110 15 -110 12 0 15 19 15 110 l0 110 25 0 c16 0 25 6 25 15 0 9 -9
15 -24 15 -22 0 -25 5 -28 42 -4 59 -28 63 -28 4z"/>
<path d="M1947 463 c-4 -3 -7 -80 -7 -170 0 -138 2 -163 15 -163 12 0 15 15
15 78 0 42 6 88 13 102 16 32 59 52 92 44 42 -10 58 -47 63 -140 3 -46 8 -84
13 -84 5 0 9 43 9 96 0 92 -1 97 -29 125 -33 33 -93 40 -127 14 -31 -23 -34
-19 -34 45 0 55 -6 70 -23 53z"/>
<path d="M2470 435 c0 -16 6 -25 15 -25 9 0 15 9 15 25 0 16 -6 25 -15 25 -9
0 -15 -9 -15 -25z"/>
<path d="M586 380 c-53 -17 -96 -76 -96 -132 0 -64 70 -128 140 -128 40 0 94
29 110 61 11 20 10 21 -22 16 -18 -2 -48 -11 -66 -18 -28 -12 -37 -12 -60 2
-15 8 -28 22 -30 32 -3 15 8 17 98 17 l102 0 -7 38 c-16 87 -90 137 -169 112z
m96 -67 c30 -27 21 -33 -52 -33 -54 0 -70 3 -70 15 0 34 89 48 122 18z"/>
<path d="M1254 371 c-84 -38 -98 -160 -26 -225 31 -27 105 -33 139 -11 18 12
28 14 31 7 2 -7 15 -12 28 -12 l24 0 0 125 0 125 -24 0 c-13 0 -26 -5 -28 -12
-3 -9 -14 -7 -40 5 -45 21 -53 21 -104 -2z m106 -51 c45 -24 41 -117 -5 -138
-37 -17 -59 -15 -89 9 -33 26 -37 88 -6 119 21 21 69 26 100 10z"/>
<path d="M1679 357 c-80 -53 -71 -180 16 -221 45 -22 97 -20 128 4 30 24 37
25 37 5 0 -8 7 -15 15 -15 13 0 15 21 15 125 0 104 -2 125 -15 125 -8 0 -15
-9 -15 -20 0 -11 -3 -20 -6 -20 -3 0 -17 9 -31 20 -36 28 -100 27 -144 -3z
m148 -30 c44 -40 38 -128 -11 -162 -39 -28 -114 -15 -143 24 -20 27 -23 71 -8
107 26 62 111 79 162 31z"/>
<path d="M2206 358 c4 -13 26 -68 50 -123 31 -73 48 -101 62 -103 14 -2 23 5
30 25 6 15 27 66 47 113 20 47 39 91 42 98 3 6 -2 12 -10 12 -10 0 -30 -37
-59 -105 -23 -57 -47 -103 -52 -102 -4 2 -23 39 -40 82 -18 44 -38 90 -45 103
-15 29 -35 29 -25 0z"/>
<path d="M2470 255 c0 -104 2 -125 15 -125 13 0 15 21 15 125 0 104 -2 125
-15 125 -13 0 -15 -21 -15 -125z"/>
<path d="M2603 360 c-81 -49 -82 -170 -1 -220 59 -36 148 -16 178 40 19 35 3
35 -35 1 -49 -43 -104 -43 -146 -2 -53 54 -44 61 86 61 114 0 115 0 115 24 0
30 -39 87 -70 103 -37 19 -91 16 -127 -7z m112 -15 c26 -13 55 -49 55 -70 0
-3 -45 -5 -100 -5 -55 0 -100 4 -100 9 0 15 42 62 64 71 31 13 44 12 81 -5z"/>
</g>
</svg>
