<?xml version="1.0" standalone="no"?>
<!DOCTYPE svg PUBLIC "-//W3C//DTD SVG 20010904//EN"
 "http://www.w3.org/TR/2001/REC-SVG-20010904/DTD/svg10.dtd">
<svg version="1.0" xmlns="http://www.w3.org/2000/svg"
 width="900.000000pt" height="900.000000pt" viewBox="0 0 900.000000 900.000000"
 preserveAspectRatio="xMidYMid meet">
<metadata>
Created by potrace 1.10, written by Peter Selinger 2001-2011
</metadata>
<g transform="translate(0.000000,900.000000) scale(0.100000,-0.100000)"
fill="#292828" stroke="none">
<path d="M2619 8768 c-9 -7 -23 -25 -32 -40 -16 -25 -17 -103 -17 -940 0 -502
-4 -918 -8 -925 -6 -9 -128 -13 -502 -15 -476 -3 -496 -4 -535 -24 -30 -15
-47 -34 -67 -74 -25 -48 -28 -64 -28 -157 0 -90 3 -110 24 -151 13 -26 39 -58
57 -72 l34 -25 505 -3 c375 -3 507 -6 512 -15 4 -7 8 -779 8 -1716 0 -1825 -3
-1720 47 -1891 69 -241 293 -491 534 -598 59 -26 92 -37 219 -74 69 -20 2399
-19 2485 1 143 33 269 86 370 154 135 92 283 267 344 407 45 104 49 115 68
190 17 71 18 151 18 1645 0 1435 -1 1575 -17 1625 -9 30 -21 74 -27 96 -16 61
-103 225 -154 291 -89 115 -208 214 -337 278 -41 20 -87 43 -102 51 -14 8 -37
14 -50 14 -13 0 -29 5 -35 11 -29 29 -154 32 -1488 38 l-1360 6 -5 915 c-5
826 -7 919 -22 952 -9 20 -25 41 -36 47 -30 16 -384 15 -403 -1z m3213 -2465
c139 -54 233 -150 284 -288 l24 -69 -2 -1525 c-2 -1126 -6 -1531 -14 -1546 -7
-11 -20 -40 -30 -65 -11 -25 -48 -75 -82 -112 -72 -76 -150 -119 -247 -137
-78 -15 -2216 -15 -2301 -1 -128 22 -259 118 -321 236 -67 128 -63 15 -63
1850 0 914 3 1664 7 1667 3 4 613 7 1354 7 1237 0 1352 -1 1391 -17z"/>
<path d="M606 1375 c-3 -9 -6 -236 -6 -505 0 -550 -8 -500 84 -500 57 0 76 12
76 47 0 32 24 29 70 -7 21 -16 44 -30 52 -30 8 0 23 -7 34 -15 13 -10 46 -14
110 -15 76 0 101 4 147 24 145 65 227 200 227 376 0 196 -100 336 -284 394
-88 28 -184 16 -268 -34 -69 -40 -72 -34 -78 130 l-5 145 -76 3 c-63 2 -78 0
-83 -13z m443 -386 c65 -14 125 -58 152 -111 28 -54 31 -196 6 -244 -89 -169
-316 -172 -419 -5 -28 44 -31 189 -5 236 47 85 95 116 209 134 4 1 30 -4 57
-10z"/>
<path d="M2370 1365 c-6 -16 -10 -211 -10 -499 0 -395 2 -475 14 -485 9 -7 42
-11 88 -9 l73 3 5 245 c5 238 6 246 30 290 35 62 77 83 158 77 68 -5 92 -19
121 -72 13 -25 17 -74 21 -285 l5 -255 73 -3 c48 -2 79 1 89 9 13 11 14 50 11
263 -3 153 -9 263 -16 281 -6 17 -14 42 -17 56 -9 46 -90 126 -151 148 -88 33
-206 23 -279 -25 -16 -10 -30 -13 -35 -8 -5 5 -11 72 -12 149 l-3 140 -78 3
c-75 3 -77 2 -87 -23z"/>
<path d="M3223 1378 c-4 -7 -10 -65 -13 -128 l-5 -115 -35 -3 c-19 -2 -38 -7
-43 -11 -6 -6 -12 -91 -8 -128 0 -8 15 -13 34 -13 18 0 38 -5 45 -12 9 -9 12
-88 12 -294 0 -230 3 -284 14 -293 9 -7 41 -11 83 -9 l68 3 3 289 c1 186 6
294 13 302 6 7 32 14 57 16 l47 3 0 70 0 70 -47 3 c-25 2 -51 9 -57 16 -6 7
-12 64 -13 127 l-3 114 -72 3 c-50 2 -74 -1 -80 -10z"/>
<path d="M4576 1375 c-3 -9 -6 -65 -6 -124 0 -70 -4 -111 -12 -119 -7 -7 -39
-12 -74 -12 -67 0 -88 -13 -82 -52 3 -21 9 -23 83 -28 l80 -5 3 -319 c1 -215
6 -324 13 -333 13 -15 65 -18 74 -3 3 5 6 149 5 318 0 170 2 316 6 326 5 13
21 16 80 16 81 0 92 8 80 55 -6 24 -10 25 -75 25 -44 0 -72 5 -79 13 -7 7 -13
66 -14 133 l-3 119 -36 3 c-26 2 -38 -1 -43 -13z"/>
<path d="M5824 1378 c-10 -16 -12 -969 -2 -990 11 -22 61 -24 77 -4 8 10 11
79 10 234 -1 222 3 254 39 331 44 90 167 132 287 96 132 -40 167 -140 165
-473 -1 -106 2 -188 8 -194 5 -5 22 -8 38 -6 l29 3 0 270 0 270 -29 57 c-34
67 -63 97 -131 133 -44 23 -62 27 -145 27 -103 1 -143 -12 -209 -67 -51 -44
-55 -34 -52 116 1 74 0 152 -4 172 -7 34 -10 37 -41 37 -18 0 -36 -5 -40 -12z"/>
<path d="M7404 1367 c-3 -8 -4 -43 -2 -78 l3 -64 40 0 40 0 0 75 0 75 -38 3
c-25 2 -39 -1 -43 -11z"/>
<path d="M1770 1136 c-154 -41 -270 -167 -300 -326 -14 -74 4 -181 44 -259 25
-48 119 -135 168 -155 24 -10 56 -24 71 -32 40 -20 216 -19 243 1 10 8 27 15
37 15 24 0 88 42 130 85 33 34 73 102 65 110 -2 2 -40 5 -85 6 -71 1 -85 -1
-115 -22 -66 -48 -99 -57 -174 -49 -85 9 -111 19 -152 61 -38 39 -48 65 -32
84 10 13 60 15 290 15 236 0 279 2 290 15 18 21 8 135 -18 208 -20 55 -65 122
-107 160 -93 82 -233 115 -355 83z m230 -180 c51 -34 98 -102 82 -118 -12 -12
-365 -21 -404 -11 -56 14 33 132 118 156 10 3 51 5 91 3 59 -2 80 -8 113 -30z"/>
<path d="M3815 1136 c-176 -52 -285 -202 -285 -392 0 -80 31 -181 76 -245 30
-44 127 -119 154 -119 9 0 25 -7 36 -15 13 -10 46 -14 112 -15 80 0 100 4 143
25 27 14 59 35 70 46 29 29 63 21 69 -16 5 -30 5 -30 75 -30 l70 0 0 375 0
375 -72 3 c-69 3 -73 2 -73 -18 0 -25 -17 -60 -29 -60 -5 0 -30 17 -57 38 -76
58 -189 77 -289 48z m196 -156 c84 -24 132 -78 155 -178 20 -87 -5 -182 -64
-237 -35 -34 -63 -45 -141 -55 -99 -13 -178 25 -226 106 -21 36 -25 55 -25
128 0 99 19 147 79 196 56 47 141 62 222 40z"/>
<path d="M5180 1131 c-106 -17 -232 -108 -276 -202 -20 -42 -41 -113 -52 -172
-5 -30 18 -124 45 -187 35 -82 125 -162 223 -199 41 -16 78 -21 147 -21 103 0
159 20 223 83 19 18 43 36 52 40 19 7 25 -7 30 -68 3 -25 8 -31 31 -33 58 -7
57 -11 57 372 0 193 -4 356 -8 362 -9 14 -50 24 -68 17 -9 -3 -14 -21 -14 -54
0 -66 -19 -73 -68 -26 -79 76 -195 108 -322 88z m165 -86 c88 -22 157 -83 198
-174 32 -71 29 -188 -7 -264 -31 -64 -81 -118 -141 -149 -55 -29 -201 -30
-260 -2 -102 49 -157 119 -176 227 -44 240 152 423 386 362z"/>
<path d="M7832 1097 c-65 -33 -143 -102 -167 -148 -61 -116 -62 -288 -1 -403
19 -36 104 -125 131 -137 11 -5 27 -13 35 -18 53 -31 96 -41 178 -41 62 0 94
4 108 15 10 8 25 15 32 15 29 0 125 76 168 131 52 68 54 93 8 97 -27 3 -36 -3
-67 -45 -37 -50 -69 -78 -127 -108 -28 -15 -55 -19 -130 -18 -83 1 -101 4
-141 27 -83 47 -165 162 -157 219 3 22 3 22 343 27 l340 5 3 44 c8 114 -89
279 -194 329 -27 13 -57 27 -66 33 -10 5 -66 9 -125 9 -101 -1 -112 -3 -171
-33z m247 -48 c97 -30 161 -84 200 -167 40 -85 52 -82 -278 -82 -259 0 -290 2
-295 16 -4 9 0 27 9 40 8 13 15 29 15 35 0 16 66 96 95 115 72 47 182 65 254
43z"/>
<path d="M6590 1097 c0 -13 4 -27 9 -32 5 -6 19 -35 31 -65 12 -30 28 -68 35
-85 11 -24 97 -231 180 -430 43 -105 47 -110 96 -113 51 -3 56 1 84 68 10 25
27 65 37 90 10 25 23 53 28 62 6 10 10 22 10 28 0 10 42 106 76 173 8 16 14
33 14 38 0 6 10 31 21 57 50 108 89 205 89 218 0 24 -65 18 -83 -9 -12 -19
-232 -528 -251 -580 -3 -10 -13 -17 -22 -15 -22 4 -31 22 -109 213 -43 103
-54 129 -88 205 -13 30 -28 66 -32 80 -11 37 -46 104 -59 112 -6 4 -23 8 -38
8 -23 0 -28 -5 -28 -23z"/>
<path d="M7405 1108 c-3 -7 -4 -175 -3 -373 l3 -360 40 0 40 0 0 370 0 370
-38 3 c-24 2 -39 -1 -42 -10z"/>
</g>
</svg>
