<?xml version="1.0" standalone="no"?>
<!DOCTYPE svg PUBLIC "-//W3C//DTD SVG 20010904//EN"
 "http://www.w3.org/TR/2001/REC-SVG-20010904/DTD/svg10.dtd">
<svg version="1.0" xmlns="http://www.w3.org/2000/svg"
 width="300.000000pt" height="300.000000pt" viewBox="0 0 300.000000 300.000000"
 preserveAspectRatio="xMidYMid meet">
<metadata>
Created by potrace 1.10, written by Peter Selinger 2001-2011
</metadata>
<g transform="translate(0.000000,300.000000) scale(0.100000,-0.100000)"
fill="#292828" stroke="none">
<path d="M866 2914 c-3 -9 -6 -154 -6 -322 l0 -307 -176 0 c-162 0 -177 -1
-190 -19 -19 -26 -18 -96 2 -124 15 -21 21 -22 190 -22 l174 0 0 -580 c0 -554
1 -583 20 -637 26 -76 83 -139 161 -182 l64 -36 435 0 435 0 56 28 c63 30 125
92 161 159 l23 43 0 570 0 570 -29 53 c-37 66 -92 116 -165 151 l-56 26 -467
0 -468 0 0 303 c0 190 -4 311 -10 323 -9 16 -22 19 -79 19 -54 0 -70 -4 -75
-16z m128 -326 c6 -258 9 -305 23 -320 15 -17 46 -18 474 -18 432 0 461 -1
511 -20 75 -28 122 -71 158 -143 l31 -63 -3 -554 -3 -555 -27 -46 c-33 -57
-87 -105 -147 -133 -45 -20 -60 -21 -471 -21 -413 0 -426 1 -471 21 -63 29
-120 83 -149 141 l-25 48 -3 595 c-2 529 -4 596 -19 612 -14 15 -38 18 -187
20 l-171 3 0 45 0 45 170 3 c159 2 171 3 188 23 15 19 17 50 17 320 l0 299 48
0 49 0 7 -302z"/>
<path d="M1017 2122 c-16 -17 -17 -68 -17 -574 0 -388 3 -565 11 -589 17 -51
55 -97 99 -119 37 -19 60 -20 429 -20 251 0 400 4 418 11 38 14 81 56 104 101
18 35 19 65 19 549 0 501 0 514 -21 556 -12 24 -37 56 -57 71 l-35 27 -467 3
c-444 2 -467 2 -483 -16z m963 -34 c18 -13 41 -39 51 -58 18 -32 19 -68 19
-548 0 -551 1 -542 -52 -588 -48 -42 -62 -44 -459 -44 -358 0 -383 2 -419 20
-21 11 -49 34 -62 52 l-23 33 -3 578 -2 577 458 0 459 0 33 -22z"/>
<path d="M200 300 l0 -170 30 0 c22 0 28 4 24 15 -8 20 3 19 33 -5 41 -32 96
-27 140 13 31 29 37 41 40 88 3 42 0 61 -17 87 -33 54 -115 78 -156 47 -30
-23 -34 -19 -34 40 0 54 0 55 -30 55 l-30 0 0 -170z m53 25 c-7 -21 -13 -19
-13 6 0 11 4 18 10 14 5 -3 7 -12 3 -20z m131 -6 c21 -16 26 -29 26 -64 0 -35
-5 -48 -26 -64 -15 -12 -37 -21 -49 -21 -12 0 -34 9 -49 21 -21 16 -26 29 -26
63 0 74 67 109 124 65z"/>
<path d="M790 301 l0 -169 30 -4 30 -5 0 83 c0 45 3 90 6 99 11 27 53 38 80
20 22 -14 24 -22 24 -108 l0 -92 31 0 31 0 -4 103 c-3 103 -3 104 -36 133 -36
32 -63 36 -104 15 l-28 -15 0 55 c0 53 0 54 -30 54 l-30 0 0 -169z m42 15 c-9
-18 -11 -16 -11 19 0 33 1 37 10 21 8 -12 8 -25 1 -40z"/>
<path d="M1077 425 c5 -41 4 -45 -16 -45 -16 0 -21 -6 -21 -25 0 -19 5 -25 21
-25 20 0 21 -4 17 -99 l-3 -99 28 -5 27 -4 0 104 c0 96 1 103 20 103 15 0 20
7 20 25 0 18 -5 25 -20 25 -17 0 -20 7 -20 45 0 43 -1 45 -30 45 -29 0 -30 0
-23 -45z m42 -81 c-9 -11 -15 -12 -25 -3 -11 9 -12 15 -3 25 9 11 15 12 25 3
11 -9 12 -15 3 -25z"/>
<path d="M1528 425 c4 -44 4 -45 -27 -45 -21 0 -31 -5 -31 -15 0 -10 10 -15
30 -15 l30 0 0 -113 c0 -94 3 -114 15 -114 12 0 15 20 15 114 l0 113 31 0 c20
0 29 4 26 13 -2 6 -16 12 -30 12 -26 -1 -27 2 -27 47 0 39 -3 48 -18 48 -14 0
-17 -7 -14 -45z"/>
<path d="M1942 298 c2 -118 7 -173 15 -175 8 -3 12 25 15 91 3 83 6 98 25 118
30 30 86 30 116 0 19 -20 22 -34 23 -115 1 -59 6 -92 13 -92 6 0 11 3 11 8 0
4 0 48 0 98 0 87 -1 92 -29 120 -33 33 -93 40 -127 14 -31 -23 -34 -19 -34 45
0 47 -3 60 -15 60 -13 0 -15 -23 -13 -172z"/>
<path d="M2470 440 c0 -20 5 -30 15 -30 10 0 15 10 15 30 0 20 -5 30 -15 30
-10 0 -15 -10 -15 -30z"/>
<path d="M571 373 c-52 -27 -76 -66 -76 -124 0 -42 4 -53 35 -84 38 -37 88
-53 134 -41 27 7 86 53 86 67 0 14 -53 10 -74 -6 -11 -8 -32 -15 -47 -15 -27
0 -79 34 -79 51 0 6 41 9 103 8 l102 -1 -2 37 c-6 93 -103 150 -182 108z m112
-61 c30 -26 19 -32 -58 -32 -63 0 -73 2 -69 15 16 40 89 50 127 17z m-137 -71
c-13 -20 -26 -11 -26 16 0 25 1 26 16 11 9 -9 13 -21 10 -27z"/>
<path d="M1249 371 c-60 -33 -84 -107 -55 -174 20 -47 49 -69 101 -75 37 -4
52 0 76 17 26 20 29 20 29 4 0 -12 8 -18 25 -19 l25 -2 0 129 0 129 -25 0
c-16 0 -25 -6 -25 -15 0 -19 -9 -19 -30 0 -28 25 -80 28 -121 6z m122 -58 c38
-32 27 -111 -17 -132 -36 -16 -58 -14 -88 10 -43 33 -33 120 16 138 27 10 68
2 89 -16z m49 5 c0 -16 -3 -19 -11 -11 -6 6 -8 16 -5 22 11 17 16 13 16 -11z
m-4 -145 c-11 -11 -17 4 -9 23 7 18 8 18 11 1 2 -10 1 -21 -2 -24z"/>
<path d="M1682 360 c-84 -51 -76 -182 13 -224 50 -24 98 -20 134 10 l31 26 0
-26 c0 -16 6 -26 15 -26 13 0 15 21 15 130 0 109 -2 130 -15 130 -8 0 -15 -9
-15 -20 0 -11 -3 -20 -6 -20 -3 0 -17 9 -31 20 -34 26 -98 26 -141 0z m151
-40 c31 -35 35 -75 12 -120 -19 -36 -43 -50 -90 -50 -49 0 -83 25 -95 71 -30
110 97 182 173 99z"/>
<path d="M2200 363 c6 -10 30 -65 54 -123 61 -144 68 -144 131 7 28 65 52 121
53 125 2 5 -3 8 -11 8 -10 0 -31 -38 -59 -105 -23 -57 -47 -103 -52 -102 -4 2
-23 39 -40 82 -43 106 -54 125 -71 125 -12 0 -13 -4 -5 -17z"/>
<path d="M2470 252 c0 -108 2 -129 15 -129 13 0 15 21 15 129 0 107 -2 128
-15 128 -13 0 -15 -21 -15 -128z"/>
<path d="M2603 360 c-61 -37 -81 -116 -43 -177 47 -78 164 -83 214 -11 33 47
11 52 -32 8 -42 -42 -101 -42 -143 -1 -53 54 -44 61 86 61 114 0 115 0 115 24
0 30 -39 87 -70 103 -37 19 -91 16 -127 -7z m106 -11 c26 -9 61 -51 61 -74 0
-3 -45 -5 -100 -5 -55 0 -100 4 -100 9 0 15 42 62 64 71 29 12 38 12 75 -1z"/>
</g>
</svg>
