<?xml version="1.0" standalone="no"?>
<!DOCTYPE svg PUBLIC "-//W3C//DTD SVG 20010904//EN"
 "http://www.w3.org/TR/2001/REC-SVG-20010904/DTD/svg10.dtd">
<svg version="1.0" xmlns="http://www.w3.org/2000/svg"
 width="300.000000pt" height="71.000000pt" viewBox="0 0 300.000000 71.000000"
 preserveAspectRatio="xMidYMid meet">
<metadata>
Created by potrace 1.10, written by Peter Selinger 2001-2011
</metadata>
<g transform="translate(0.000000,71.000000) scale(0.100000,-0.100000)"
fill="#000000" stroke="none">
<path d="M2777 682 c-21 -23 -22 -76 -1 -96 8 -9 31 -16 49 -16 18 0 41 7 49
16 22 21 20 77 -2 97 -25 22 -75 21 -95 -1z m81 -8 c41 -29 19 -94 -33 -94
-49 0 -72 55 -38 92 20 22 42 23 71 2z"/>
<path d="M2790 636 c0 -35 20 -53 20 -18 1 14 4 13 20 -6 l19 -23 -2 38 c-2
33 -5 38 -29 41 -26 3 -28 1 -28 -32z"/>
<path d="M680 622 c0 -1 54 -73 120 -158 l120 -156 0 -74 0 -74 55 0 55 0 0
73 0 73 110 148 c60 81 112 152 116 157 3 5 -27 9 -69 9 l-74 0 -68 -96 c-37
-52 -71 -92 -75 -87 -3 4 -36 47 -73 95 l-67 86 -75 4 c-41 2 -75 2 -75 0z
m162 -73 c67 -83 102 -120 120 -130 25 -13 55 11 115 92 51 70 60 79 86 79 30
0 19 -27 -46 -113 -95 -126 -110 -153 -113 -209 -3 -55 -28 -95 -43 -70 -5 8
-11 41 -15 75 -6 56 -12 68 -78 156 -40 53 -81 105 -90 115 -25 27 -22 46 6
46 16 0 35 -14 58 -41z"/>
<path d="M2211 623 l-84 -4 -94 -80 -93 -80 0 81 0 80 -60 0 -60 0 0 -230 0
-230 60 0 59 0 3 77 3 76 90 -76 90 -77 90 0 c75 0 87 2 75 13 -8 8 -64 53
-125 102 -60 48 -116 94 -123 100 -11 10 15 35 127 130 135 113 150 128 134
123 -5 -1 -46 -4 -92 -5z m-307 -49 c3 -9 6 -35 6 -58 0 -87 42 -87 143 0 54
45 88 67 113 71 49 8 41 -4 -63 -95 -45 -40 -84 -81 -88 -92 -8 -26 14 -54 96
-122 89 -74 91 -76 79 -83 -20 -12 -64 6 -109 43 -76 65 -114 92 -127 92 -25
0 -44 -32 -44 -74 0 -29 -6 -48 -18 -59 -17 -16 -19 -16 -30 5 -14 28 -13 358
1 376 13 17 34 15 41 -4z"/>
<path d="M285 605 c-28 -15 -95 -81 -95 -95 0 -4 71 -5 158 -2 213 6 268 -11
247 -76 -11 -35 -49 -42 -235 -42 l-180 0 0 -115 0 -115 60 0 60 0 0 60 0 60
83 0 83 0 59 -60 59 -60 87 0 87 0 -68 66 -68 66 43 41 c90 86 66 216 -50 268
-54 25 -283 27 -330 4z m307 -29 c101 -43 123 -135 52 -223 -40 -49 -43 -81
-9 -113 30 -28 32 -46 5 -53 -14 -4 -39 12 -89 57 l-69 62 -88 -2 c-78 -1 -90
-4 -106 -24 -10 -12 -18 -32 -18 -44 0 -34 -17 -53 -36 -41 -20 13 -27 63 -19
122 l6 42 174 3 c168 3 174 4 199 27 33 31 36 89 5 117 -18 17 -41 19 -175 22
-85 2 -154 8 -154 12 0 5 12 18 26 29 24 19 40 21 144 21 79 0 129 -5 152 -14z"/>
<path d="M1346 605 c-46 -16 -99 -65 -122 -113 -40 -86 -10 -221 62 -281 50
-40 96 -51 222 -51 101 0 114 2 163 28 73 38 112 100 117 188 7 114 -49 203
-147 232 -53 17 -247 14 -295 -3z m299 -34 c47 -22 89 -64 104 -104 28 -72 2
-178 -55 -227 -46 -39 -73 -47 -173 -49 -52 -1 -98 -4 -101 -6 -14 -9 -116 53
-144 88 -28 35 -31 46 -33 114 -1 67 2 80 25 116 43 64 103 87 232 87 81 0
114 -5 145 -19z"/>
<path d="M1339 492 c-43 -44 -52 -83 -34 -159 5 -23 49 -72 65 -74 6 -1 14 -2
19 -3 5 0 12 -3 15 -6 4 -5 152 -3 204 2 7 1 28 15 48 32 65 57 62 159 -7 217
-29 26 -36 27 -151 28 l-119 2 -40 -39z m290 -9 c14 -11 32 -38 40 -60 13 -36
12 -43 -5 -79 -29 -60 -70 -76 -179 -72 -53 3 -99 10 -111 18 -82 52 -63 181
30 210 52 16 194 5 225 -17z"/>
<path d="M2349 592 c-167 -87 -153 -343 23 -417 56 -23 259 -21 314 4 169 77
177 333 13 415 -49 24 -63 26 -175 26 -114 0 -125 -2 -175 -28z m320 -20 c65
-25 104 -79 111 -152 7 -70 0 -100 -36 -151 -42 -61 -96 -82 -217 -82 -109 0
-142 10 -193 53 -59 52 -79 122 -63 223 4 29 84 105 121 116 57 16 227 12 277
-7z"/>
<path d="M2395 518 c-48 -28 -73 -72 -73 -128 1 -109 64 -150 225 -144 103 3
140 19 168 74 34 66 7 163 -55 195 -36 18 -235 20 -265 3z m257 -32 c32 -21
48 -57 48 -105 0 -76 -56 -111 -175 -111 -120 0 -175 35 -175 112 0 66 31 106
95 122 42 11 182 -2 207 -18z"/>
<path d="M223 85 c86 -79 22 -75 1164 -75 739 0 1012 3 1007 11 -4 8 0 9 15 4
12 -4 21 -2 21 4 0 6 -3 10 -7 10 -25 -4 -34 3 -31 23 2 17 11 24 32 26 28 3
28 2 24 -37 l-4 -41 96 0 c53 1 112 7 133 14 47 17 115 64 128 88 9 17 -36 18
-1308 18 l-1318 -1 48 -44z m391 -11 c9 -20 14 -39 10 -43 -4 -3 -9 0 -11 7
-6 16 -40 16 -46 0 -2 -7 -7 -10 -11 -7 -9 8 20 79 32 79 4 0 16 -16 26 -36z
m114 -4 c1 -22 -2 -40 -7 -40 -10 0 -18 38 -13 63 6 31 19 18 20 -23z m346 34
c26 -10 18 -25 -9 -18 -21 5 -25 3 -25 -16 0 -19 4 -21 26 -16 19 5 25 3 22
-6 -7 -21 -50 -22 -65 -2 -17 23 -16 29 3 48 17 18 24 19 48 10z m436 -35 c0
-38 -1 -40 -27 -37 -22 2 -28 8 -28 28 0 18 5 25 18 24 9 -1 17 4 17 12 0 8 5
14 10 14 6 0 10 -18 10 -41z m100 1 c0 -22 -4 -40 -10 -40 -5 0 -10 18 -10 40
0 22 5 40 10 40 6 0 10 -18 10 -40z m200 0 c0 -22 -4 -40 -10 -40 -5 0 -9 18
-8 40 1 22 5 40 10 40 4 0 8 -18 8 -40z m378 1 c2 -31 -12 -49 -23 -31 -8 13
4 72 14 66 3 -3 8 -18 9 -35z m-473 -9 c0 -39 -21 -42 -28 -5 -6 32 0 46 16
40 7 -2 12 -18 12 -35z m-1182 22 c4 -4 -3 -16 -15 -26 -19 -16 -32 -18 -88
-13 -83 7 -145 25 -128 37 15 9 222 11 231 2z m317 -5 c0 -5 -4 -9 -9 -9 -5 0
-11 -9 -14 -21 -3 -12 -10 -18 -16 -14 -11 6 -15 38 -6 46 8 9 45 8 45 -2z
m129 2 c23 -15 -8 -36 -56 -38 -47 -2 -79 21 -52 38 18 11 90 11 108 0z m171
-12 c0 -5 -11 -9 -25 -9 -28 0 -34 16 -7 23 20 4 32 -1 32 -14z m75 -9 c0 -18
-6 -26 -23 -28 -24 -4 -38 18 -28 44 3 9 15 14 28 12 17 -2 23 -10 23 -28z
m143 -2 c2 -16 -1 -28 -7 -28 -6 0 -11 9 -11 20 0 11 -4 20 -10 20 -5 0 -10
-9 -10 -20 0 -11 -4 -20 -10 -20 -5 0 -10 14 -10 31 0 27 3 30 28 27 21 -2 28
-9 30 -30z m582 17 c10 -12 10 -18 0 -30 -17 -21 -54 -15 -58 9 -7 32 36 48
58 21z m138 -18 c2 -15 -1 -27 -7 -27 -6 0 -11 9 -11 20 0 11 -4 20 -10 20 -5
0 -10 -9 -10 -20 0 -11 -4 -20 -10 -20 -5 0 -10 13 -10 29 0 26 3 30 28 28 21
-2 28 -8 30 -30z m220 1 c2 -16 -1 -28 -7 -28 -6 0 -11 9 -11 20 0 11 -4 20
-10 20 -5 0 -10 -9 -10 -20 0 -11 -4 -20 -10 -20 -5 0 -10 13 -10 29 0 24 4
28 28 27 22 -1 28 -6 30 -28z m392 23 c0 -26 -168 -48 -204 -27 -12 6 -23 12
-26 14 -2 2 2 7 10 12 19 12 220 13 220 1z"/>
</g>
</svg>
