<?xml version="1.0" encoding="UTF-8"?>
<!DOCTYPE svg PUBLIC "-//W3C//DTD SVG 1.1//EN" "http://www.w3.org/Graphics/SVG/1.1/DTD/svg11.dtd">
<svg xmlns="http://www.w3.org/2000/svg" version="1.1" width="512px" height="512px" style="shape-rendering:geometricPrecision; text-rendering:geometricPrecision; image-rendering:optimizeQuality; fill-rule:evenodd; clip-rule:evenodd" xmlns:xlink="http://www.w3.org/1999/xlink">
<g><path style="opacity:0.846" fill="#6c757d" d="M 45.5,45.5 C 49.1817,45.3347 52.8484,45.5014 56.5,46C 61.1507,52.8726 59.3174,57.0393 51,58.5C 42.1031,57.0724 40.2697,52.739 45.5,45.5 Z"/></g>
<g><path style="opacity:0.904" fill="#6c757d" d="M 69.5,45.5 C 100.168,45.3334 130.835,45.5 161.5,46C 164.864,49.0262 165.364,52.5262 163,56.5C 161.933,57.1905 160.766,57.6905 159.5,58C 130.167,58.6667 100.833,58.6667 71.5,58C 68.0503,57.2884 66.3836,55.1218 66.5,51.5C 66.6284,49.0452 67.6284,47.0452 69.5,45.5 Z"/></g>
<g><path style="opacity:0.927" fill="#6c757d" d="M 15.5,76.5 C 175.5,76.3333 335.5,76.5 495.5,77C 502.975,79.4775 507.142,84.6442 508,92.5C 508.667,199.5 508.667,306.5 508,413.5C 507.219,420.597 503.719,425.764 497.5,429C 487.58,430.423 477.58,430.923 467.5,430.5C 467.666,438.84 467.5,447.173 467,455.5C 465.932,460.235 463.099,463.402 458.5,465C 434.5,465.667 410.5,465.667 386.5,465C 382.333,463.5 379.5,460.667 378,456.5C 377.5,447.84 377.334,439.173 377.5,430.5C 296.167,430.5 214.833,430.5 133.5,430.5C 133.666,439.173 133.5,447.84 133,456.5C 131.5,460.667 128.667,463.5 124.5,465C 100.5,465.667 76.5,465.667 52.5,465C 47.9014,463.402 45.0681,460.235 44,455.5C 43.5003,447.173 43.3336,438.84 43.5,430.5C 33.4203,430.923 23.4203,430.423 13.5,429C 7.28096,425.764 3.78096,420.597 3,413.5C 2.33333,306.5 2.33333,199.5 3,92.5C 4.05556,84.6239 8.22223,79.2906 15.5,76.5 Z M 20.5,88.5 C 177.914,88.0029 335.247,88.5029 492.5,90C 493.701,90.9025 494.535,92.0692 495,93.5C 495.996,200.914 495.662,308.247 494,415.5C 493.5,416 493,416.5 492.5,417C 334.5,417.667 176.5,417.667 18.5,417C 17.2986,416.097 16.4652,414.931 16,413.5C 15.3333,306.833 15.3333,200.167 16,93.5C 17.025,91.313 18.525,89.6464 20.5,88.5 Z M 157.5,139.5 C 215.424,137.188 255.591,162.521 278,215.5C 292.347,263.952 281.18,305.452 244.5,340C 209.123,368.062 170.123,374.396 127.5,359C 71.3672,331.235 48.8672,286.402 60,224.5C 71.4135,185.42 96.2468,158.92 134.5,145C 142.194,142.7 149.86,140.866 157.5,139.5 Z M 149.5,178.5 C 166.433,178.752 180.933,184.752 193,196.5C 196.159,202.107 196.159,207.774 193,213.5C 189.165,220.508 184.831,227.174 180,233.5C 177.275,232.52 174.442,231.854 171.5,231.5C 168.518,232.332 165.518,232.499 162.5,232C 156.067,222.471 150.4,212.471 145.5,202C 143.178,195.178 143.012,188.345 145,181.5C 146.409,180.219 147.909,179.219 149.5,178.5 Z M 169.5,244.5 C 181.357,246.213 184.857,252.547 180,263.5C 169.813,270.498 162.98,267.998 159.5,256C 160.597,250.079 163.93,246.245 169.5,244.5 Z M 123.5,256.5 C 131.505,256.731 139.505,257.065 147.5,257.5C 147.885,263.94 150.218,269.607 154.5,274.5C 148.514,288.316 140.18,300.483 129.5,311C 122.266,316.487 116.433,315.32 112,307.5C 106.954,295.988 105.287,283.988 107,271.5C 108.277,261.719 113.777,256.719 123.5,256.5 Z M 213.5,258.5 C 225.074,258.112 235.74,260.945 245.5,267C 246.692,268.912 247.692,270.912 248.5,273C 240.075,289.577 226.742,300.077 208.5,304.5C 204.174,303.921 200.674,301.921 198,298.5C 193.074,291.654 188.908,284.321 185.5,276.5C 190.361,272.11 193.694,266.776 195.5,260.5C 201.654,259.833 207.654,259.167 213.5,258.5 Z M 361.5,278.5 C 386.167,278.5 410.833,278.5 435.5,278.5C 435.5,300.5 435.5,322.5 435.5,344.5C 410.833,344.5 386.167,344.5 361.5,344.5C 361.5,322.5 361.5,300.5 361.5,278.5 Z M 56.5,430.5 C 77.8333,430.5 99.1667,430.5 120.5,430.5C 120.5,437.833 120.5,445.167 120.5,452.5C 99.1667,452.5 77.8333,452.5 56.5,452.5C 56.5,445.167 56.5,437.833 56.5,430.5 Z M 390.5,430.5 C 411.833,430.5 433.167,430.5 454.5,430.5C 454.5,437.833 454.5,445.167 454.5,452.5C 433.167,452.5 411.833,452.5 390.5,452.5C 390.5,445.167 390.5,437.833 390.5,430.5 Z"/></g>
<g><path style="opacity:0.849" fill="#6c757d" d="M 225.5,107.5 C 229.804,107.268 233.804,108.268 237.5,110.5C 240.779,113.396 241.279,116.73 239,120.5C 233.988,123.042 229.154,122.542 224.5,119C 221.689,114.856 222.022,111.022 225.5,107.5 Z"/></g>
<g><path style="opacity:0.896" fill="#6c757d" d="M 253.5,120.5 C 256.752,121.459 259.752,122.959 262.5,125C 288.864,143.742 307.198,168.409 317.5,199C 316.938,204.553 313.938,206.553 308.5,205C 303.633,196.769 299.133,188.269 295,179.5C 283.09,160.256 267.757,144.256 249,131.5C 246.132,125.964 247.632,122.297 253.5,120.5 Z"/></g>
<g><path style="opacity:0.908" fill="#6c757d" d="M 158.5,126.5 C 216.701,124.609 259.201,149.276 286,200.5C 306.127,251.286 298.794,297.619 264,339.5C 219.986,381.698 169.82,390.865 113.5,367C 61.7299,337.632 38.8966,293.132 45,233.5C 54.8266,183.006 83.9933,149.173 132.5,132C 141.193,129.613 149.86,127.78 158.5,126.5 Z M 157.5,139.5 C 149.86,140.866 142.194,142.7 134.5,145C 96.2468,158.92 71.4135,185.42 60,224.5C 48.8672,286.402 71.3672,331.235 127.5,359C 170.123,374.396 209.123,368.062 244.5,340C 281.18,305.452 292.347,263.952 278,215.5C 255.591,162.521 215.424,137.188 157.5,139.5 Z M 149.5,178.5 C 147.909,179.219 146.409,180.219 145,181.5C 143.012,188.345 143.178,195.178 145.5,202C 150.4,212.471 156.067,222.471 162.5,232C 165.518,232.499 168.518,232.332 171.5,231.5C 174.442,231.854 177.275,232.52 180,233.5C 184.831,227.174 189.165,220.508 193,213.5C 196.159,207.774 196.159,202.107 193,196.5C 180.933,184.752 166.433,178.752 149.5,178.5 Z M 169.5,244.5 C 163.93,246.245 160.597,250.079 159.5,256C 162.98,267.998 169.813,270.498 180,263.5C 184.857,252.547 181.357,246.213 169.5,244.5 Z M 123.5,256.5 C 113.777,256.719 108.277,261.719 107,271.5C 105.287,283.988 106.954,295.988 112,307.5C 116.433,315.32 122.266,316.487 129.5,311C 140.18,300.483 148.514,288.316 154.5,274.5C 150.218,269.607 147.885,263.94 147.5,257.5C 139.505,257.065 131.505,256.731 123.5,256.5 Z M 213.5,258.5 C 207.654,259.167 201.654,259.833 195.5,260.5C 193.694,266.776 190.361,272.11 185.5,276.5C 188.908,284.321 193.074,291.654 198,298.5C 200.674,301.921 204.174,303.921 208.5,304.5C 226.742,300.077 240.075,289.577 248.5,273C 247.692,270.912 246.692,268.912 245.5,267C 235.74,260.945 225.074,258.112 213.5,258.5 Z"/></g>
<g><path style="opacity:0.9" fill="#6c757d" d="M 339.5,143.5 C 378.501,143.333 417.501,143.5 456.5,144C 460.292,146.053 461.458,149.219 460,153.5C 459.097,154.701 457.931,155.535 456.5,156C 417.5,156.667 378.5,156.667 339.5,156C 334.272,151.844 334.272,147.678 339.5,143.5 Z"/></g>
<g><path style="opacity:0.913" fill="#6c757d" d="M 148.5,165.5 C 172.22,165.281 191.387,174.281 206,192.5C 208.371,197.939 209.037,203.606 208,209.5C 204.111,221.113 198.278,231.613 190.5,241C 191.5,242.667 192.5,244.333 193.5,246C 205.5,246.333 217.5,246.667 229.5,247C 241.683,248.503 251.516,254.003 259,263.5C 261.629,271.955 260.629,279.955 256,287.5C 246.648,299.92 234.815,309.086 220.5,315C 211.513,317.564 202.847,316.898 194.5,313C 185.392,303.963 178.392,293.463 173.5,281.5C 170.833,280.167 168.167,280.167 165.5,281.5C 159.12,297.455 149.453,310.955 136.5,322C 123.099,330.851 111.599,329.018 102,316.5C 92.037,296.54 91.037,276.207 99,255.5C 107.719,246.1 118.552,242.433 131.5,244.5C 137.036,244.534 142.536,244.867 148,245.5C 149.944,244.312 151.444,242.646 152.5,240.5C 143.843,228.854 137.009,216.188 132,202.5C 128.972,191.503 130.305,181.17 136,171.5C 139.842,168.62 144.009,166.62 148.5,165.5 Z M 149.5,178.5 C 147.909,179.219 146.409,180.219 145,181.5C 143.012,188.345 143.178,195.178 145.5,202C 150.4,212.471 156.067,222.471 162.5,232C 165.518,232.499 168.518,232.332 171.5,231.5C 174.442,231.854 177.275,232.52 180,233.5C 184.831,227.174 189.165,220.508 193,213.5C 196.159,207.774 196.159,202.107 193,196.5C 180.933,184.752 166.433,178.752 149.5,178.5 Z M 169.5,244.5 C 163.93,246.245 160.597,250.079 159.5,256C 162.98,267.998 169.813,270.498 180,263.5C 184.857,252.547 181.357,246.213 169.5,244.5 Z M 123.5,256.5 C 113.777,256.719 108.277,261.719 107,271.5C 105.287,283.988 106.954,295.988 112,307.5C 116.433,315.32 122.266,316.487 129.5,311C 140.18,300.483 148.514,288.316 154.5,274.5C 150.218,269.607 147.885,263.94 147.5,257.5C 139.505,257.065 131.505,256.731 123.5,256.5 Z M 213.5,258.5 C 207.654,259.167 201.654,259.833 195.5,260.5C 193.694,266.776 190.361,272.11 185.5,276.5C 188.908,284.321 193.074,291.654 198,298.5C 200.674,301.921 204.174,303.921 208.5,304.5C 226.742,300.077 240.075,289.577 248.5,273C 247.692,270.912 246.692,268.912 245.5,267C 235.74,260.945 225.074,258.112 213.5,258.5 Z"/></g>
<g><path style="opacity:0.9" fill="#6c757d" d="M 340.5,178.5 C 379.168,178.333 417.835,178.5 456.5,179C 461.321,182.601 461.654,186.601 457.5,191C 418.167,191.667 378.833,191.667 339.5,191C 334.046,186.484 334.379,182.317 340.5,178.5 Z"/></g>
<g><path style="opacity:0.97" fill="#6c757d" d="M 338.5,214.5 C 378.168,214.333 417.835,214.5 457.5,215C 460.57,217.569 461.237,220.736 459.5,224.5C 458.975,225.192 458.308,225.692 457.5,226C 417.833,226.667 378.167,226.667 338.5,226C 334.59,222.128 334.59,218.295 338.5,214.5 Z"/></g>
<g><path style="opacity:0.944" fill="#6c757d" d="M 353.5,265.5 C 383.921,265.016 414.254,265.516 444.5,267C 445.701,267.903 446.535,269.069 447,270.5C 447.667,297.833 447.667,325.167 447,352.5C 445.833,353.667 444.667,354.833 443.5,356C 412.747,356.984 382.081,356.651 351.5,355C 350.54,353.581 349.707,352.081 349,350.5C 348.333,324.167 348.333,297.833 349,271.5C 350.332,269.34 351.832,267.34 353.5,265.5 Z M 361.5,278.5 C 361.5,300.5 361.5,322.5 361.5,344.5C 386.167,344.5 410.833,344.5 435.5,344.5C 435.5,322.5 435.5,300.5 435.5,278.5C 410.833,278.5 386.167,278.5 361.5,278.5 Z"/></g>
<g><path style="opacity:0.843" fill="#6c757d" d="M 168.5,448.5 C 172.182,448.335 175.848,448.501 179.5,449C 182.864,452.026 183.364,455.526 181,459.5C 176.611,461.949 172.111,462.116 167.5,460C 163.597,455.851 163.93,452.018 168.5,448.5 Z"/></g>
<g><path style="opacity:0.896" fill="#6c757d" d="M 194.5,448.5 C 221.169,448.333 247.835,448.5 274.5,449C 277.349,451.559 278.183,454.726 277,458.5C 276.097,459.701 274.931,460.535 273.5,461C 247.5,461.667 221.5,461.667 195.5,461C 189.211,457.302 188.877,453.135 194.5,448.5 Z"/></g>
</svg>
