<?xml version="1.0" encoding="UTF-8"?>
<!DOCTYPE svg PUBLIC "-//W3C//DTD SVG 1.1//EN" "http://www.w3.org/Graphics/SVG/1.1/DTD/svg11.dtd">
<svg xmlns="http://www.w3.org/2000/svg" version="1.1" width="512px" height="512px" style="shape-rendering:geometricPrecision; text-rendering:geometricPrecision; image-rendering:optimizeQuality; fill-rule:evenodd; clip-rule:evenodd" xmlns:xlink="http://www.w3.org/1999/xlink">
<g><path style="opacity:0.951" fill="#6c757d" d="M 50.5,-0.5 C 187.167,-0.5 323.833,-0.5 460.5,-0.5C 487.833,6.16667 504.833,23.1667 511.5,50.5C 511.5,187.167 511.5,323.833 511.5,460.5C 504.833,487.833 487.833,504.833 460.5,511.5C 363.833,511.5 267.167,511.5 170.5,511.5C 164.672,505.463 165.339,500.296 172.5,496C 244.499,495.5 316.499,495.333 388.5,495.5C 388.667,482.829 388.5,470.162 388,457.5C 385.256,449.755 380.089,444.255 372.5,441C 333.537,439.848 294.537,439.348 255.5,439.5C 216.463,439.348 177.463,439.848 138.5,441C 130.911,444.255 125.744,449.755 123,457.5C 122.5,470.162 122.333,482.829 122.5,495.5C 130.253,495.104 137.92,495.604 145.5,497C 150.605,502.115 150.272,506.948 144.5,511.5C 113.167,511.5 81.8333,511.5 50.5,511.5C 23.1667,504.833 6.16667,487.833 -0.5,460.5C -0.5,323.833 -0.5,187.167 -0.5,50.5C 6.16667,23.1667 23.1667,6.16667 50.5,-0.5 Z M 54.5,15.5 C 71.8333,15.5 89.1667,15.5 106.5,15.5C 106.333,29.504 106.5,43.504 107,57.5C 111.552,74.8698 122.718,85.0364 140.5,88C 217.167,88.6667 293.833,88.6667 370.5,88C 388.282,85.0364 399.448,74.8698 404,57.5C 404.5,43.504 404.667,29.504 404.5,15.5C 421.837,15.3334 439.17,15.5001 456.5,16C 478,20.1667 490.833,33 495,54.5C 495.5,71.8301 495.667,89.1635 495.5,106.5C 482.829,106.333 470.162,106.5 457.5,107C 439.718,109.964 428.552,120.13 424,137.5C 423.333,216.5 423.333,295.5 424,374.5C 428.48,391.979 439.647,402.146 457.5,405C 470.162,405.5 482.829,405.667 495.5,405.5C 495.667,422.503 495.5,439.503 495,456.5C 490.833,478 478,490.833 456.5,495C 439.17,495.5 421.837,495.667 404.5,495.5C 404.667,481.829 404.5,468.163 404,454.5C 399.528,437.03 388.362,426.864 370.5,424C 293.833,423.333 217.167,423.333 140.5,424C 122.638,426.864 111.472,437.03 107,454.5C 106.5,468.163 106.333,481.829 106.5,495.5C 89.1635,495.667 71.8301,495.5 54.5,495C 33,490.833 20.1667,478 16,456.5C 15.5001,439.503 15.3334,422.503 15.5,405.5C 28.1711,405.667 40.8377,405.5 53.5,405C 71.3532,402.146 82.5199,391.979 87,374.5C 87.6667,295.5 87.6667,216.5 87,137.5C 82.4483,120.13 71.2816,109.964 53.5,107C 40.8377,106.5 28.1711,106.333 15.5,106.5C 15.3334,89.1635 15.5001,71.8301 16,54.5C 20.3468,32.9872 33.1801,19.9872 54.5,15.5 Z M 122.5,15.5 C 211.167,15.5 299.833,15.5 388.5,15.5C 388.667,28.5043 388.5,41.5043 388,54.5C 385.256,62.245 380.089,67.745 372.5,71C 333.537,72.1519 294.537,72.6519 255.5,72.5C 216.463,72.6519 177.463,72.1519 138.5,71C 130.911,67.745 125.744,62.245 123,54.5C 122.5,41.5043 122.333,28.5043 122.5,15.5 Z M 15.5,122.5 C 28.885,122.097 42.2183,122.597 55.5,124C 61.9432,126.777 66.7765,131.277 70,137.5C 71.1552,177.122 71.6552,216.788 71.5,256.5C 71.6581,295.892 71.1581,335.225 70,374.5C 66.7765,380.723 61.9432,385.223 55.5,388C 42.2183,389.403 28.885,389.903 15.5,389.5C 15.5,300.5 15.5,211.5 15.5,122.5 Z M 460.5,122.5 C 472.167,122.5 483.833,122.5 495.5,122.5C 495.5,211.5 495.5,300.5 495.5,389.5C 482.115,389.903 468.782,389.403 455.5,388C 447.911,384.745 442.744,379.245 440,371.5C 439.333,294.833 439.333,218.167 440,141.5C 443.2,131.13 450.033,124.796 460.5,122.5 Z M 146.5,146.5 C 167.167,146.5 187.833,146.5 208.5,146.5C 208.5,149.833 208.5,153.167 208.5,156.5C 187.833,156.5 167.167,156.5 146.5,156.5C 146.5,153.167 146.5,149.833 146.5,146.5 Z M 224.5,146.5 C 245.167,146.5 265.833,146.5 286.5,146.5C 286.5,149.833 286.5,153.167 286.5,156.5C 265.833,156.5 245.167,156.5 224.5,156.5C 224.5,153.167 224.5,149.833 224.5,146.5 Z M 302.5,146.5 C 323.167,146.5 343.833,146.5 364.5,146.5C 364.5,149.833 364.5,153.167 364.5,156.5C 343.833,156.5 323.167,156.5 302.5,156.5C 302.5,153.167 302.5,149.833 302.5,146.5 Z M 146.5,172.5 C 167.167,172.5 187.833,172.5 208.5,172.5C 208.5,175.833 208.5,179.167 208.5,182.5C 187.833,182.5 167.167,182.5 146.5,182.5C 146.5,179.167 146.5,175.833 146.5,172.5 Z M 224.5,172.5 C 245.167,172.5 265.833,172.5 286.5,172.5C 286.5,175.833 286.5,179.167 286.5,182.5C 265.833,182.5 245.167,182.5 224.5,182.5C 224.5,179.167 224.5,175.833 224.5,172.5 Z M 302.5,172.5 C 323.167,172.5 343.833,172.5 364.5,172.5C 364.5,175.833 364.5,179.167 364.5,182.5C 343.833,182.5 323.167,182.5 302.5,182.5C 302.5,179.167 302.5,175.833 302.5,172.5 Z M 146.5,198.5 C 167.167,198.5 187.833,198.5 208.5,198.5C 208.5,201.833 208.5,205.167 208.5,208.5C 187.833,208.5 167.167,208.5 146.5,208.5C 146.5,205.167 146.5,201.833 146.5,198.5 Z M 224.5,198.5 C 245.167,198.5 265.833,198.5 286.5,198.5C 286.5,201.833 286.5,205.167 286.5,208.5C 265.833,208.5 245.167,208.5 224.5,208.5C 224.5,205.167 224.5,201.833 224.5,198.5 Z M 302.5,198.5 C 323.167,198.5 343.833,198.5 364.5,198.5C 364.5,201.833 364.5,205.167 364.5,208.5C 343.833,208.5 323.167,208.5 302.5,208.5C 302.5,205.167 302.5,201.833 302.5,198.5 Z M 146.5,224.5 C 167.167,224.5 187.833,224.5 208.5,224.5C 208.5,227.833 208.5,231.167 208.5,234.5C 187.833,234.5 167.167,234.5 146.5,234.5C 146.5,231.167 146.5,227.833 146.5,224.5 Z M 224.5,224.5 C 245.167,224.5 265.833,224.5 286.5,224.5C 286.5,227.833 286.5,231.167 286.5,234.5C 265.833,234.5 245.167,234.5 224.5,234.5C 224.5,231.167 224.5,227.833 224.5,224.5 Z M 302.5,224.5 C 323.167,224.5 343.833,224.5 364.5,224.5C 364.5,227.833 364.5,231.167 364.5,234.5C 343.833,234.5 323.167,234.5 302.5,234.5C 302.5,231.167 302.5,227.833 302.5,224.5 Z M 146.5,250.5 C 167.167,250.5 187.833,250.5 208.5,250.5C 208.5,253.833 208.5,257.167 208.5,260.5C 187.833,260.5 167.167,260.5 146.5,260.5C 146.5,257.167 146.5,253.833 146.5,250.5 Z M 224.5,250.5 C 245.167,250.5 265.833,250.5 286.5,250.5C 286.5,253.833 286.5,257.167 286.5,260.5C 265.833,260.5 245.167,260.5 224.5,260.5C 224.5,257.167 224.5,253.833 224.5,250.5 Z M 302.5,250.5 C 323.167,250.5 343.833,250.5 364.5,250.5C 364.5,253.833 364.5,257.167 364.5,260.5C 343.833,260.5 323.167,260.5 302.5,260.5C 302.5,257.167 302.5,253.833 302.5,250.5 Z M 146.5,276.5 C 167.167,276.5 187.833,276.5 208.5,276.5C 208.5,279.833 208.5,283.167 208.5,286.5C 187.833,286.5 167.167,286.5 146.5,286.5C 146.5,283.167 146.5,279.833 146.5,276.5 Z M 224.5,276.5 C 245.167,276.5 265.833,276.5 286.5,276.5C 286.5,279.833 286.5,283.167 286.5,286.5C 265.833,286.5 245.167,286.5 224.5,286.5C 224.5,283.167 224.5,279.833 224.5,276.5 Z M 302.5,276.5 C 323.167,276.5 343.833,276.5 364.5,276.5C 364.5,279.833 364.5,283.167 364.5,286.5C 356.826,286.334 349.159,286.5 341.5,287C 335.848,290.441 334.682,294.941 338,300.5C 338.75,301.126 339.584,301.626 340.5,302C 348.493,302.5 356.493,302.666 364.5,302.5C 364.5,305.833 364.5,309.167 364.5,312.5C 343.833,312.5 323.167,312.5 302.5,312.5C 302.5,309.167 302.5,305.833 302.5,302.5C 307.179,302.666 311.845,302.499 316.5,302C 320.753,298.58 321.587,294.413 319,289.5C 318.097,288.299 316.931,287.465 315.5,287C 311.179,286.501 306.846,286.334 302.5,286.5C 302.5,283.167 302.5,279.833 302.5,276.5 Z M 146.5,302.5 C 167.167,302.5 187.833,302.5 208.5,302.5C 208.5,305.833 208.5,309.167 208.5,312.5C 187.833,312.5 167.167,312.5 146.5,312.5C 146.5,309.167 146.5,305.833 146.5,302.5 Z M 224.5,302.5 C 245.167,302.5 265.833,302.5 286.5,302.5C 286.5,305.833 286.5,309.167 286.5,312.5C 265.833,312.5 245.167,312.5 224.5,312.5C 224.5,309.167 224.5,305.833 224.5,302.5 Z M 146.5,328.5 C 167.167,328.5 187.833,328.5 208.5,328.5C 208.5,331.833 208.5,335.167 208.5,338.5C 187.833,338.5 167.167,338.5 146.5,338.5C 146.5,335.167 146.5,331.833 146.5,328.5 Z M 224.5,328.5 C 245.167,328.5 265.833,328.5 286.5,328.5C 286.5,331.833 286.5,335.167 286.5,338.5C 265.833,338.5 245.167,338.5 224.5,338.5C 224.5,335.167 224.5,331.833 224.5,328.5 Z M 302.5,328.5 C 323.167,328.5 343.833,328.5 364.5,328.5C 364.5,331.833 364.5,335.167 364.5,338.5C 343.833,338.5 323.167,338.5 302.5,338.5C 302.5,335.167 302.5,331.833 302.5,328.5 Z M 146.5,354.5 C 167.167,354.5 187.833,354.5 208.5,354.5C 208.5,357.833 208.5,361.167 208.5,364.5C 187.833,364.5 167.167,364.5 146.5,364.5C 146.5,361.167 146.5,357.833 146.5,354.5 Z M 224.5,354.5 C 245.167,354.5 265.833,354.5 286.5,354.5C 286.5,357.833 286.5,361.167 286.5,364.5C 265.833,364.5 245.167,364.5 224.5,364.5C 224.5,361.167 224.5,357.833 224.5,354.5 Z M 302.5,354.5 C 323.167,354.5 343.833,354.5 364.5,354.5C 364.5,357.833 364.5,361.167 364.5,364.5C 343.833,364.5 323.167,364.5 302.5,364.5C 302.5,361.167 302.5,357.833 302.5,354.5 Z"/></g>
<g><path style="opacity:0.897" fill="#6c757d" d="M 153.5,32.5 C 221.501,32.3333 289.501,32.5 357.5,33C 364.316,34.7797 366.483,38.9464 364,45.5C 362.681,47.4875 360.848,48.6541 358.5,49C 289.833,49.6667 221.167,49.6667 152.5,49C 146.404,46.7123 144.571,42.5457 147,36.5C 149.013,34.7518 151.18,33.4185 153.5,32.5 Z"/></g>
<g><path style="opacity:0.903" fill="#6c757d" d="M 139.5,104.5 C 151.505,104.333 163.505,104.5 175.5,105C 183.167,108.667 184.167,113.667 178.5,120C 177.167,120.333 175.833,120.667 174.5,121C 160.765,121.054 147.098,121.72 133.5,123C 127.508,125.659 123.675,130.159 122,136.5C 121.333,215.833 121.333,295.167 122,374.5C 124.167,382 129,386.833 136.5,389C 215.833,389.667 295.167,389.667 374.5,389C 382,386.833 386.833,382 389,374.5C 389.667,295.167 389.667,215.833 389,136.5C 386.833,129 382,124.167 374.5,122C 319.167,121.667 263.833,121.333 208.5,121C 201.606,119.327 199.439,115.16 202,108.5C 203.319,106.513 205.152,105.346 207.5,105C 262.167,104.333 316.833,104.333 371.5,105C 391.667,107.833 403.167,119.333 406,139.5C 406.667,216.833 406.667,294.167 406,371.5C 403.167,391.667 391.667,403.167 371.5,406C 294.167,406.667 216.833,406.667 139.5,406C 119.333,403.167 107.833,391.667 105,371.5C 104.333,294.167 104.333,216.833 105,139.5C 108.012,119.322 119.512,107.655 139.5,104.5 Z M 146.5,146.5 C 146.5,149.833 146.5,153.167 146.5,156.5C 167.167,156.5 187.833,156.5 208.5,156.5C 208.5,153.167 208.5,149.833 208.5,146.5C 187.833,146.5 167.167,146.5 146.5,146.5 Z M 224.5,146.5 C 224.5,149.833 224.5,153.167 224.5,156.5C 245.167,156.5 265.833,156.5 286.5,156.5C 286.5,153.167 286.5,149.833 286.5,146.5C 265.833,146.5 245.167,146.5 224.5,146.5 Z M 302.5,146.5 C 302.5,149.833 302.5,153.167 302.5,156.5C 323.167,156.5 343.833,156.5 364.5,156.5C 364.5,153.167 364.5,149.833 364.5,146.5C 343.833,146.5 323.167,146.5 302.5,146.5 Z M 146.5,172.5 C 146.5,175.833 146.5,179.167 146.5,182.5C 167.167,182.5 187.833,182.5 208.5,182.5C 208.5,179.167 208.5,175.833 208.5,172.5C 187.833,172.5 167.167,172.5 146.5,172.5 Z M 224.5,172.5 C 224.5,175.833 224.5,179.167 224.5,182.5C 245.167,182.5 265.833,182.5 286.5,182.5C 286.5,179.167 286.5,175.833 286.5,172.5C 265.833,172.5 245.167,172.5 224.5,172.5 Z M 302.5,172.5 C 302.5,175.833 302.5,179.167 302.5,182.5C 323.167,182.5 343.833,182.5 364.5,182.5C 364.5,179.167 364.5,175.833 364.5,172.5C 343.833,172.5 323.167,172.5 302.5,172.5 Z M 146.5,198.5 C 146.5,201.833 146.5,205.167 146.5,208.5C 167.167,208.5 187.833,208.5 208.5,208.5C 208.5,205.167 208.5,201.833 208.5,198.5C 187.833,198.5 167.167,198.5 146.5,198.5 Z M 224.5,198.5 C 224.5,201.833 224.5,205.167 224.5,208.5C 245.167,208.5 265.833,208.5 286.5,208.5C 286.5,205.167 286.5,201.833 286.5,198.5C 265.833,198.5 245.167,198.5 224.5,198.5 Z M 302.5,198.5 C 302.5,201.833 302.5,205.167 302.5,208.5C 323.167,208.5 343.833,208.5 364.5,208.5C 364.5,205.167 364.5,201.833 364.5,198.5C 343.833,198.5 323.167,198.5 302.5,198.5 Z M 146.5,224.5 C 146.5,227.833 146.5,231.167 146.5,234.5C 167.167,234.5 187.833,234.5 208.5,234.5C 208.5,231.167 208.5,227.833 208.5,224.5C 187.833,224.5 167.167,224.5 146.5,224.5 Z M 224.5,224.5 C 224.5,227.833 224.5,231.167 224.5,234.5C 245.167,234.5 265.833,234.5 286.5,234.5C 286.5,231.167 286.5,227.833 286.5,224.5C 265.833,224.5 245.167,224.5 224.5,224.5 Z M 302.5,224.5 C 302.5,227.833 302.5,231.167 302.5,234.5C 323.167,234.5 343.833,234.5 364.5,234.5C 364.5,231.167 364.5,227.833 364.5,224.5C 343.833,224.5 323.167,224.5 302.5,224.5 Z M 146.5,250.5 C 146.5,253.833 146.5,257.167 146.5,260.5C 167.167,260.5 187.833,260.5 208.5,260.5C 208.5,257.167 208.5,253.833 208.5,250.5C 187.833,250.5 167.167,250.5 146.5,250.5 Z M 224.5,250.5 C 224.5,253.833 224.5,257.167 224.5,260.5C 245.167,260.5 265.833,260.5 286.5,260.5C 286.5,257.167 286.5,253.833 286.5,250.5C 265.833,250.5 245.167,250.5 224.5,250.5 Z M 302.5,250.5 C 302.5,253.833 302.5,257.167 302.5,260.5C 323.167,260.5 343.833,260.5 364.5,260.5C 364.5,257.167 364.5,253.833 364.5,250.5C 343.833,250.5 323.167,250.5 302.5,250.5 Z M 146.5,276.5 C 146.5,279.833 146.5,283.167 146.5,286.5C 167.167,286.5 187.833,286.5 208.5,286.5C 208.5,283.167 208.5,279.833 208.5,276.5C 187.833,276.5 167.167,276.5 146.5,276.5 Z M 224.5,276.5 C 224.5,279.833 224.5,283.167 224.5,286.5C 245.167,286.5 265.833,286.5 286.5,286.5C 286.5,283.167 286.5,279.833 286.5,276.5C 265.833,276.5 245.167,276.5 224.5,276.5 Z M 302.5,276.5 C 302.5,279.833 302.5,283.167 302.5,286.5C 306.846,286.334 311.179,286.501 315.5,287C 316.931,287.465 318.097,288.299 319,289.5C 321.587,294.413 320.753,298.58 316.5,302C 311.845,302.499 307.179,302.666 302.5,302.5C 302.5,305.833 302.5,309.167 302.5,312.5C 323.167,312.5 343.833,312.5 364.5,312.5C 364.5,309.167 364.5,305.833 364.5,302.5C 356.493,302.666 348.493,302.5 340.5,302C 339.584,301.626 338.75,301.126 338,300.5C 334.682,294.941 335.848,290.441 341.5,287C 349.159,286.5 356.826,286.334 364.5,286.5C 364.5,283.167 364.5,279.833 364.5,276.5C 343.833,276.5 323.167,276.5 302.5,276.5 Z M 146.5,302.5 C 146.5,305.833 146.5,309.167 146.5,312.5C 167.167,312.5 187.833,312.5 208.5,312.5C 208.5,309.167 208.5,305.833 208.5,302.5C 187.833,302.5 167.167,302.5 146.5,302.5 Z M 224.5,302.5 C 224.5,305.833 224.5,309.167 224.5,312.5C 245.167,312.5 265.833,312.5 286.5,312.5C 286.5,309.167 286.5,305.833 286.5,302.5C 265.833,302.5 245.167,302.5 224.5,302.5 Z M 146.5,328.5 C 146.5,331.833 146.5,335.167 146.5,338.5C 167.167,338.5 187.833,338.5 208.5,338.5C 208.5,335.167 208.5,331.833 208.5,328.5C 187.833,328.5 167.167,328.5 146.5,328.5 Z M 224.5,328.5 C 224.5,331.833 224.5,335.167 224.5,338.5C 245.167,338.5 265.833,338.5 286.5,338.5C 286.5,335.167 286.5,331.833 286.5,328.5C 265.833,328.5 245.167,328.5 224.5,328.5 Z M 302.5,328.5 C 302.5,331.833 302.5,335.167 302.5,338.5C 323.167,338.5 343.833,338.5 364.5,338.5C 364.5,335.167 364.5,331.833 364.5,328.5C 343.833,328.5 323.167,328.5 302.5,328.5 Z M 146.5,354.5 C 146.5,357.833 146.5,361.167 146.5,364.5C 167.167,364.5 187.833,364.5 208.5,364.5C 208.5,361.167 208.5,357.833 208.5,354.5C 187.833,354.5 167.167,354.5 146.5,354.5 Z M 224.5,354.5 C 224.5,357.833 224.5,361.167 224.5,364.5C 245.167,364.5 265.833,364.5 286.5,364.5C 286.5,361.167 286.5,357.833 286.5,354.5C 265.833,354.5 245.167,354.5 224.5,354.5 Z M 302.5,354.5 C 302.5,357.833 302.5,361.167 302.5,364.5C 323.167,364.5 343.833,364.5 364.5,364.5C 364.5,361.167 364.5,357.833 364.5,354.5C 343.833,354.5 323.167,354.5 302.5,354.5 Z"/></g>
<g><path style="opacity:0.961" fill="#6c757d" d="M 139.5,130.5 C 216.834,130.333 294.167,130.5 371.5,131C 375.667,132.5 378.5,135.333 380,139.5C 380.667,216.833 380.667,294.167 380,371.5C 378.5,375.667 375.667,378.5 371.5,380C 294.167,380.667 216.833,380.667 139.5,380C 135.333,378.5 132.5,375.667 131,371.5C 130.333,294.167 130.333,216.833 131,139.5C 132.688,135.315 135.521,132.315 139.5,130.5 Z M 146.5,146.5 C 146.5,149.833 146.5,153.167 146.5,156.5C 167.167,156.5 187.833,156.5 208.5,156.5C 208.5,153.167 208.5,149.833 208.5,146.5C 187.833,146.5 167.167,146.5 146.5,146.5 Z M 224.5,146.5 C 224.5,149.833 224.5,153.167 224.5,156.5C 245.167,156.5 265.833,156.5 286.5,156.5C 286.5,153.167 286.5,149.833 286.5,146.5C 265.833,146.5 245.167,146.5 224.5,146.5 Z M 302.5,146.5 C 302.5,149.833 302.5,153.167 302.5,156.5C 323.167,156.5 343.833,156.5 364.5,156.5C 364.5,153.167 364.5,149.833 364.5,146.5C 343.833,146.5 323.167,146.5 302.5,146.5 Z M 146.5,172.5 C 146.5,175.833 146.5,179.167 146.5,182.5C 167.167,182.5 187.833,182.5 208.5,182.5C 208.5,179.167 208.5,175.833 208.5,172.5C 187.833,172.5 167.167,172.5 146.5,172.5 Z M 224.5,172.5 C 224.5,175.833 224.5,179.167 224.5,182.5C 245.167,182.5 265.833,182.5 286.5,182.5C 286.5,179.167 286.5,175.833 286.5,172.5C 265.833,172.5 245.167,172.5 224.5,172.5 Z M 302.5,172.5 C 302.5,175.833 302.5,179.167 302.5,182.5C 323.167,182.5 343.833,182.5 364.5,182.5C 364.5,179.167 364.5,175.833 364.5,172.5C 343.833,172.5 323.167,172.5 302.5,172.5 Z M 146.5,198.5 C 146.5,201.833 146.5,205.167 146.5,208.5C 167.167,208.5 187.833,208.5 208.5,208.5C 208.5,205.167 208.5,201.833 208.5,198.5C 187.833,198.5 167.167,198.5 146.5,198.5 Z M 224.5,198.5 C 224.5,201.833 224.5,205.167 224.5,208.5C 245.167,208.5 265.833,208.5 286.5,208.5C 286.5,205.167 286.5,201.833 286.5,198.5C 265.833,198.5 245.167,198.5 224.5,198.5 Z M 302.5,198.5 C 302.5,201.833 302.5,205.167 302.5,208.5C 323.167,208.5 343.833,208.5 364.5,208.5C 364.5,205.167 364.5,201.833 364.5,198.5C 343.833,198.5 323.167,198.5 302.5,198.5 Z M 146.5,224.5 C 146.5,227.833 146.5,231.167 146.5,234.5C 167.167,234.5 187.833,234.5 208.5,234.5C 208.5,231.167 208.5,227.833 208.5,224.5C 187.833,224.5 167.167,224.5 146.5,224.5 Z M 224.5,224.5 C 224.5,227.833 224.5,231.167 224.5,234.5C 245.167,234.5 265.833,234.5 286.5,234.5C 286.5,231.167 286.5,227.833 286.5,224.5C 265.833,224.5 245.167,224.5 224.5,224.5 Z M 302.5,224.5 C 302.5,227.833 302.5,231.167 302.5,234.5C 323.167,234.5 343.833,234.5 364.5,234.5C 364.5,231.167 364.5,227.833 364.5,224.5C 343.833,224.5 323.167,224.5 302.5,224.5 Z M 146.5,250.5 C 146.5,253.833 146.5,257.167 146.5,260.5C 167.167,260.5 187.833,260.5 208.5,260.5C 208.5,257.167 208.5,253.833 208.5,250.5C 187.833,250.5 167.167,250.5 146.5,250.5 Z M 224.5,250.5 C 224.5,253.833 224.5,257.167 224.5,260.5C 245.167,260.5 265.833,260.5 286.5,260.5C 286.5,257.167 286.5,253.833 286.5,250.5C 265.833,250.5 245.167,250.5 224.5,250.5 Z M 302.5,250.5 C 302.5,253.833 302.5,257.167 302.5,260.5C 323.167,260.5 343.833,260.5 364.5,260.5C 364.5,257.167 364.5,253.833 364.5,250.5C 343.833,250.5 323.167,250.5 302.5,250.5 Z M 146.5,276.5 C 146.5,279.833 146.5,283.167 146.5,286.5C 167.167,286.5 187.833,286.5 208.5,286.5C 208.5,283.167 208.5,279.833 208.5,276.5C 187.833,276.5 167.167,276.5 146.5,276.5 Z M 224.5,276.5 C 224.5,279.833 224.5,283.167 224.5,286.5C 245.167,286.5 265.833,286.5 286.5,286.5C 286.5,283.167 286.5,279.833 286.5,276.5C 265.833,276.5 245.167,276.5 224.5,276.5 Z M 302.5,276.5 C 302.5,279.833 302.5,283.167 302.5,286.5C 306.846,286.334 311.179,286.501 315.5,287C 316.931,287.465 318.097,288.299 319,289.5C 321.587,294.413 320.753,298.58 316.5,302C 311.845,302.499 307.179,302.666 302.5,302.5C 302.5,305.833 302.5,309.167 302.5,312.5C 323.167,312.5 343.833,312.5 364.5,312.5C 364.5,309.167 364.5,305.833 364.5,302.5C 356.493,302.666 348.493,302.5 340.5,302C 339.584,301.626 338.75,301.126 338,300.5C 334.682,294.941 335.848,290.441 341.5,287C 349.159,286.5 356.826,286.334 364.5,286.5C 364.5,283.167 364.5,279.833 364.5,276.5C 343.833,276.5 323.167,276.5 302.5,276.5 Z M 146.5,302.5 C 146.5,305.833 146.5,309.167 146.5,312.5C 167.167,312.5 187.833,312.5 208.5,312.5C 208.5,309.167 208.5,305.833 208.5,302.5C 187.833,302.5 167.167,302.5 146.5,302.5 Z M 224.5,302.5 C 224.5,305.833 224.5,309.167 224.5,312.5C 245.167,312.5 265.833,312.5 286.5,312.5C 286.5,309.167 286.5,305.833 286.5,302.5C 265.833,302.5 245.167,302.5 224.5,302.5 Z M 146.5,328.5 C 146.5,331.833 146.5,335.167 146.5,338.5C 167.167,338.5 187.833,338.5 208.5,338.5C 208.5,335.167 208.5,331.833 208.5,328.5C 187.833,328.5 167.167,328.5 146.5,328.5 Z M 224.5,328.5 C 224.5,331.833 224.5,335.167 224.5,338.5C 245.167,338.5 265.833,338.5 286.5,338.5C 286.5,335.167 286.5,331.833 286.5,328.5C 265.833,328.5 245.167,328.5 224.5,328.5 Z M 302.5,328.5 C 302.5,331.833 302.5,335.167 302.5,338.5C 323.167,338.5 343.833,338.5 364.5,338.5C 364.5,335.167 364.5,331.833 364.5,328.5C 343.833,328.5 323.167,328.5 302.5,328.5 Z M 146.5,354.5 C 146.5,357.833 146.5,361.167 146.5,364.5C 167.167,364.5 187.833,364.5 208.5,364.5C 208.5,361.167 208.5,357.833 208.5,354.5C 187.833,354.5 167.167,354.5 146.5,354.5 Z M 224.5,354.5 C 224.5,357.833 224.5,361.167 224.5,364.5C 245.167,364.5 265.833,364.5 286.5,364.5C 286.5,361.167 286.5,357.833 286.5,354.5C 265.833,354.5 245.167,354.5 224.5,354.5 Z M 302.5,354.5 C 302.5,357.833 302.5,361.167 302.5,364.5C 323.167,364.5 343.833,364.5 364.5,364.5C 364.5,361.167 364.5,357.833 364.5,354.5C 343.833,354.5 323.167,354.5 302.5,354.5 Z"/></g>
<g><path style="opacity:0.949" fill="#6c757d" d="M 39.5,144.5 C 44.2797,143.641 47.7797,145.308 50,149.5C 50.6667,219.167 50.6667,288.833 50,358.5C 47.5647,363.224 43.7314,364.724 38.5,363C 37.3333,361.833 36.1667,360.667 35,359.5C 34.3333,289.5 34.3333,219.5 35,149.5C 36.025,147.313 37.525,145.646 39.5,144.5 Z"/></g>
<g><path style="opacity:0.948" fill="#6c757d" d="M 464.5,144.5 C 469.28,143.641 472.78,145.308 475,149.5C 475.667,219.5 475.667,289.5 475,359.5C 470,364.833 465,364.833 460,359.5C 459.333,289.5 459.333,219.5 460,149.5C 461.025,147.313 462.525,145.646 464.5,144.5 Z"/></g>
<g><path style="opacity:0.95" fill="#6c757d" d="M 151.5,459.5 C 220.834,459.333 290.167,459.5 359.5,460C 366.987,464.606 367.321,469.606 360.5,475C 290.5,475.667 220.5,475.667 150.5,475C 143.828,469.47 144.162,464.303 151.5,459.5 Z"/></g>
</svg>
