<?xml version="1.0" encoding="UTF-8"?>
<!DOCTYPE svg PUBLIC "-//W3C//DTD SVG 1.1//EN" "http://www.w3.org/Graphics/SVG/1.1/DTD/svg11.dtd">
<svg xmlns="http://www.w3.org/2000/svg" version="1.1" width="512px" height="512px" style="shape-rendering:geometricPrecision; text-rendering:geometricPrecision; image-rendering:optimizeQuality; fill-rule:evenodd; clip-rule:evenodd" xmlns:xlink="http://www.w3.org/1999/xlink">
<g><path style="opacity:0.938" fill="#6c757d" d="M 19.5,-0.5 C 22.1667,-0.5 24.8333,-0.5 27.5,-0.5C 29.1436,0.316435 30.3103,1.64977 31,3.5C 31.1684,11.5207 31.6684,19.5207 32.5,27.5C 44.7988,31.2989 52.9654,39.2989 57,51.5C 58.4156,66.4502 58.9156,81.4502 58.5,96.5C 102.501,96.3333 146.501,96.5 190.5,97C 207.667,99.5 217.5,109.333 220,126.5C 220.667,180.167 220.667,233.833 220,287.5C 218.716,298.57 213.882,307.736 205.5,315C 184.97,328.765 163.97,341.765 142.5,354C 139.211,354.882 135.877,355.548 132.5,356C 107.836,356.5 83.1689,356.667 58.5,356.5C 58.8156,389.021 58.4822,421.521 57.5,454C 54.1595,467.508 45.8262,476.341 32.5,480.5C 31.668,489.482 31.168,498.482 31,507.5C 30.3103,509.35 29.1436,510.684 27.5,511.5C 24.8333,511.5 22.1667,511.5 19.5,511.5C 17.7304,509.887 16.5637,507.887 16,505.5C 15.3333,338.833 15.3333,172.167 16,5.5C 16.5637,3.11327 17.7304,1.11327 19.5,-0.5 Z M 31.5,44.5 C 37.9081,47.4163 41.4081,52.4163 42,59.5C 42.3333,81.5 42.6667,103.5 43,125.5C 48.4392,132.288 53.4392,131.955 58,124.5C 58.4988,120.514 58.6655,116.514 58.5,112.5C 93.8333,112.5 129.167,112.5 164.5,112.5C 164.333,171.834 164.5,231.168 165,290.5C 167.274,297.858 171.774,299.692 178.5,296C 179.126,295.25 179.626,294.416 180,293.5C 180.5,233.168 180.667,172.834 180.5,112.5C 192.738,110.945 200.571,115.945 204,127.5C 204.667,179.833 204.667,232.167 204,284.5C 203.14,293.358 198.974,300.191 191.5,305C 173.301,316.597 154.968,327.93 136.5,339C 110.543,340.454 84.5432,340.954 58.5,340.5C 58.6667,278.499 58.5,216.499 58,154.5C 55.5671,148.552 51.4004,147.052 45.5,150C 44.2986,150.903 43.4652,152.069 43,153.5C 42.6667,251.833 42.3333,350.167 42,448.5C 41.4147,455.339 38.0814,460.339 32,463.5C 31.5,323.834 31.3333,184.167 31.5,44.5 Z"/></g>
<g><path style="opacity:0.932" fill="#6c757d" d="M 448.5,240.5 C 476.756,241.784 492.422,256.451 495.5,284.5C 494.349,303.32 485.349,316.82 468.5,325C 464.339,326.737 460.005,327.737 455.5,328C 381.833,328.667 308.167,328.667 234.5,328C 229.401,326.305 227.568,322.805 229,317.5C 229.833,315.333 231.333,313.833 233.5,313C 307.167,312.667 380.833,312.333 454.5,312C 473.224,307.386 481.058,295.553 478,276.5C 472.877,263.064 463.044,256.231 448.5,256C 443.857,253.928 442.357,250.428 444,245.5C 445.025,243.313 446.525,241.646 448.5,240.5 Z"/></g>
<g><path style="opacity:0.864" fill="#6c757d" d="M 136.5,267.5 C 144.662,267.498 147.828,271.498 146,279.5C 141.239,284.812 136.572,284.812 132,279.5C 130.029,274.249 131.529,270.249 136.5,267.5 Z"/></g>
<g><path style="opacity:0.873" fill="#6c757d" d="M 85.5,268.5 C 93.1061,269.975 95.6061,274.308 93,281.5C 90.0052,284.265 86.5052,285.098 82.5,284C 80.6667,283.5 79.5,282.333 79,280.5C 77.3053,274.213 79.472,270.213 85.5,268.5 Z"/></g>
<g><path style="opacity:0.852" fill="#6c757d" d="M 440.5,275.5 C 451.63,275.106 454.63,279.773 449.5,289.5C 444.416,292.521 440.25,291.521 437,286.5C 435.882,282.077 437.049,278.41 440.5,275.5 Z"/></g>
<g><path style="opacity:0.933" fill="#6c757d" d="M 195.5,323.5 C 197.564,323.687 199.564,324.187 201.5,325C 208.953,332.561 217.953,337.227 228.5,339C 296.833,339.333 365.167,339.667 433.5,340C 451.043,344.217 459.543,355.384 459,373.5C 456.806,386.694 449.306,395.194 436.5,399C 428.5,399.667 420.5,399.667 412.5,399C 407.167,394.333 407.167,389.667 412.5,385C 419.421,383.781 426.421,383.114 433.5,383C 443.782,377.66 445.782,370.16 439.5,360.5C 437.972,359.139 436.305,357.972 434.5,357C 365.224,355.676 295.891,355.01 226.5,355C 212.854,352.76 201.021,346.927 191,337.5C 187.563,331.249 189.063,326.583 195.5,323.5 Z"/></g>
<g><path style="opacity:0.928" fill="#6c757d" d="M 173.5,347.5 C 175.857,347.337 178.19,347.503 180.5,348C 187.668,352.083 194.668,356.416 201.5,361C 207.531,364.183 213.864,366.517 220.5,368C 257.474,369.281 294.474,369.948 331.5,370C 356.791,378.409 365.957,395.576 359,421.5C 351.862,437.822 339.362,445.655 321.5,445C 315.631,441.725 314.464,437.225 318,431.5C 323.863,429.907 329.696,428.073 335.5,426C 347.993,414.59 348.66,402.59 337.5,390C 334.689,388.175 331.689,386.842 328.5,386C 294.833,385.667 261.167,385.333 227.5,385C 214.575,384.358 202.575,380.692 191.5,374C 185.335,369.75 179.002,365.75 172.5,362C 168.268,356.809 168.601,351.975 173.5,347.5 Z"/></g>
<g><path style="opacity:0.851" fill="#6c757d" d="M 484.5,376.5 C 493.7,376.571 496.7,380.904 493.5,389.5C 488.672,393.702 484.172,393.368 480,388.5C 478.309,383.131 479.809,379.131 484.5,376.5 Z"/></g>
<g><path style="opacity:0.851" fill="#6c757d" d="M 318.5,398.5 C 326.168,398.332 329.335,401.999 328,409.5C 325.774,413.861 322.274,415.361 317.5,414C 313.443,412.053 311.943,408.886 313,404.5C 314.021,401.65 315.854,399.65 318.5,398.5 Z"/></g>
<g><path style="opacity:0.936" fill="#6c757d" d="M 245.5,403.5 C 248.588,403.377 251.255,404.377 253.5,406.5C 254.985,412.721 255.985,419.054 256.5,425.5C 260.318,422.182 263.985,418.682 267.5,415C 276.566,412.63 280.399,416.13 279,425.5C 275.535,429.967 271.702,434.133 267.5,438C 273.5,438.333 279.5,438.667 285.5,439C 289.277,441.955 290.443,445.788 289,450.5C 287.786,452.049 286.286,453.215 284.5,454C 278.833,454.333 273.167,454.667 267.5,455C 271.702,458.867 275.535,463.033 279,467.5C 280.329,476.501 276.496,480.001 267.5,478C 263.667,474.167 259.833,470.333 256,466.5C 255.871,472.914 255.204,479.247 254,485.5C 248.851,490.996 244.184,490.663 240,484.5C 239.667,478.5 239.333,472.5 239,466.5C 235.133,470.702 230.967,474.535 226.5,478C 216.991,479.495 213.491,475.661 216,466.5C 219.682,462.985 223.182,459.318 226.5,455.5C 220.862,454.67 215.196,454.17 209.5,454C 204.465,450.987 203.298,446.82 206,441.5C 206.903,440.299 208.069,439.465 209.5,439C 215.5,438.667 221.5,438.333 227.5,438C 223.667,434.167 219.833,430.333 216,426.5C 213.353,419.794 215.519,415.461 222.5,413.5C 228.983,416.471 234.483,420.804 239,426.5C 239.333,420.167 239.667,413.833 240,407.5C 241.5,405.531 243.333,404.198 245.5,403.5 Z"/></g>
<g><path style="opacity:0.86" fill="#6c757d" d="M 410.5,456.5 C 418.614,455.121 422.447,458.454 422,466.5C 417.439,473.955 412.439,474.288 407,467.5C 405.662,462.96 406.829,459.293 410.5,456.5 Z"/></g>
</svg>
