<?xml version="1.0" encoding="UTF-8"?>
<!DOCTYPE svg PUBLIC "-//W3C//DTD SVG 1.1//EN" "http://www.w3.org/Graphics/SVG/1.1/DTD/svg11.dtd">
<svg xmlns="http://www.w3.org/2000/svg" version="1.1" width="512px" height="512px" style="shape-rendering:geometricPrecision; text-rendering:geometricPrecision; image-rendering:optimizeQuality; fill-rule:evenodd; clip-rule:evenodd" xmlns:xlink="http://www.w3.org/1999/xlink">
<g><path style="opacity:0.988" fill="#6c757d" d="M 55.5,124.5 C 188.834,124.333 322.167,124.5 455.5,125C 467.369,127.202 475.202,134.035 479,145.5C 479.667,188.167 479.667,230.833 479,273.5C 476.695,283.14 470.862,289.64 461.5,293C 445.877,294.77 430.21,294.937 414.5,293.5C 412.194,281.804 409.694,270.138 407,258.5C 404.5,253.333 400.667,249.5 395.5,247C 302.167,246.333 208.833,246.333 115.5,247C 111.052,249.114 107.552,252.281 105,256.5C 101.464,269.014 98.6307,281.68 96.5,294.5C 80.7757,294.937 65.1091,294.437 49.5,293C 40.1384,289.64 34.305,283.14 32,273.5C 31.3333,230.833 31.3333,188.167 32,145.5C 35.97,134.023 43.8033,127.023 55.5,124.5 Z M 79.5,165.5 C 90.505,165.333 101.505,165.5 112.5,166C 117.599,167.695 119.432,171.195 118,176.5C 116.833,177.667 115.667,178.833 114.5,180C 102.5,180.667 90.5,180.667 78.5,180C 72.0209,174.889 72.3542,170.056 79.5,165.5 Z"/></g>
<g><path style="opacity:0.978" fill="#6c757d" d="M 118.5,261.5 C 209.501,261.333 300.501,261.5 391.5,262C 392,262.5 392.5,263 393,263.5C 395.105,273.527 397.272,283.527 399.5,293.5C 303.5,294.833 207.5,294.833 111.5,293.5C 113.835,282.825 116.168,272.159 118.5,261.5 Z"/></g>
<g><path style="opacity:0.923" fill="#6c757d" d="M 160.5,314.5 C 165.421,314.043 168.921,316.043 171,320.5C 170.237,341.219 165.237,360.885 156,379.5C 145.74,383.901 141.073,380.568 142,369.5C 149.145,353.588 153.478,336.922 155,319.5C 156.406,317.256 158.239,315.59 160.5,314.5 Z"/></g>
<g><path style="opacity:0.921" fill="#6c757d" d="M 345.5,314.5 C 350.023,314.18 353.523,315.846 356,319.5C 357.522,336.922 361.855,353.588 369,369.5C 369.927,380.568 365.26,383.901 355,379.5C 344.524,359.936 340.024,339.27 341.5,317.5C 342.901,316.479 344.235,315.479 345.5,314.5 Z"/></g>
<g><path style="opacity:0.922" fill="#6c757d" d="M 206.5,319.5 C 212.489,318.065 216.655,320.065 219,325.5C 220.067,337.104 218.733,348.437 215,359.5C 212.531,367.242 209.864,374.908 207,382.5C 202.649,387.254 197.982,387.588 193,383.5C 192.015,381.634 191.515,379.634 191.5,377.5C 194.961,366.614 198.128,355.614 201,344.5C 202.045,337.875 202.711,331.208 203,324.5C 203.997,322.677 205.164,321.01 206.5,319.5 Z"/></g>
<g><path style="opacity:0.925" fill="#6c757d" d="M 251.5,319.5 C 254.187,319.336 256.854,319.503 259.5,320C 261.667,320.833 263.167,322.333 264,324.5C 264.667,343.167 264.667,361.833 264,380.5C 259.126,388.074 253.792,388.408 248,381.5C 247.333,362.5 247.333,343.5 248,324.5C 248.997,322.677 250.164,321.01 251.5,319.5 Z"/></g>
<g><path style="opacity:0.922" fill="#6c757d" d="M 295.5,319.5 C 298.187,319.336 300.854,319.503 303.5,320C 305.667,320.833 307.167,322.333 308,324.5C 308.289,331.208 308.955,337.875 310,344.5C 312.872,355.614 316.039,366.614 319.5,377.5C 319.833,382.005 317.833,384.839 313.5,386C 309.692,386.619 306.526,385.453 304,382.5C 297.262,366.457 293.095,349.79 291.5,332.5C 290.734,327.414 292.067,323.081 295.5,319.5 Z"/></g>
</svg>
