<?xml version="1.0" encoding="UTF-8"?>
<!DOCTYPE svg PUBLIC "-//W3C//DTD SVG 1.1//EN" "http://www.w3.org/Graphics/SVG/1.1/DTD/svg11.dtd">
<svg xmlns="http://www.w3.org/2000/svg" version="1.1" width="512px" height="512px" style="shape-rendering:geometricPrecision; text-rendering:geometricPrecision; image-rendering:optimizeQuality; fill-rule:evenodd; clip-rule:evenodd" xmlns:xlink="http://www.w3.org/1999/xlink">
<g><path style="opacity:0.941" fill="#6c757d" d="M 511.5,87.5 C 511.5,190.167 511.5,292.833 511.5,395.5C 509.486,401.65 505.486,406.15 499.5,409C 491.251,410.406 482.917,410.906 474.5,410.5C 479.164,436.037 468.831,445.371 443.5,438.5C 417.921,445.571 407.254,436.238 411.5,410.5C 406.821,410.666 402.155,410.499 397.5,410C 391.448,405.777 391.115,401.111 396.5,396C 397.5,395.667 398.5,395.333 399.5,395C 430.5,394.667 461.5,394.333 492.5,394C 493.667,393.5 494.5,392.667 495,391.5C 495.667,291.5 495.667,191.5 495,91.5C 494.167,90.6667 493.333,89.8333 492.5,89C 444.501,88.5 396.501,88.3333 348.5,88.5C 348.666,96.84 348.5,105.173 348,113.5C 343.439,120.955 338.439,121.288 333,114.5C 332.5,105.84 332.334,97.1731 332.5,88.5C 227.833,88.3333 123.166,88.5 18.5,89C 17.6667,89.8333 16.8333,90.6667 16,91.5C 15.3333,191.5 15.3333,291.5 16,391.5C 16.5,392.667 17.3333,393.5 18.5,394C 123.166,394.5 227.833,394.667 332.5,394.5C 332.333,309.499 332.5,224.499 333,139.5C 338.439,132.712 343.439,133.045 348,140.5C 348.5,225.166 348.667,309.833 348.5,394.5C 355.257,394.123 361.924,394.623 368.5,396C 373.684,400.625 373.684,405.292 368.5,410C 278.834,410.5 189.167,410.667 99.5,410.5C 103.746,436.238 93.079,445.571 67.5,438.5C 42.1693,445.371 31.836,436.037 36.5,410.5C 28.0826,410.906 19.7492,410.406 11.5,409C 5.51442,406.15 1.51442,401.65 -0.5,395.5C -0.5,292.833 -0.5,190.167 -0.5,87.5C 2.09364,79.7436 7.42698,74.9103 15.5,73C 175.5,72.3333 335.5,72.3333 495.5,73C 503.573,74.9103 508.906,79.7436 511.5,87.5 Z M 162.5,133.5 C 164.47,141.769 165.136,150.435 164.5,159.5C 147.99,161.091 133.324,167.091 120.5,177.5C 114.348,171.848 108.348,166.015 102.5,160C 119.765,144.865 139.765,136.032 162.5,133.5 Z M 180.5,133.5 C 204.069,135.628 224.736,144.295 242.5,159.5C 236.848,165.652 231.015,171.652 225,177.5C 212.151,166.714 197.318,160.714 180.5,159.5C 180.5,150.833 180.5,142.167 180.5,133.5 Z M 90.5,171.5 C 96.8123,177.146 102.812,183.146 108.5,189.5C 98.614,202.145 92.614,216.479 90.5,232.5C 82.1932,233.498 73.8599,233.831 65.5,233.5C 67.2266,210.063 75.56,189.397 90.5,171.5 Z M 254.5,171.5 C 270.256,189.033 278.923,209.699 280.5,233.5C 271.915,233.817 263.415,233.483 255,232.5C 253.032,216.568 247.199,202.235 237.5,189.5C 243.188,183.48 248.855,177.48 254.5,171.5 Z M 162.5,175.5 C 163.829,180.792 164.496,186.458 164.5,192.5C 164.167,198.167 163.833,203.833 163.5,209.5C 160.96,210.402 158.46,211.402 156,212.5C 147.695,205.362 139.862,197.695 132.5,189.5C 141.273,182.112 151.273,177.446 162.5,175.5 Z M 180.5,175.5 C 192.694,177.173 203.694,181.673 213.5,189C 205.833,196.667 198.167,204.333 190.5,212C 187.284,211.103 183.951,210.269 180.5,209.5C 180.5,198.167 180.5,186.833 180.5,175.5 Z M 119.5,201.5 C 127.745,208.24 135.578,215.573 143,223.5C 142.81,226.585 141.976,229.585 140.5,232.5C 129.181,233.666 117.848,233.832 106.5,233C 108.766,221.637 113.099,211.137 119.5,201.5 Z M 224.5,201.5 C 232.811,210.386 237.478,221.053 238.5,233.5C 227.495,233.667 216.495,233.5 205.5,233C 204.438,230.209 203.105,227.543 201.5,225C 209.369,217.298 217.036,209.465 224.5,201.5 Z M 168.5,224.5 C 181.03,223.433 188.364,229.099 190.5,241.5C 187.824,255.836 179.491,261.003 165.5,257C 153.091,247.854 152.424,237.854 163.5,227C 165.315,226.243 166.981,225.41 168.5,224.5 Z M 106.5,250.5 C 117.674,249.176 129.007,249.176 140.5,250.5C 141.402,253.04 142.402,255.54 143.5,258C 136.362,266.305 128.695,274.138 120.5,281.5C 117.11,277.595 114.277,273.262 112,268.5C 109.832,262.469 107.999,256.469 106.5,250.5 Z M 205.5,249.5 C 216.5,249.5 227.5,249.5 238.5,249.5C 237.316,261.866 232.816,272.866 225,282.5C 217.333,274.833 209.667,267.167 202,259.5C 202.832,256.144 203.999,252.811 205.5,249.5 Z M 255.5,249.5 C 263.833,249.5 272.167,249.5 280.5,249.5C 278.938,273.274 270.271,293.941 254.5,311.5C 248.348,305.848 242.348,300.015 236.5,294C 247.395,281.159 253.728,266.325 255.5,249.5 Z M 386.5,265.5 C 410.167,265.5 433.833,265.5 457.5,265.5C 457.5,296.5 457.5,327.5 457.5,358.5C 433.833,358.5 410.167,358.5 386.5,358.5C 386.5,327.5 386.5,296.5 386.5,265.5 Z M 155.5,270.5 C 158.406,271.787 161.406,272.787 164.5,273.5C 164.5,284.833 164.5,296.167 164.5,307.5C 152.531,306.013 141.864,301.513 132.5,294C 140.369,286.298 148.036,278.465 155.5,270.5 Z M 188.5,270.5 C 197.245,277.741 205.579,285.574 213.5,294C 203.849,301.719 192.849,306.219 180.5,307.5C 180.5,296.167 180.5,284.833 180.5,273.5C 183.542,273.267 186.208,272.267 188.5,270.5 Z M 120.5,305.5 C 133.305,315.898 147.972,321.898 164.5,323.5C 164.831,332.192 164.498,340.859 163.5,349.5C 144.169,347.446 126.502,340.946 110.5,330C 108.125,327.824 105.792,325.657 103.5,323.5C 109.188,317.48 114.855,311.48 120.5,305.5 Z M 224.5,305.5 C 231.35,311.171 237.183,317.505 242,324.5C 224.16,339.174 203.66,347.507 180.5,349.5C 180.5,340.833 180.5,332.167 180.5,323.5C 197.283,322.358 211.95,316.358 224.5,305.5 Z M 52.5,410.5 C 62.5,410.5 72.5,410.5 82.5,410.5C 82.5,414.5 82.5,418.5 82.5,422.5C 72.5,422.5 62.5,422.5 52.5,422.5C 52.5,418.5 52.5,414.5 52.5,410.5 Z M 428.5,410.5 C 438.5,410.5 448.5,410.5 458.5,410.5C 458.5,414.5 458.5,418.5 458.5,422.5C 448.5,422.5 438.5,422.5 428.5,422.5C 428.5,418.5 428.5,414.5 428.5,410.5 Z"/></g>
<g><path style="opacity:0.937" fill="#6c757d" d="M 159.5,117.5 C 214.237,114.777 255.403,136.777 283,183.5C 304.339,229.428 301.006,273.428 273,315.5C 237.821,358.561 192.988,373.727 138.5,361C 98.5676,348.734 71.2342,323.067 56.5,284C 58.0076,277.575 62.0076,275.242 68.5,277C 69.6667,278.167 70.8333,279.333 72,280.5C 76.5641,291.97 82.8974,302.303 91,311.5C 97.0149,305.652 102.848,299.652 108.5,293.5C 98.614,280.855 92.614,266.521 90.5,250.5C 82.1932,249.502 73.8599,249.169 65.5,249.5C 66.2133,254.348 66.0466,259.015 65,263.5C 60.3333,268.833 55.6667,268.833 51,263.5C 43.369,210.018 61.5357,167.851 105.5,137C 122.267,126.769 140.267,120.269 159.5,117.5 Z M 162.5,133.5 C 139.765,136.032 119.765,144.865 102.5,160C 108.348,166.015 114.348,171.848 120.5,177.5C 133.324,167.091 147.99,161.091 164.5,159.5C 165.136,150.435 164.47,141.769 162.5,133.5 Z M 180.5,133.5 C 180.5,142.167 180.5,150.833 180.5,159.5C 197.318,160.714 212.151,166.714 225,177.5C 231.015,171.652 236.848,165.652 242.5,159.5C 224.736,144.295 204.069,135.628 180.5,133.5 Z M 90.5,171.5 C 75.56,189.397 67.2266,210.063 65.5,233.5C 73.8599,233.831 82.1932,233.498 90.5,232.5C 92.614,216.479 98.614,202.145 108.5,189.5C 102.812,183.146 96.8123,177.146 90.5,171.5 Z M 254.5,171.5 C 248.855,177.48 243.188,183.48 237.5,189.5C 247.199,202.235 253.032,216.568 255,232.5C 263.415,233.483 271.915,233.817 280.5,233.5C 278.923,209.699 270.256,189.033 254.5,171.5 Z M 162.5,175.5 C 151.273,177.446 141.273,182.112 132.5,189.5C 139.862,197.695 147.695,205.362 156,212.5C 158.46,211.402 160.96,210.402 163.5,209.5C 163.833,203.833 164.167,198.167 164.5,192.5C 164.496,186.458 163.829,180.792 162.5,175.5 Z M 180.5,175.5 C 180.5,186.833 180.5,198.167 180.5,209.5C 183.951,210.269 187.284,211.103 190.5,212C 198.167,204.333 205.833,196.667 213.5,189C 203.694,181.673 192.694,177.173 180.5,175.5 Z M 119.5,201.5 C 113.099,211.137 108.766,221.637 106.5,233C 117.848,233.832 129.181,233.666 140.5,232.5C 141.976,229.585 142.81,226.585 143,223.5C 135.578,215.573 127.745,208.24 119.5,201.5 Z M 224.5,201.5 C 217.036,209.465 209.369,217.298 201.5,225C 203.105,227.543 204.438,230.209 205.5,233C 216.495,233.5 227.495,233.667 238.5,233.5C 237.478,221.053 232.811,210.386 224.5,201.5 Z M 168.5,224.5 C 166.981,225.41 165.315,226.243 163.5,227C 152.424,237.854 153.091,247.854 165.5,257C 179.491,261.003 187.824,255.836 190.5,241.5C 188.364,229.099 181.03,223.433 168.5,224.5 Z M 106.5,250.5 C 107.999,256.469 109.832,262.469 112,268.5C 114.277,273.262 117.11,277.595 120.5,281.5C 128.695,274.138 136.362,266.305 143.5,258C 142.402,255.54 141.402,253.04 140.5,250.5C 129.007,249.176 117.674,249.176 106.5,250.5 Z M 205.5,249.5 C 203.999,252.811 202.832,256.144 202,259.5C 209.667,267.167 217.333,274.833 225,282.5C 232.816,272.866 237.316,261.866 238.5,249.5C 227.5,249.5 216.5,249.5 205.5,249.5 Z M 255.5,249.5 C 253.728,266.325 247.395,281.159 236.5,294C 242.348,300.015 248.348,305.848 254.5,311.5C 270.271,293.941 278.938,273.274 280.5,249.5C 272.167,249.5 263.833,249.5 255.5,249.5 Z M 155.5,270.5 C 148.036,278.465 140.369,286.298 132.5,294C 141.864,301.513 152.531,306.013 164.5,307.5C 164.5,296.167 164.5,284.833 164.5,273.5C 161.406,272.787 158.406,271.787 155.5,270.5 Z M 188.5,270.5 C 186.208,272.267 183.542,273.267 180.5,273.5C 180.5,284.833 180.5,296.167 180.5,307.5C 192.849,306.219 203.849,301.719 213.5,294C 205.579,285.574 197.245,277.741 188.5,270.5 Z M 120.5,305.5 C 114.855,311.48 109.188,317.48 103.5,323.5C 105.792,325.657 108.125,327.824 110.5,330C 126.502,340.946 144.169,347.446 163.5,349.5C 164.498,340.859 164.831,332.192 164.5,323.5C 147.972,321.898 133.305,315.898 120.5,305.5 Z M 224.5,305.5 C 211.95,316.358 197.283,322.358 180.5,323.5C 180.5,332.167 180.5,340.833 180.5,349.5C 203.66,347.507 224.16,339.174 242,324.5C 237.183,317.505 231.35,311.171 224.5,305.5 Z"/></g>
<g><path style="opacity:0.931" fill="#6c757d" d="M 374.5,117.5 C 406.168,117.333 437.835,117.5 469.5,118C 473.753,121.42 474.587,125.587 472,130.5C 471.097,131.701 469.931,132.535 468.5,133C 437.5,133.667 406.5,133.667 375.5,133C 370.776,130.565 369.276,126.731 371,121.5C 372.102,120.051 373.269,118.718 374.5,117.5 Z"/></g>
<g><path style="opacity:0.934" fill="#6c757d" d="M 374.5,151.5 C 406.168,151.333 437.835,151.5 469.5,152C 473.753,155.42 474.587,159.587 472,164.5C 470.581,165.46 469.081,166.293 467.5,167C 437.167,167.667 406.833,167.667 376.5,167C 370.842,165.171 369.008,161.337 371,155.5C 371.69,153.65 372.856,152.316 374.5,151.5 Z"/></g>
<g><path style="opacity:0.933" fill="#6c757d" d="M 374.5,185.5 C 406.168,185.333 437.835,185.5 469.5,186C 473.749,189.377 474.582,193.543 472,198.5C 470.352,199.717 468.519,200.55 466.5,201C 436.833,201.667 407.167,201.667 377.5,201C 371.37,199.586 369.204,195.753 371,189.5C 371.69,187.65 372.856,186.316 374.5,185.5 Z"/></g>
<g><path style="opacity:0.934" fill="#6c757d" d="M 376.5,218.5 C 406.502,218.333 436.502,218.5 466.5,219C 472.653,220.465 474.82,224.298 473,230.5C 471.833,231.667 470.667,232.833 469.5,234C 437.833,234.667 406.167,234.667 374.5,234C 372.667,233.5 371.5,232.333 371,230.5C 369.036,224.532 370.869,220.532 376.5,218.5 Z"/></g>
<g><path style="opacity:0.931" fill="#6c757d" d="M 379.5,249.5 C 407.835,249.333 436.169,249.5 464.5,250C 469.062,251.627 471.895,254.794 473,259.5C 473.667,294.5 473.667,329.5 473,364.5C 470.719,370.737 466.219,374.237 459.5,375C 434.5,375.667 409.5,375.667 384.5,375C 377.962,374.654 373.462,371.487 371,365.5C 370.333,329.833 370.333,294.167 371,258.5C 372.688,254.315 375.521,251.315 379.5,249.5 Z M 386.5,265.5 C 386.5,296.5 386.5,327.5 386.5,358.5C 410.167,358.5 433.833,358.5 457.5,358.5C 457.5,327.5 457.5,296.5 457.5,265.5C 433.833,265.5 410.167,265.5 386.5,265.5 Z"/></g>
</svg>
