<?xml version="1.0" encoding="UTF-8"?>
<!DOCTYPE svg PUBLIC "-//W3C//DTD SVG 1.1//EN" "http://www.w3.org/Graphics/SVG/1.1/DTD/svg11.dtd">
<svg xmlns="http://www.w3.org/2000/svg" version="1.1" width="512px" height="512px" style="shape-rendering:geometricPrecision; text-rendering:geometricPrecision; image-rendering:optimizeQuality; fill-rule:evenodd; clip-rule:evenodd" xmlns:xlink="http://www.w3.org/1999/xlink">
<g><path style="opacity:0.941" fill="#6c757d" d="M 144.5,-0.5 C 218.5,-0.5 292.5,-0.5 366.5,-0.5C 375.483,2.318 381.317,8.318 384,17.5C 384.667,180.833 384.667,344.167 384,507.5C 383.31,509.35 382.144,510.684 380.5,511.5C 297.167,511.5 213.833,511.5 130.5,511.5C 128.856,510.684 127.69,509.35 127,507.5C 126.333,359.833 126.333,212.167 127,64.5C 129.995,60.2772 133.829,59.1105 138.5,61C 140.487,62.3189 141.654,64.1523 142,66.5C 142.5,152.166 142.667,237.833 142.5,323.5C 163.833,323.5 185.167,323.5 206.5,323.5C 206.334,318.489 206.501,313.489 207,308.5C 208.927,303.572 212.427,300.406 217.5,299C 242.833,298.333 268.167,298.333 293.5,299C 298.573,300.406 302.073,303.572 304,308.5C 304.499,313.489 304.666,318.489 304.5,323.5C 325.833,323.5 347.167,323.5 368.5,323.5C 368.667,222.499 368.5,121.499 368,20.5C 366.833,18.6667 365.333,17.1667 363.5,16C 291.5,15.3333 219.5,15.3333 147.5,16C 145.667,17.1667 144.167,18.6667 143,20.5C 142.907,28.9094 142.24,37.2427 141,45.5C 136.458,50.7562 131.792,50.7562 127,45.5C 126.333,36.1667 126.333,26.8333 127,17.5C 129.683,8.318 135.517,2.318 144.5,-0.5 Z M 174.5,75.5 C 228.5,75.5 282.5,75.5 336.5,75.5C 336.5,79.1667 336.5,82.8333 336.5,86.5C 282.5,86.5 228.5,86.5 174.5,86.5C 174.5,82.8333 174.5,79.1667 174.5,75.5 Z M 174.5,102.5 C 228.5,102.5 282.5,102.5 336.5,102.5C 336.5,105.833 336.5,109.167 336.5,112.5C 282.5,112.5 228.5,112.5 174.5,112.5C 174.5,109.167 174.5,105.833 174.5,102.5 Z M 174.5,128.5 C 228.5,128.5 282.5,128.5 336.5,128.5C 336.5,132.167 336.5,135.833 336.5,139.5C 331.489,139.334 326.489,139.501 321.5,140C 316.167,144.667 316.167,149.333 321.5,154C 326.401,155.325 331.401,155.825 336.5,155.5C 336.5,158.5 336.5,161.5 336.5,164.5C 282.5,164.5 228.5,164.5 174.5,164.5C 174.5,161.5 174.5,158.5 174.5,155.5C 214.835,155.667 255.168,155.5 295.5,155C 301.467,153.357 303.634,149.524 302,143.5C 300.833,142.333 299.667,141.167 298.5,140C 257.168,139.5 215.835,139.333 174.5,139.5C 174.5,135.833 174.5,132.167 174.5,128.5 Z M 252.5,232.5 C 260.59,231.872 265.256,235.539 266.5,243.5C 263.748,253.745 257.748,256.411 248.5,251.5C 242.767,243.694 244.101,237.361 252.5,232.5 Z M 222.5,314.5 C 244.5,314.5 266.5,314.5 288.5,314.5C 288.5,317.5 288.5,320.5 288.5,323.5C 266.5,323.5 244.5,323.5 222.5,323.5C 222.5,320.5 222.5,317.5 222.5,314.5 Z M 142.5,339.5 C 217.833,339.5 293.167,339.5 368.5,339.5C 368.5,391.5 368.5,443.5 368.5,495.5C 293.167,495.5 217.833,495.5 142.5,495.5C 142.5,443.5 142.5,391.5 142.5,339.5 Z"/></g>
<g><path style="opacity:0.939" fill="#6c757d" d="M 168.5,33.5 C 226.501,33.3333 284.501,33.5 342.5,34C 348.118,35.2849 351.285,38.7849 352,44.5C 352.973,87.8713 352.64,131.205 351,174.5C 349.127,176.709 346.96,178.542 344.5,180C 284.418,180.992 224.418,180.659 164.5,179C 160.945,176.79 159.112,173.623 159,169.5C 158.333,127.833 158.333,86.1667 159,44.5C 159.904,38.7695 163.071,35.1029 168.5,33.5 Z M 174.5,49.5 C 228.5,49.5 282.5,49.5 336.5,49.5C 336.5,52.8333 336.5,56.1667 336.5,59.5C 282.5,59.5 228.5,59.5 174.5,59.5C 174.5,56.1667 174.5,52.8333 174.5,49.5 Z M 174.5,75.5 C 174.5,79.1667 174.5,82.8333 174.5,86.5C 228.5,86.5 282.5,86.5 336.5,86.5C 336.5,82.8333 336.5,79.1667 336.5,75.5C 282.5,75.5 228.5,75.5 174.5,75.5 Z M 174.5,102.5 C 174.5,105.833 174.5,109.167 174.5,112.5C 228.5,112.5 282.5,112.5 336.5,112.5C 336.5,109.167 336.5,105.833 336.5,102.5C 282.5,102.5 228.5,102.5 174.5,102.5 Z M 174.5,128.5 C 174.5,132.167 174.5,135.833 174.5,139.5C 215.835,139.333 257.168,139.5 298.5,140C 299.667,141.167 300.833,142.333 302,143.5C 303.634,149.524 301.467,153.357 295.5,155C 255.168,155.5 214.835,155.667 174.5,155.5C 174.5,158.5 174.5,161.5 174.5,164.5C 228.5,164.5 282.5,164.5 336.5,164.5C 336.5,161.5 336.5,158.5 336.5,155.5C 331.401,155.825 326.401,155.325 321.5,154C 316.167,149.333 316.167,144.667 321.5,140C 326.489,139.501 331.489,139.334 336.5,139.5C 336.5,135.833 336.5,132.167 336.5,128.5C 282.5,128.5 228.5,128.5 174.5,128.5 Z"/></g>
<g><path style="opacity:0.924" fill="#6c757d" d="M 249.5,216.5 C 275.975,216.804 286.142,229.804 280,255.5C 269.991,270.628 256.824,274.128 240.5,266C 228.022,256.207 225.189,244.04 232,229.5C 236.38,223.075 242.213,218.741 249.5,216.5 Z M 252.5,232.5 C 244.101,237.361 242.767,243.694 248.5,251.5C 257.748,256.411 263.748,253.745 266.5,243.5C 265.256,235.539 260.59,231.872 252.5,232.5 Z"/></g>
<g><path style="opacity:0.934" fill="#6c757d" d="M 169.5,466.5 C 227.168,466.333 284.834,466.5 342.5,467C 347.906,468.98 349.739,472.814 348,478.5C 346.833,479.667 345.667,480.833 344.5,482C 285.833,482.667 227.167,482.667 168.5,482C 163.248,478.914 162.248,474.747 165.5,469.5C 166.901,468.479 168.235,467.479 169.5,466.5 Z"/></g>
</svg>
