<svg xmlns="http://www.w3.org/2000/svg" xlink="http://www.w3.org/1999/xlink" width="62" height="32" viewBox="0 0 78 48">
    <defs>
        <clipPath id="clip-path">
            <rect width="48" height="48" fill="none"/>
        </clipPath>
    </defs>
    <g id="Group_1735" data-name="Group 1735" transform="translate(-124 -31)">
        <g id="Icon_Arrow_Drop_Down_Outlined" data-name="Icon / Arrow Drop Down / Outlined" transform="translate(124 46)">
            <rect id="Box" width="24" height="24" fill="none"/>
            <path id="Icon_Arrow_Drop_Down" data-name="Icon / Arrow Drop Down" d="M111-20l8.5,8.5L128-20Z" transform="translate(-107 28)" opacity="0.995"/>
        </g>
        <g id="Icon_Perm_Identity_Outlined" data-name="Icon / Perm Identity / Outlined" transform="translate(154 31)" clip-path="url(#clip-path)">
            <rect id="Box-2" data-name="Box" width="24" height="24" fill="none"/>
            <path id="Path_2103" data-name="Path 2103" d="M984-63.25A5.249,5.249,0,0,1,989.25-58,5.249,5.249,0,0,1,984-52.75,5.249,5.249,0,0,1,978.75-58,5.249,5.249,0,0,1,984-63.25Zm0,22.5c7.425,0,15.25,3.65,15.25,5.25v2.75h-30.5V-35.5C968.75-37.1,976.575-40.75,984-40.75ZM984-68a10,10,0,0,0-10,10,10,10,0,0,0,10,10,10,10,0,0,0,10-10A10,10,0,0,0,984-68Zm0,22.5c-6.675,0-20,3.35-20,10V-28h40v-7.5C1004-42.15,990.675-45.5,984-45.5Z" transform="translate(-960 72)"/>
        </g>
    </g>
</svg>