<svg xmlns="http://www.w3.org/2000/svg" width="21.49" height="21.491" viewBox="0 0 21.49 21.491">
    <path id="Path_2078" data-name="Path 2078" d="M923.361-1401.484h-.976l-.339-.337a7.949,7.949,0,0,0,1.927-5.192,7.986,7.986,0,0,0-7.987-7.987,7.986,7.986,0,0,0-7.987,7.987,7.986,7.986,0,0,0,7.987,7.986,7.95,7.95,0,0,0,5.191-1.924l.339.337v.973l6.141,6.132,1.832-1.832-6.129-6.143Zm-7.375,0a5.528,5.528,0,0,1-5.529-5.529,5.529,5.529,0,0,1,5.529-5.529,5.53,5.53,0,0,1,5.529,5.529,5.529,5.529,0,0,1-5.529,5.529Z" transform="translate(-908 1415)" fill="#fff" fill-rule="evenodd"/>
</svg>
