<svg xmlns="http://www.w3.org/2000/svg" xmlns:xlink="http://www.w3.org/1999/xlink" width="20" height="20" viewBox="0 0 24.016 24.016">
    <defs>
        <linearGradient id="linear-gradient" x1="0.084" y1="0.916" x2="0.916" y2="0.084" gradientUnits="objectBoundingBox">
            <stop offset="0" stop-color="#ffd600"/>
            <stop offset="0.5" stop-color="#ff0100"/>
            <stop offset="1" stop-color="#d800b9"/>
        </linearGradient>
        <linearGradient id="linear-gradient-2" x1="0.146" y1="0.854" x2="0.854" y2="0.146" gradientUnits="objectBoundingBox">
            <stop offset="0" stop-color="#ff6400"/>
            <stop offset="0.5" stop-color="#ff0100"/>
            <stop offset="1" stop-color="#fd0056"/>
        </linearGradient>
        <linearGradient id="linear-gradient-3" x1="0.146" y1="0.854" x2="0.854" y2="0.146" gradientUnits="objectBoundingBox">
            <stop offset="0" stop-color="#f30072"/>
            <stop offset="1" stop-color="#e50097"/>
        </linearGradient>
    </defs>
    <g id="instagram" transform="translate(0 0)">
        <path id="Path_3480" data-name="Path 3480" d="M23.943,7.057a8.816,8.816,0,0,0-.558-2.915A5.885,5.885,0,0,0,22,2.015,5.887,5.887,0,0,0,19.873.63,8.814,8.814,0,0,0,16.958.072C15.678.014,15.269,0,12.008,0S8.338.014,7.057.072A8.817,8.817,0,0,0,4.142.63,5.885,5.885,0,0,0,2.015,2.015,5.886,5.886,0,0,0,.63,4.142,8.815,8.815,0,0,0,.072,7.057C.014,8.338,0,8.746,0,12.008s.014,3.67.073,4.951A8.813,8.813,0,0,0,.63,19.873,5.884,5.884,0,0,0,2.015,22a5.884,5.884,0,0,0,2.127,1.385,8.811,8.811,0,0,0,2.915.558c1.281.058,1.69.072,4.951.072s3.67-.014,4.951-.072a8.812,8.812,0,0,0,2.915-.558,6.139,6.139,0,0,0,3.512-3.512,8.813,8.813,0,0,0,.558-2.915c.058-1.281.072-1.69.072-4.951S24,8.338,23.943,7.057Zm-2.162,9.8a6.644,6.644,0,0,1-.413,2.23,3.976,3.976,0,0,1-2.279,2.279,6.644,6.644,0,0,1-2.23.413c-1.266.058-1.646.07-4.852.07s-3.586-.012-4.852-.07a6.646,6.646,0,0,1-2.23-.413,3.721,3.721,0,0,1-1.381-.9,3.72,3.72,0,0,1-.9-1.381,6.644,6.644,0,0,1-.413-2.23c-.058-1.266-.07-1.646-.07-4.852s.012-3.586.07-4.852a6.649,6.649,0,0,1,.413-2.23,3.723,3.723,0,0,1,.9-1.381,3.718,3.718,0,0,1,1.381-.9,6.643,6.643,0,0,1,2.23-.414c1.266-.058,1.646-.07,4.852-.07h0c3.206,0,3.586.012,4.852.07a6.645,6.645,0,0,1,2.23.413,3.723,3.723,0,0,1,1.381.9,3.718,3.718,0,0,1,.9,1.381,6.638,6.638,0,0,1,.414,2.23c.058,1.266.07,1.646.07,4.852s-.012,3.586-.07,4.852Zm0,0" fill="url(#linear-gradient)"/>
        <path id="Path_3481" data-name="Path 3481" d="M130.705,124.539a6.166,6.166,0,1,0,6.166,6.166A6.166,6.166,0,0,0,130.705,124.539Zm0,10.169a4,4,0,1,1,4-4A4,4,0,0,1,130.705,134.708Zm0,0" transform="translate(-118.698 -118.698)" fill="url(#linear-gradient-2)"/>
        <path id="Path_3482" data-name="Path 3482" d="M364.812,90.066a1.441,1.441,0,1,1-1.441-1.441A1.441,1.441,0,0,1,364.812,90.066Zm0,0" transform="translate(-344.953 -84.468)" fill="url(#linear-gradient-3)"/>
    </g>
</svg>