<svg id="information" xmlns="http://www.w3.org/2000/svg" width="24.713" height="24.713" viewBox="0 0 24.713 24.713">
    <path id="Path_3572" data-name="Path 3572" d="M12.356,0A12.356,12.356,0,1,0,24.713,12.357,12.371,12.371,0,0,0,12.356,0Zm0,22.466a10.11,10.11,0,1,1,10.11-10.11A10.121,10.121,0,0,1,12.356,22.466Z" fill="#fe9500"/>
    <path id="Path_3573" data-name="Path 3573" d="M146.541,70a1.539,1.539,0,1,0,1.539,1.54A1.541,1.541,0,0,0,146.541,70Z" transform="translate(-134.185 -64.778)" fill="#fe9500"/>
    <path id="Path_3574" data-name="Path 3574" d="M151.155,140A1.155,1.155,0,0,0,150,141.155v6.927a1.154,1.154,0,1,0,2.309,0v-6.927A1.155,1.155,0,0,0,151.155,140Z" transform="translate(-138.798 -129.682)" fill="#fe9500"/>
</svg>
