<svg xmlns="http://www.w3.org/2000/svg" width="14" height="14" viewBox="0 0 18 18">
    <path id="Subtraction_2" style="fill: #6C6C6C;" data-name="Subtraction 2" d="M-6540,4348a8.94,8.94,0,0,1-6.365-2.635A8.938,8.938,0,0,1-6549,4339a8.94,8.94,0,0,1,2.635-6.365A8.94,8.94,0,0,1-6540,4330a8.938,8.938,0,0,1,6.365,2.635A8.94,8.94,0,0,1-6531,4339a8.938,8.938,0,0,1-2.635,6.365A8.938,8.938,0,0,1-6540,4348Zm0-16.593a7.6,7.6,0,0,0-7.593,7.593,7.6,7.6,0,0,0,7.593,7.593,7.6,7.6,0,0,0,7.593-7.593A7.6,7.6,0,0,0-6540,4331.407Zm0,12.062a.7.7,0,0,1-.7-.7v-4.528a.7.7,0,0,1,.7-.7.7.7,0,0,1,.7.7v4.528A.7.7,0,0,1-6540,4343.469Zm0-6.8a.951.951,0,0,1-.95-.949.95.95,0,0,1,.95-.948.949.949,0,0,1,.948.948A.95.95,0,0,1-6540,4336.673Z" transform="translate(6549 -4330)"/>
</svg>