<svg xmlns="http://www.w3.org/2000/svg" width="20.335" height="20" viewBox="0 0 20.335 24.157">
    <path id="copy" d="M12.786,24.157H3.775A3.779,3.779,0,0,1,0,20.383V7.6A3.779,3.779,0,0,1,3.775,3.822h9.012A3.779,3.779,0,0,1,16.561,7.6V20.383A3.779,3.779,0,0,1,12.786,24.157ZM3.775,5.709A1.89,1.89,0,0,0,1.887,7.6V20.383A1.89,1.89,0,0,0,3.775,22.27h9.012a1.89,1.89,0,0,0,1.887-1.887V7.6a1.89,1.89,0,0,0-1.887-1.887ZM20.335,18.024V3.775A3.779,3.779,0,0,0,16.561,0H6.086a.944.944,0,0,0,0,1.887H16.561a1.89,1.89,0,0,1,1.887,1.887V18.024a.944.944,0,1,0,1.887,0Zm0,0" fill="#457b9d"/>
</svg>