<svg id="Dairy_Product" data-name="Dairy Product" xmlns="http://www.w3.org/2000/svg" width="28.77" height="28.77" viewBox="0 0 28.77 28.77">
    <g id="Outline" transform="translate(0)">
        <path id="Path_3517" data-name="Path 3517" d="M289.349,408.933a.45.45,0,0,0,.45-.45c0-.86-1.8-.438-1.8.9s1.8,1.762,1.8.9a.45.45,0,0,0-.45-.45.45.45,0,0,1,0-.9Z" transform="translate(-271.817 -385.108)" fill="#265CC7"/>
        <path id="Path_3518" data-name="Path 3518" d="M266.7,353.349a1.349,1.349,0,1,0-1.349,1.349A1.349,1.349,0,0,0,266.7,353.349Zm-1.8,0a.45.45,0,1,1,.45.45A.45.45,0,0,1,264.9,353.349Z" transform="translate(-249.166 -332.221)" fill="#265CC7"/>
        <path id="Path_3519" data-name="Path 3519" d="M225.349,432a1.349,1.349,0,1,0,1.349,1.349A1.349,1.349,0,0,0,225.349,432Zm0,1.8a.45.45,0,1,1,.45-.45A.45.45,0,0,1,225.349,433.8Z" transform="translate(-211.413 -407.726)" fill="#265CC7"/>
        <path id="Path_3520" data-name="Path 3520" d="M184.21,223.592a7.39,7.39,0,0,1-7.232-1.457l.347-.9a1.831,1.831,0,0,0,1.062-2.759l1.187-3.084c1.941.6,3.1-2.508,1.295-3.363l.974-2.53,1.322,3.434a.45.45,0,0,0,.839-.323L182.5,208.7h2.183l.506,1.316a1.8,1.8,0,0,0,1.631,3.114.45.45,0,1,0-.234-.868.9.9,0,0,1-.645-1.67.45.45,0,0,0,.218-.563l-.747-1.94a.45.45,0,0,0-.42-.288c-3.23,0-3.415-.106-3.566.288-1.55,4.19-1.726,4.119-1.536,4.451a.449.449,0,0,0,.317.22c.972.16.733,1.321.211,1.689a.712.712,0,0,1-.847-.042.45.45,0,0,0-.661.217l-1.453,3.773a.449.449,0,0,0,.1.475.916.916,0,0,1-.581,1.513.45.45,0,0,0-.392.287l-.549,1.428a.449.449,0,0,0,.106.484,8.233,8.233,0,0,0,8.362,1.865.45.45,0,0,0-.288-.852Z" transform="translate(-166.11 -196.109)" fill="#265CC7"/>
        <path id="Path_3521" data-name="Path 3521" d="M330.339,320h-9.89a.45.45,0,0,0,0,.9h.489l.862,9.481a.45.45,0,0,0,.447.409h6.293a.45.45,0,0,0,.448-.409l.327-3.6a.45.45,0,1,0-.9-.081l-.29,3.191h-5.472l-.817-8.99h7.107l-.2,2.219a.45.45,0,0,0,.9.081l.209-2.3h.489a.45.45,0,0,0,0-.9Z" transform="translate(-302.019 -302.019)" fill="#265CC7"/>
        <path id="Path_3522" data-name="Path 3522" d="M273.968,10.779a.45.45,0,0,0,.531-.35A4.046,4.046,0,0,1,276.036,8a.451.451,0,0,0,.048-.042c.6-.6.685-1.716-.468-2.68a.647.647,0,0,1-.225-.639c.015-.04.052-.146.309-.145,5.444.1,5.717-.16,5.831.153a.629.629,0,0,1-.221.632,2.162,2.162,0,0,0-.893,1.535A1.564,1.564,0,0,0,280.891,8a4.066,4.066,0,0,1,1.618,3.237.45.45,0,1,0,.9,0,4.97,4.97,0,0,0-1.941-3.928c-.367-.455-.027-.967.42-1.341a1.319,1.319,0,0,0-.277-2.325V.45a.45.45,0,0,0-.45-.45h-5.394a.45.45,0,0,0-.45.45V3.644a1.316,1.316,0,0,0-.277,2.325c.453.379.784.888.42,1.341a4.944,4.944,0,0,0-1.841,2.939A.45.45,0,0,0,273.968,10.779ZM276.216.9h4.5v.9h-3.147a.45.45,0,1,0,0,.9h3.147v.9h-4.5Z" transform="translate(-258.235)" fill="#265CC7"/>
        <path id="Path_3523" data-name="Path 3523" d="M35.147,262.745a.45.45,0,0,0-.45-.45,1.8,1.8,0,0,1-1.8-1.8c0-.684.993-2.235,1.8-3.311.805,1.075,1.8,2.626,1.8,3.311a.45.45,0,0,0,.9,0c0-1.36-2.106-4.027-2.346-4.327a.45.45,0,0,0-.7,0c-.24.3-2.346,2.967-2.346,4.327C32,262.976,35.147,263.83,35.147,262.745Z" transform="translate(-30.202 -241.618)" fill="#265CC7"/>
        <path id="Path_3524" data-name="Path 3524" d="M10.339,27.87H8.99V7.766l2.253-3.755L13.5,7.767v4.37a.45.45,0,0,0,.9,0v-4.5c0-.229.022-.046-2.716-4.636V.45a.45.45,0,0,0-.45-.45H3.147A.45.45,0,0,0,2.7.45V3.022l-.36.6a.45.45,0,1,0,.771.462L3.4,3.6h7.043l-2.158,3.6H6.743a.45.45,0,0,0,0,.9H8.091v3.6H.9v-3.6H4.945a.45.45,0,0,0,0-.9h-3.7l.015-.026A.45.45,0,1,0,.488,6.7C.042,7.448,0,7.476,0,7.642V28.32a.45.45,0,0,0,.45.45h9.89a.45.45,0,0,0,0-.9ZM3.6,2.7V.9h7.192V2.7Zm4.5,25.173H.9v-3.6H8.091Zm0-4.5H.9V12.587H8.091Z" transform="translate(0)" fill="#265CC7"/>
        <circle id="Ellipse_389" data-name="Ellipse 389" cx="0.5" cy="0.5" r="0.5" transform="translate(1 5)" fill="#265CC7"/>
        <circle id="Ellipse_390" data-name="Ellipse 390" cx="0.5" cy="0.5" r="0.5" transform="translate(6 20)" fill="#265CC7"/>
        <circle id="Ellipse_391" data-name="Ellipse 391" cx="0.5" cy="0.5" r="0.5" transform="translate(24 13)" fill="#265CC7"/>
        <ellipse id="Ellipse_392" data-name="Ellipse 392" cy="0.5" ry="0.5" transform="translate(27 22)" fill="#265CC7"/>
        <path id="Path_3525" data-name="Path 3525" d="M432.45,256a.449.449,0,0,0-.45.45v1.8a.45.45,0,1,0,.9,0v-1.8A.45.45,0,0,0,432.45,256Z" transform="translate(-407.726 -241.615)" fill="#265CC7"/>
    </g>
</svg>
