<svg id="call-center" xmlns="http://www.w3.org/2000/svg" width="40" height="40"
	 viewBox="0 0 48.142 48.142">
	<path id="Path_3510" data-name="Path 3510"
		  d="M46.731,16.618H42.044a18.028,18.028,0,0,0-35.946,0H1.41A1.41,1.41,0,0,0,0,18.028V33.135a1.41,1.41,0,0,0,1.41,1.41H7.453a1.41,1.41,0,0,0,1.41-1.41V18.028a15.207,15.207,0,1,1,30.414,0V33.135A9.175,9.175,0,0,1,30.113,42.3H28.271a4.432,4.432,0,1,0,0,2.821h1.842a12,12,0,0,0,11.9-10.575h4.716a1.41,1.41,0,0,0,1.41-1.41V18.028a1.41,1.41,0,0,0-1.41-1.41ZM6.043,31.725H2.821V19.438H6.043Zm18.028,13.6a1.611,1.611,0,1,1,1.611-1.611A1.613,1.613,0,0,1,24.071,45.321Zm21.25-13.6H42.1V19.438h3.222Z"
		  transform="translate(0)" fill="#265CC7"/>
	<path id="Path_3511" data-name="Path 3511"
		  d="M274.6,176.84a1.41,1.41,0,0,0-1.537.306l-6.491,6.488a5.1,5.1,0,0,0-1.475,3.573,1.41,1.41,0,0,0,1.41,1.41h6.143v3.122a1.41,1.41,0,0,0,2.821,0v-3.122h.1a1.41,1.41,0,0,0,0-2.821h-.1v-7.654A1.411,1.411,0,0,0,274.6,176.84Zm-1.95,8.957H268.42a2.223,2.223,0,0,1,.153-.171l4.081-4.079Z"
		  transform="translate(-240.174 -160.115)" fill="#265CC7"/>
	<path id="Path_3512" data-name="Path 3512"
		  d="M138.908,191.74a1.41,1.41,0,0,0-1.41-1.41h-5.644a2.186,2.186,0,0,1,.153-.171l6.489-6.486a1.41,1.41,0,0,0,.413-1v-.755a5.187,5.187,0,0,0-10.374,0v0a1.41,1.41,0,0,0,2.821,0,2.366,2.366,0,0,1,4.733,0v.171l-6.078,6.075a5.1,5.1,0,0,0-1.475,3.573,1.41,1.41,0,0,0,1.41,1.41H137.5A1.41,1.41,0,0,0,138.908,191.74Z"
		  transform="translate(-116.448 -160.115)" fill="#265CC7"/>
</svg>