<svg xmlns="http://www.w3.org/2000/svg" width="40" height="40" viewBox="0 0 48.084 44.533">
	<g id="credit-card" transform="translate(0 -18.904)">
		<g id="Group_1666" data-name="Group 1666" transform="translate(0 38.4)">
			<g id="Group_1665" data-name="Group 1665" transform="translate(0 0)">
				<path id="Path_3513" data-name="Path 3513"
					  d="M47.3,228.6a4.693,4.693,0,0,0-6.565-1.285L32.8,232.748a4.075,4.075,0,0,0-3.414-1.853h-5.03c-.852-.832-2.758-2.132-6.356-2.132-4.584,0-6.554,1.941-6.953,2.4l-1.6,1.631-.856-1.64L0,235.635l8.3,15.9,8.592-4.486-.889-1.7H31.627L46.11,235.013A4.677,4.677,0,0,0,47.3,228.6ZM9.5,247.726,3.809,236.831,7.4,234.958l5.688,10.895Zm34.974-15.011-13.748,9.808H14.53l-3.707-7.1,2.272-2.322.031-.02.053-.073c.148-.157,1.447-1.421,4.818-1.421,3.26,0,4.4,1.317,4.535,1.493l.355.639h6.5a1.253,1.253,0,1,1,0,2.506H20.9v2.823h8.479a4.083,4.083,0,0,0,4-3.277l8.949-6.121a1.87,1.87,0,0,1,2.142,3.066Z"
					  transform="translate(0 -226.497)" fill="#265CC7"/>
			</g>
		</g>
		<g id="Group_1668" data-name="Group 1668" transform="translate(11.801 18.904)">
			<g id="Group_1667" data-name="Group 1667" transform="translate(0 0)">
				<path id="Path_3514" data-name="Path 3514"
					  d="M149.317,18.9H129.081a3.428,3.428,0,0,0-3.424,3.424V34.337a3.428,3.428,0,0,0,3.424,3.424h20.236a3.428,3.428,0,0,0,3.424-3.424V22.328A3.428,3.428,0,0,0,149.317,18.9Zm.6,15.433a.6.6,0,0,1-.6.6H129.081a.6.6,0,0,1-.6-.6v-6.7h21.438Zm0-9.525H128.48V22.328a.6.6,0,0,1,.6-.6h20.236a.6.6,0,0,1,.6.6v2.483Z"
					  transform="translate(-125.657 -18.904)" fill="#265CC7"/>
			</g>
		</g>
		<g id="Group_1670" data-name="Group 1670" transform="translate(16.318 30.41)">
			<g id="Group_1669" data-name="Group 1669">
				<rect id="Rectangle_16921" data-name="Rectangle 16921" width="4.423" height="2.823" fill="#265CC7"/>
			</g>
		</g>
	</g>
</svg>