<svg id="help" xmlns="http://www.w3.org/2000/svg" width="36.265" height="36.265" viewBox="0 0 36.265 36.265">
    <path id="Path_3558" data-name="Path 3558" d="M36.265,24.542a11.749,11.749,0,0,0-8.584-11.3A13.847,13.847,0,1,0,1.92,20.886L.051,27.643l6.758-1.869a13.8,13.8,0,0,0,6.437,1.906,11.726,11.726,0,0,0,17.261,6.955l5.706,1.578-1.578-5.706a11.68,11.68,0,0,0,1.63-5.965ZM7.144,23.477,3.1,24.6,4.218,20.55l-.255-.4a11.718,11.718,0,1,1,3.58,3.58Zm26.022,9.69-3-.831-.4.261A9.6,9.6,0,0,1,15.444,27.6,13.873,13.873,0,0,0,27.6,15.443,9.6,9.6,0,0,1,32.6,29.763l-.261.4Zm0,0" fill="#f80"/>
    <path id="Path_3559" data-name="Path 3559" d="M180.5,271h2.125v2.125H180.5Zm0,0" transform="translate(-167.715 -251.805)" fill="#f80"/>
    <path id="Path_3560" data-name="Path 3560" d="M141.875,94.25a2.1,2.1,0,0,1-.692,1.568l-2.5,2.284V100.7h2.125V99.038l1.805-1.652A4.25,4.25,0,1,0,135.5,94.25h2.125a2.125,2.125,0,1,1,4.25,0Zm0,0" transform="translate(-125.903 -83.625)" fill="#f80"/>
</svg>
