<svg xmlns="http://www.w3.org/2000/svg" width="28.83" height="35.517" viewBox="0 0 28.83 35.517">
    <path id="call-center" d="M20.718,23.22,18.8,22.581v-1.6a8.877,8.877,0,0,0,4.192-5.522h1.455a3.27,3.27,0,0,0,3.27-3.27V9.956a3.27,3.27,0,0,0-3.27-3.27H23.257V6.612A6.619,6.619,0,0,0,16.645,0H12.185A6.62,6.62,0,0,0,5.573,6.612v.075H4.384a3.27,3.27,0,0,0-3.27,3.27v6.687a5.5,5.5,0,0,0,5.5,5.5,1.041,1.041,0,0,0,0-2.081A3.421,3.421,0,0,1,3.2,16.644V15.233a3.265,3.265,0,0,0,1.188.223H5.836a8.784,8.784,0,0,0,2.327,4.1,8.888,8.888,0,0,0,1.869,1.43v1.6l-1.919.64A11.849,11.849,0,0,0,0,34.477a1.04,1.04,0,0,0,1.041,1.041H27.79a1.041,1.041,0,0,0,1.041-1.041A11.85,11.85,0,0,0,20.718,23.22Zm4.569-14.1a1.18,1.18,0,0,1,.348.84v2.229a1.189,1.189,0,0,1-1.189,1.189H23.257V8.768h1.189a1.18,1.18,0,0,1,.841.348Zm-13.1-7.036h4.46a4.536,4.536,0,0,1,4.531,4.531v2.3h-4.4a4.837,4.837,0,0,1-4.7-3.663,1.041,1.041,0,0,0-1.477-.685L7.692,6.025a4.538,4.538,0,0,1,4.493-3.944ZM5.573,13.374H4.384A1.189,1.189,0,0,1,3.2,12.186V9.957A1.189,1.189,0,0,1,4.384,8.768H5.573ZM7.654,13.3V8.371l2.83-1.415A6.915,6.915,0,0,0,16.781,11h4.4v2.3a6.761,6.761,0,0,1-13.523,0Zm6.761,8.841a8.823,8.823,0,0,0,2.3-.3v1.493a2.3,2.3,0,1,1-4.606,0v-1.49a8.893,8.893,0,0,0,2.3.3ZM2.136,33.436A9.771,9.771,0,0,1,8.77,25.195l1.481-.493a4.383,4.383,0,0,0,8.327,0l1.481.493a9.77,9.77,0,0,1,6.634,8.241Zm0,0" transform="translate(0 0)" fill="#06c270"/>
</svg>
