<svg xmlns="http://www.w3.org/2000/svg" width="28.013" height="27.856" viewBox="0 0 28.013 27.856">
    <g id="groceries" transform="translate(0 -1.428)">
        <path id="Path_3495" data-name="Path 3495" d="M361.054,82.778a1.29,1.29,0,0,0,0,1.824l2.981,2.981a1.29,1.29,0,0,0,1.824-1.824l-2.981-2.981A1.291,1.291,0,0,0,361.054,82.778Zm4.225,3.562a.469.469,0,0,1-.663.663l-2.981-2.981a.469.469,0,0,1,.663-.663Z" transform="translate(-340.942 -76.543)" fill="#265CC7"/>
        <path id="Path_3496" data-name="Path 3496" d="M27.913,13.79a2.471,2.471,0,0,0-1.566-1.816C28.288,8.735,28.557,5.7,27,4.149a3.82,3.82,0,0,0-2.856-1.008.41.41,0,0,0,.007.821h.008a2.989,2.989,0,0,1,2.26.768,3.461,3.461,0,0,1,.712,2.95,10.9,10.9,0,0,1-1.659,4.144q-3.55-.068-7.124-.093a42.021,42.021,0,0,0-.259-4.212.41.41,0,0,0-.364-.362l-.367-.037a13.928,13.928,0,0,1,5.289-2.937.41.41,0,1,0-.205-.795,11.327,11.327,0,0,0-2,.738,2.8,2.8,0,0,0-.057-1.774,1.128,1.128,0,0,0-.726-.61c-.479-.133-1.223-.063-2.05,1.023-.04.053-.079.106-.116.158l-.014-.047a1.77,1.77,0,0,0-1.608-1.448,1.148,1.148,0,0,0-.894.408A2.572,2.572,0,0,0,14.5,3.267a1.781,1.781,0,0,0-1.265-.852.958.958,0,0,0-.785.438c-.528.745-.536,2.359-.045,4.05l-.368.007a9.573,9.573,0,0,0-2.2-1.842v-.9a.41.41,0,0,0,.339-.4V2.607A1.134,1.134,0,0,0,9.043,1.475H6.491A1.134,1.134,0,0,0,5.358,2.607V3.766a.41.41,0,0,0,.339.4v.9A8.6,8.6,0,0,0,2.835,7.838a1.731,1.731,0,0,0-.226.976,26.391,26.391,0,0,0,.353,3l-.5.009A2.469,2.469,0,0,0,.1,13.79a4.93,4.93,0,0,0,0,1.973,2.463,2.463,0,0,0,1.516,1.8c.045.835.122,2.023.249,3.373q-.508,1.439-.992,2.877a1.766,1.766,0,0,0,.863,2.13,4.463,4.463,0,0,0,.915.342,4.5,4.5,0,0,0,4.239,3H21.123a4.5,4.5,0,0,0,4.24-3,4.471,4.471,0,0,0,.915-.342,1.765,1.765,0,0,0,.863-2.13q-.483-1.438-.992-2.877c.126-1.35.2-2.538.249-3.373a2.463,2.463,0,0,0,1.516-1.8,4.931,4.931,0,0,0,0-1.973Zm-10.6-5.852c.131,1.26.2,2.531.219,3.787Q12.966,11.7,8.4,11.74c.014-1.261.087-2.537.219-3.8a43.86,43.86,0,0,1,8.7,0ZM13.12,3.329c.03-.042.074-.092.115-.092.3,0,.915.843,1.356,1.844a.41.41,0,0,0,.783-.23A3.7,3.7,0,0,1,15.6,2.372a.328.328,0,0,1,.272-.124c.946,0,.978,1.882.978,1.9a.41.41,0,0,0,.786.166c.293-.664,1.12-1.973,1.8-1.783a.309.309,0,0,1,.209.18,2.982,2.982,0,0,1-.225,1.947,18.219,18.219,0,0,0-3.194,2.362Q14.75,6.913,13.262,6.9c-.572-1.793-.438-3.157-.142-3.574Zm-4.1,1.566h-2.5V4.176h2.5v.718ZM6.491,2.3H9.043a.312.312,0,0,1,.312.312v.748H6.179V2.607A.312.312,0,0,1,6.491,2.3Zm-2.72,9.381a25.481,25.481,0,0,1-.343-2.915.914.914,0,0,1,.118-.515A7.971,7.971,0,0,1,6.217,5.715h3.1a9.278,9.278,0,0,1,1.625,1.232Q9.568,7.01,8.2,7.155a.41.41,0,0,0-.364.362,42.047,42.047,0,0,0-.259,4.231q-1.89.02-3.774.052a.934.934,0,0,1-.033-.123ZM2.447,17.728h.023l.552.01q-.247.663-.489,1.328C2.5,18.567,2.469,18.116,2.447,17.728ZM21.123,28.463H6.89A3.7,3.7,0,0,1,3.54,26.3a1.773,1.773,0,0,0,1.221-1.07c.236-.6.451-1.158.657-1.7a.41.41,0,1,0-.767-.292c-.2.537-.419,1.09-.654,1.69a.939.939,0,0,1-1.079.577,3.637,3.637,0,0,1-.812-.3.941.941,0,0,1-.455-1.136C2.7,20.942,3.85,17.789,5.061,14.7a.94.94,0,0,1,1.079-.578,3.641,3.641,0,0,1,.813.3.94.94,0,0,1,.455,1.136C6.72,17.6,5.987,19.673,5.23,21.7A.41.41,0,0,0,6,21.991c.516-1.384,1.02-2.786,1.508-4.187,2.158.023,4.329.036,6.5.036s4.343-.012,6.5-.036c.866,2.491,1.786,4.979,2.744,7.422a1.774,1.774,0,0,0,1.221,1.07,3.7,3.7,0,0,1-3.35,2.168Zm4.785-3.255a3.651,3.651,0,0,1-.813.3.94.94,0,0,1-1.079-.578c-1.209-3.08-2.356-6.233-3.411-9.371a.94.94,0,0,1,.455-1.136,3.649,3.649,0,0,1,.813-.3.9.9,0,0,1,.2-.024.947.947,0,0,1,.874.6c1.209,3.08,2.356,6.233,3.411,9.371A.94.94,0,0,1,25.908,25.208Zm-.917-7.47.551-.01h.024c-.022.387-.05.838-.086,1.338q-.242-.665-.489-1.327ZM27.109,15.6A1.639,1.639,0,0,1,25.9,16.86a1.6,1.6,0,0,1-.361.048h-.014l-.841.015q-.478-1.267-.97-2.522a1.765,1.765,0,0,0-2.03-1.077,4.47,4.47,0,0,0-1,.363,1.765,1.765,0,0,0-.863,2.13q.2.585.4,1.17c-4.129.043-8.306.043-12.436,0q.2-.585.4-1.169a1.764,1.764,0,0,0-.862-2.13,4.465,4.465,0,0,0-1-.363A1.766,1.766,0,0,0,4.3,14.4q-.492,1.254-.969,2.522l-.842-.015H2.474a1.608,1.608,0,0,1-.364-.049A1.638,1.638,0,0,1,.9,15.6a4.116,4.116,0,0,1,0-1.647,1.643,1.643,0,0,1,1.569-1.308c7.653-.147,15.414-.147,23.067,0a1.643,1.643,0,0,1,1.569,1.308,4.113,4.113,0,0,1,0,1.647Z" transform="translate(0 0)" fill="#265CC7"/>
        <path id="Path_3497" data-name="Path 3497" d="M126.116,327.051h-.028a1.729,1.729,0,0,0-1.726,1.689c-.033,1.113-.033,2.241,0,3.354a1.729,1.729,0,0,0,1.727,1.689h.027a1.729,1.729,0,0,0,1.726-1.689c.033-1.113.033-2.241,0-3.354A1.729,1.729,0,0,0,126.116,327.051Zm.906,5.018a.922.922,0,0,1-.908.893h-.024a.923.923,0,0,1-.908-.893c-.033-1.1-.033-2.208,0-3.3a.923.923,0,0,1,.908-.893h.023a.923.923,0,0,1,.908.893C127.055,329.861,127.055,330.972,127.023,332.069Z" transform="translate(-117.534 -307.807)" fill="#265CC7"/>
        <path id="Path_3498" data-name="Path 3498" d="M225.5,327.051h-.028a1.729,1.729,0,0,0-1.726,1.689c-.033,1.113-.033,2.241,0,3.354a1.729,1.729,0,0,0,1.727,1.689h.027a1.729,1.729,0,0,0,1.727-1.689c.033-1.113.033-2.241,0-3.354A1.729,1.729,0,0,0,225.5,327.051Zm.906,5.018a.922.922,0,0,1-.908.893h-.024a.923.923,0,0,1-.908-.893c-.033-1.1-.033-2.208,0-3.3a.923.923,0,0,1,.908-.893h.023a.923.923,0,0,1,.908.893C226.443,329.861,226.443,330.972,226.411,332.069Z" transform="translate(-211.484 -307.807)" fill="#265CC7"/>
        <path id="Path_3499" data-name="Path 3499" d="M324.893,327.051h-.028a1.729,1.729,0,0,0-1.727,1.689c-.033,1.113-.033,2.241,0,3.354a1.729,1.729,0,0,0,1.727,1.689h.027a1.729,1.729,0,0,0,1.727-1.689c.033-1.113.033-2.241,0-3.354A1.729,1.729,0,0,0,324.893,327.051Zm.906,5.018a.922.922,0,0,1-.908.893h-.024a.923.923,0,0,1-.908-.893c-.033-1.1-.033-2.208,0-3.3a.923.923,0,0,1,.908-.893h.023a.923.923,0,0,1,.908.893C325.832,329.861,325.832,330.972,325.8,332.069Z" transform="translate(-305.435 -307.807)" fill="#265CC7"/>
    </g>
</svg>
