<svg xmlns="http://www.w3.org/2000/svg" width="120" height="120" viewBox="0 0 120 120">
    <g id="checkmark" transform="translate(-0.004)">
        <g id="cross" transform="translate(0.004)">
            <path id="Path_3582" data-name="Path 3582" d="M60,0a60,60,0,1,0,60,60A59.967,59.967,0,0,0,60,0ZM57.121,74.39,43.5,88.015A8.141,8.141,0,0,1,31.985,76.5L45.61,62.879a4.071,4.071,0,0,0,0-5.758L31.985,43.5A8.141,8.141,0,0,1,43.5,31.985L57.121,45.61a4.076,4.076,0,0,0,5.758,0L76.5,31.985A8.141,8.141,0,0,1,88.015,43.5L74.39,57.121a4.071,4.071,0,0,0,0,5.758L88.015,76.5A8.141,8.141,0,0,1,76.5,88.015L62.879,74.39a4.074,4.074,0,0,0-5.758,0Z" fill="#FF3B3B"/>
        </g>
    </g>
</svg>
