<svg id="Group_2159" data-name="Group 2159" xmlns="http://www.w3.org/2000/svg" width="124.03" height="112.765" viewBox="0 0 124.03 112.765">
    <path id="Path_3583" data-name="Path 3583" d="M46.9,150.955a2.541,2.541,0,0,0-2.538-2.538H37.39a2.541,2.541,0,0,0-2.538,2.538v6.97a2.541,2.541,0,0,0,2.538,2.538h6.97a2.541,2.541,0,0,0,2.538-2.538v-6.97Zm-3.634,5.874H38.486v-4.778h4.778Z" transform="translate(-26.409 -118.096)" fill="#457b9d"/>
    <path id="Path_3584" data-name="Path 3584" d="M39,104.814a1.817,1.817,0,0,0,1.285.532l.092,0a1.817,1.817,0,0,0,1.316-.666l4.8-5.877a1.817,1.817,0,0,0-2.815-2.3l-3.526,4.32L37.954,98.63a1.817,1.817,0,0,0-2.569,2.569Z" transform="translate(-26.409 -78.253)" fill="#457b9d"/>
    <path id="Path_3585" data-name="Path 3585" d="M124,110.195h-22.11a1.817,1.817,0,1,0,0,3.634H124a1.817,1.817,0,0,0,0-3.634Z" transform="translate(-75.83 -89.133)" fill="#457b9d"/>
    <path id="Path_3586" data-name="Path 3586" d="M124,165.778h-22.11a1.817,1.817,0,1,0,0,3.634H124a1.817,1.817,0,0,0,0-3.634Z" transform="translate(-75.83 -131.252)" fill="#457b9d"/>
    <path id="Path_3587" data-name="Path 3587" d="M46.9,210.48a2.541,2.541,0,0,0-2.538-2.538H37.39a2.541,2.541,0,0,0-2.538,2.538v6.97a2.541,2.541,0,0,0,2.538,2.538h6.97a2.541,2.541,0,0,0,2.538-2.538v-6.97Zm-3.634,5.874H38.486v-4.778h4.778Z" transform="translate(-26.409 -163.201)" fill="#457b9d"/>
    <path id="Path_3588" data-name="Path 3588" d="M37.39,279.511h6.97a2.541,2.541,0,0,0,2.538-2.538V270a2.541,2.541,0,0,0-2.538-2.538H37.39A2.541,2.541,0,0,0,34.852,270v6.97A2.541,2.541,0,0,0,37.39,279.511Zm1.1-8.411h4.778v4.778H38.486Z" transform="translate(-26.409 -208.306)" fill="#457b9d"/>
    <path id="Path_3589" data-name="Path 3589" d="M226.855,354.651a1.817,1.817,0,0,0,1.817-1.817V350.2a4.768,4.768,0,1,0-9.535,0v16.152a4.768,4.768,0,1,0,9.535,0v-5.035a1.817,1.817,0,0,0-3.634,0v5.035a1.134,1.134,0,1,1-2.268,0V350.2a1.134,1.134,0,1,1,2.268,0v2.638A1.817,1.817,0,0,0,226.855,354.651Z" transform="translate(-166.052 -267.382)" fill="#457b9d"/>
    <path id="Path_3590" data-name="Path 3590" d="M272.734,350.2v16.152a4.768,4.768,0,1,0,9.535,0V350.2a4.768,4.768,0,1,0-9.535,0Zm5.9,0v16.152a1.134,1.134,0,1,1-2.268,0V350.2a1.134,1.134,0,1,1,2.268,0Z" transform="translate(-206.665 -267.382)" fill="#457b9d"/>
    <path id="Path_3591" data-name="Path 3591" d="M331.1,345.428a4.773,4.773,0,0,0-4.768,4.768v16.152a4.768,4.768,0,1,0,9.535,0V350.2A4.773,4.773,0,0,0,331.1,345.428Zm1.134,20.92a1.134,1.134,0,1,1-2.268,0V350.2a1.134,1.134,0,1,1,2.268,0Z" transform="translate(-247.279 -267.382)" fill="#457b9d"/>
    <path id="Path_3592" data-name="Path 3592" d="M384.7,371.115a4.773,4.773,0,0,0,4.768-4.768V350.2a4.768,4.768,0,1,0-9.535,0v16.152A4.773,4.773,0,0,0,384.7,371.115Zm-1.134-20.92a1.134,1.134,0,1,1,2.268,0v16.152a1.134,1.134,0,1,1-2.268,0Z" transform="translate(-287.892 -267.382)" fill="#457b9d"/>
    <path id="Path_3593" data-name="Path 3593" d="M120.844,82.753h-5.709V76.122a10.24,10.24,0,0,0-10.228-10.228h-11.1L83.049,47.263a6.609,6.609,0,0,0-11.516.127L59.511,68.213a7.539,7.539,0,0,0-1.083-1.531V50.322a1.817,1.817,0,1,0-3.634,0V64.481a7.486,7.486,0,0,0-1.906-.247H47.029a7.517,7.517,0,0,0-7.508,7.508V72.2H26.059a1.817,1.817,0,0,0,0,3.634H39.521v6.923H33.812a3.189,3.189,0,0,0-3.185,3.185v.678H26.059a1.817,1.817,0,0,0,0,3.634h4.567v1.162A3.189,3.189,0,0,0,33.812,94.6h3.175l1.432,6.358H3.634V35.336H54.795v6.507a1.817,1.817,0,1,0,3.634,0V26.269a3.022,3.022,0,0,0-3.018-3.018H3.018A3.022,3.022,0,0,0,0,26.269v75.292a3.031,3.031,0,0,0,3.028,3.028h36.21L45.276,131.4a5.89,5.89,0,0,0,5.778,4.621H85.513a1.817,1.817,0,1,0,0-3.634H51.053a2.276,2.276,0,0,1-2.233-1.786l-8.109-36h8.43a8.639,8.639,0,0,0,12.617,0H92.9a8.639,8.639,0,0,0,12.617,0h8.431l-8.109,36a2.276,2.276,0,0,1-2.233,1.786H93.991a1.817,1.817,0,0,0,0,3.634H103.6a5.89,5.89,0,0,0,5.778-4.621l8.289-36.8h3.175a3.189,3.189,0,0,0,3.185-3.185V85.938a3.189,3.189,0,0,0-3.185-3.185ZM3.634,26.884H54.795V31.7H3.634ZM47.1,90.964H34.26V86.387H47.106a8.567,8.567,0,0,0,0,4.577Zm2.042-8.21H43.155V71.742a3.879,3.879,0,0,1,3.875-3.875h5.859a3.879,3.879,0,0,1,3.875,3.875v1.23l-4.4,7.614a8.7,8.7,0,0,0-3.224,2.168ZM55.451,93.7a5.025,5.025,0,1,1,5.025-5.025A5.031,5.031,0,0,1,55.451,93.7Zm6.308-10.948a8.648,8.648,0,0,0-4.931-2.626L71.8,54.2l3.433,5.945L62.177,82.753ZM73.273,70.8l4.055-7.024L81.383,70.8Zm7.943,3.634a10.228,10.228,0,0,0-.14,1.686v6.632h-14.7l4.8-8.317ZM63.8,90.964a8.643,8.643,0,0,0,.139-4l.335-.58H90.381l.335.58a8.643,8.643,0,0,0,.139,4Zm20.909-8.21V76.564l3.573,6.189Zm8.187,0h-.418l-17.725-30.7a2.975,2.975,0,0,1,2.57-4.46,2.99,2.99,0,0,1,.774.1A2.954,2.954,0,0,1,79.9,49.079L97.828,80.127A8.648,8.648,0,0,0,92.9,82.753ZM99.2,93.7a5.025,5.025,0,1,1,5.025-5.025A5.031,5.031,0,0,1,99.2,93.7Zm6.308-10.948a8.69,8.69,0,0,0-3.225-2.167L95.9,69.527h9a6.6,6.6,0,0,1,6.595,6.595v6.632Zm14.883,8.21H107.555a8.568,8.568,0,0,0,0-4.577H120.4Z" transform="translate(0 -23.251)" fill="#457b9d"/>
</svg>
