<svg xmlns="http://www.w3.org/2000/svg" width="120.372" height="120.372" viewBox="0 0 120.372 120.372">
    <g id="price-tag" transform="translate(0 0)">
        <path id="Path_3600" data-name="Path 3600" d="M181.195,167.647l16.624-49.873a3.527,3.527,0,1,0-6.691-2.23L174.5,165.416a3.527,3.527,0,1,0,6.691,2.23Z" transform="translate(-133.338 -86.534)" fill="#457b9d"/>
        <path id="Path_3601" data-name="Path 3601" d="M275.113,210.362a10.58,10.58,0,1,0-10.58-10.58A10.592,10.592,0,0,0,275.113,210.362Zm0-14.106a3.527,3.527,0,1,1-3.527,3.527A3.531,3.531,0,0,1,275.113,196.256Z" transform="translate(-202.341 -144.721)" fill="#457b9d"/>
        <path id="Path_3602" data-name="Path 3602" d="M105.407,189.2a10.58,10.58,0,1,0,10.58,10.58A10.592,10.592,0,0,0,105.407,189.2Zm0,14.106a3.527,3.527,0,1,1,3.527-3.527A3.531,3.531,0,0,1,105.407,203.309Z" transform="translate(-72.533 -144.721)" fill="#457b9d"/>
        <path id="Path_3603" data-name="Path 3603" d="M119.667,43.729l-12.3-16.4.48-3.358a3.527,3.527,0,0,0-1-2.992L99.37,13.5l7.481-7.481a3.526,3.526,0,0,0-4.987-4.987L94.383,8.514,86.9,1.033a3.53,3.53,0,0,0-2.992-1L49,5.023A3.526,3.526,0,0,0,47,6.02L3.781,49.243a12.945,12.945,0,0,0,0,18.287L40.355,104.1a12.9,12.9,0,0,0,2.434,1.909v1.43a12.945,12.945,0,0,0,12.931,12.931h51.722a12.945,12.945,0,0,0,12.931-12.931v-61.6a3.527,3.527,0,0,0-.705-2.116ZM8.769,62.542a5.884,5.884,0,0,1,0-8.312L51.16,11.839l32-4.572L89.4,13.5l-4.987,4.987-2.494-2.494a3.526,3.526,0,0,0-4.987,4.987L86.9,30.957a3.526,3.526,0,0,0,4.987-4.987L89.4,23.476l4.987-4.987,6.234,6.234-4.572,32L53.654,99.116a5.878,5.878,0,0,1-8.312,0Zm104.55,44.9a5.884,5.884,0,0,1-5.878,5.878H55.719a5.884,5.884,0,0,1-5.86-5.444,12.88,12.88,0,0,0,8.782-3.772L101.864,60.88a3.526,3.526,0,0,0,1-1.995l3.1-21.679,7.361,9.814Z" transform="translate(0)" fill="#457b9d"/>
    </g>
</svg>
