<svg xmlns="http://www.w3.org/2000/svg" width="124.608" height="124.61" viewBox="0 0 124.608 124.61">
    <g id="favorite" transform="translate(0 0)">
        <path id="Path_3595" data-name="Path 3595" d="M49.324,87.073H20.305a8.062,8.062,0,0,1-8.074-6.48L.119,13.1A7.5,7.5,0,0,1,1.775,6.939,8.308,8.308,0,0,1,8.187,4H95.652a8.308,8.308,0,0,1,6.412,2.939,7.511,7.511,0,0,1,1.656,6.163l-2.5,19.782a2.6,2.6,0,1,1-5.156-.649l2.518-19.917a2.413,2.413,0,0,0-.509-2.046,3.132,3.132,0,0,0-2.425-1.08H8.187a3.132,3.132,0,0,0-2.425,1.08,2.325,2.325,0,0,0-.535,1.905l12.113,67.5a2.932,2.932,0,0,0,2.965,2.2H49.324a2.6,2.6,0,1,1,0,5.192Z" transform="translate(0 16.769)" fill="#457b9d"/>
        <path id="Path_3596" data-name="Path 3596" d="M6.6,41.535a2.63,2.63,0,0,1-1.023-.208,2.6,2.6,0,0,1-1.36-3.411L19.788,1.572A2.6,2.6,0,1,1,24.56,3.618L8.983,39.962A2.6,2.6,0,0,1,6.6,41.535Z" transform="translate(16.768 0.002)" fill="#457b9d"/>
        <path id="Path_3597" data-name="Path 3597" d="M30.171,41.537a2.585,2.585,0,0,1-2.383-1.573L12.211,3.62a2.6,2.6,0,1,1,4.771-2.046L32.559,37.918a2.6,2.6,0,0,1-1.366,3.411,2.63,2.63,0,0,1-1.023.208Z" transform="translate(50.305 0)" fill="#457b9d"/>
        <path id="Path_3598" data-name="Path 3598" d="M9.6,43.152a2.6,2.6,0,0,1-2.6-2.6V14.6a2.6,2.6,0,1,1,5.192,0v25.96A2.6,2.6,0,0,1,9.6,43.152Z" transform="translate(29.344 50.305)" fill="#457b9d"/>
        <path id="Path_3599" data-name="Path 3599" d="M44.748,74.3a2.573,2.573,0,0,1-1.552-.519C41.882,72.809,11,49.539,11,30.852A18.859,18.859,0,0,1,44.748,19.284,18.859,18.859,0,0,1,78.5,30.852c0,18.691-30.882,41.957-32.2,42.938a2.6,2.6,0,0,1-1.552.514Zm-14.9-57.113a13.676,13.676,0,0,0-13.655,13.66c0,12.611,19.33,30.363,28.556,37.585C53.969,61.21,73.3,43.448,73.3,30.852A13.658,13.658,0,0,0,47.132,25.38a2.7,2.7,0,0,1-4.761,0A13.641,13.641,0,0,0,29.847,17.192Z" transform="translate(46.112 50.305)" fill="#457b9d"/>
    </g>
</svg>
