<svg xmlns="http://www.w3.org/2000/svg" width="114.577" height="112.119" viewBox="0 0 114.577 112.119">
    <path id="address" d="M113.256,56.886a4.476,4.476,0,0,1-6.33-.02L103.388,53.3V69.6a4.476,4.476,0,0,1-8.951,0V44.294L60.4,10.031a4.472,4.472,0,0,0-5.807-.012L20.134,44.407c0,.044.006.086.006.129V91.978a8.962,8.962,0,0,0,8.951,8.951h5.595a4.476,4.476,0,0,1,0,8.951H29.092a17.923,17.923,0,0,1-17.9-17.9V53.334L7.637,56.879a4.476,4.476,0,0,1-6.324-6.336L48.373,3.577c.06-.059.122-.118.185-.175a13.417,13.417,0,0,1,17.9.038c.063.057.125.115.184.176l46.634,46.942a4.475,4.475,0,0,1-.02,6.329ZM98.912,87.5a4.475,4.475,0,0,0-4.476,4.476,8.962,8.962,0,0,1-8.951,8.951H79.891a4.476,4.476,0,0,0,0,8.951h5.595a17.923,17.923,0,0,0,17.9-17.9A4.475,4.475,0,0,0,98.912,87.5ZM85.485,71.134c-.011,11.985-7.14,19.689-14.034,27.14a83.06,83.06,0,0,0-9.61,11.761,4.476,4.476,0,0,1-3.783,2.084H56.519a4.476,4.476,0,0,1-3.783-2.084,83.061,83.061,0,0,0-9.61-11.761c-6.894-7.45-14.021-15.155-14.034-27.13a28.2,28.2,0,0,1,56.393-.01Zm-8.951,0a19.245,19.245,0,0,0-38.491.01c.008,8.465,5.147,14.019,11.652,21.05,2.553,2.758,5.165,5.582,7.593,8.75,2.428-3.168,5.04-5.992,7.593-8.75,6.505-7.032,11.645-12.586,11.652-21.06ZM57.087,58.858a12.308,12.308,0,0,0,0,24.616,4.476,4.476,0,1,0,0-8.951,3.357,3.357,0,1,1,3.357-3.357,4.476,4.476,0,1,0,8.951,0A12.322,12.322,0,0,0,57.087,58.858Zm0,0" transform="translate(0 0)" fill="#457b9d"/>
</svg>
