<svg xmlns="http://www.w3.org/2000/svg" width="27.901" height="32.194" viewBox="0 0 27.901 32.194">
    <path id="Path_3537" data-name="Path 3537" d="M70.93,48.194h3.361a.537.537,0,0,0,.537-.537V46.584h.537a.537.537,0,0,0,.529-.625L74.82,39.52a.537.537,0,0,0-.529-.448h-1.61V38h2.146a.537.537,0,0,0,.537-.537V35.316a.537.537,0,0,0-.537-.537H73.793a4.507,4.507,0,0,0,.4-.49,6.52,6.52,0,0,0,0-7.069,3.341,3.341,0,0,0-2.715-1.563H65.638a4.839,4.839,0,0,0-3.93,2.022l-.14.2a8.213,8.213,0,0,1-3,2.563l-1.169.585H55.864A2.089,2.089,0,0,0,54.438,29.5V24.114l.419-1.676h3.337a.537.537,0,0,0,.537-.537V16.537A.537.537,0,0,0,58.194,16H48.536a.537.537,0,0,0-.537.537V21.9a.537.537,0,0,0,.537.537h1.191l.419,1.676V34.78H49.072a.537.537,0,0,0-.537.537v2.146a.537.537,0,0,0,.537.537h2.146v1.073h-1.61a.537.537,0,0,0-.529.448l-1.073,6.439a.537.537,0,0,0,.529.625h.537v1.073a.537.537,0,0,0,.537.537H52.97a.537.537,0,0,0,.537-.537V46.584H70.393v1.073A.537.537,0,0,0,70.93,48.194Zm2.824-1.073H71.466v-.537h2.288ZM71.478,26.731a2.3,2.3,0,0,1,1.838,1.109,5.452,5.452,0,0,1,0,5.831,2.078,2.078,0,0,1-3.676,0,5.454,5.454,0,0,1,0-5.831A2.305,2.305,0,0,1,71.478,26.731ZM58.064,31.892l.986-.493a9.29,9.29,0,0,0,3.392-2.9l.14-.2a3.763,3.763,0,0,1,3.056-1.573h3.524a4.507,4.507,0,0,0-.4.49,6.52,6.52,0,0,0,0,7.069,4.507,4.507,0,0,0,.4.49H62.8a8.224,8.224,0,0,1-3.659-.864l-1.082-.541ZM57.4,34.243l1.073.537H55.656a2.066,2.066,0,0,0,.207-.537ZM54.844,31.5c0,.014,0,.028,0,.042a.537.537,0,0,0,.536.559h1.611V33.17H55.379a.537.537,0,0,0-.536.559c0,.014,0,.028,0,.042a1.008,1.008,0,1,1-2.016,0,1,1,0,0,1,.327-.743.537.537,0,0,0,0-.791,1,1,0,0,1-.327-.743,1.008,1.008,0,1,1,2.016,0Zm-2.75,1.138a2.077,2.077,0,0,0-.078,2.146h-.8V24.585h2.146v4.884a2.08,2.08,0,0,0-1.27,3.165ZM51.1,23.512l-.268-1.073h2.918l-.268,1.073Zm-2.029-2.146V17.073h8.585v4.292Zm.537,15.56V35.853H74.291v1.073Zm22,1.073v1.073H52.292V38ZM52.433,47.121H50.145v-.537h2.288Zm-3.264-1.61.894-5.366H73.836l.894,5.366Z" transform="translate(-47.999 -16)" fill="#265CC7"/>
</svg>
