<svg xmlns="http://www.w3.org/2000/svg" width="28.055" height="28.055" viewBox="0 0 28.055 28.055">
	<g id="Out_line" data-name="Out line" transform="translate(-16 -16)">
		<path id="Path_3526" data-name="Path 3526" d="M186.043,28.9a4.19,4.19,0,0,0-.155-1.552l-2.12-7.207V18.805h.468a.468.468,0,0,0,.468-.468V17.4a1.4,1.4,0,0,0-1.4-1.4H179.56a1.4,1.4,0,0,0-1.4,1.4v.935a.468.468,0,0,0,.468.468h.468v1.335l-2.12,7.207a4.19,4.19,0,0,0-.155,1.552l.807,9.28a3.255,3.255,0,0,1-.156,1.319l-.525,1.574a2.266,2.266,0,0,0,2.15,2.983h4.673a2.266,2.266,0,0,0,2.15-2.983l-.525-1.574a3.255,3.255,0,0,1-.156-1.319Zm-6.951-11.5a.468.468,0,0,1,.468-.468H183.3a.468.468,0,0,1,.468.468v.468h-4.676Zm6.019,11.417L184.3,38.1a4.183,4.183,0,0,0,.2,1.7l.525,1.574a1.331,1.331,0,0,1-1.263,1.752h-4.673a1.331,1.331,0,0,1-1.263-1.752l.525-1.574a4.184,4.184,0,0,0,.2-1.7l-.807-9.28a3.26,3.26,0,0,1,.121-1.207l2.139-7.272a.467.467,0,0,0,.019-.132v-1.4h2.805v1.4a.467.467,0,0,0,.019.132l2.139,7.272A3.26,3.26,0,0,1,185.112,28.819Z" transform="translate(-151.403)" fill="#265CC7"/>
		<circle id="Ellipse_393" data-name="Ellipse 393" cx="0.5" cy="0.5" r="0.5" transform="translate(27 30)" fill="#265CC7"/>
		<ellipse id="Ellipse_394" data-name="Ellipse 394" cx="0.5" rx="0.5" transform="translate(27 32)" fill="#265CC7"/>
		<circle id="Ellipse_395" data-name="Ellipse 395" cx="0.5" cy="0.5" r="0.5" transform="translate(27 33)" fill="#265CC7"/>
		<circle id="Ellipse_396" data-name="Ellipse 396" cx="0.5" cy="0.5" r="0.5" transform="translate(27 35)" fill="#265CC7"/>
		<circle id="Ellipse_397" data-name="Ellipse 397" cx="0.5" cy="0.5" r="0.5" transform="translate(30 30)" fill="#265CC7"/>
		<ellipse id="Ellipse_398" data-name="Ellipse 398" cx="0.5" rx="0.5" transform="translate(30 32)" fill="#265CC7"/>
		<circle id="Ellipse_399" data-name="Ellipse 399" cx="0.5" cy="0.5" r="0.5" transform="translate(30 33)" fill="#265CC7"/>
		<circle id="Ellipse_400" data-name="Ellipse 400" cx="0.5" cy="0.5" r="0.5" transform="translate(30 35)" fill="#265CC7"/>
		<ellipse id="Ellipse_401" data-name="Ellipse 401" cy="0.5" ry="0.5" transform="translate(32 30)" fill="#265CC7"/>
		<circle id="Ellipse_402" data-name="Ellipse 402" transform="translate(32 32)" fill="#265CC7"/>
		<ellipse id="Ellipse_403" data-name="Ellipse 403" cy="0.5" ry="0.5" transform="translate(32 33)" fill="#265CC7"/>
		<ellipse id="Ellipse_404" data-name="Ellipse 404" cy="0.5" ry="0.5" transform="translate(32 35)" fill="#265CC7"/>
		<path id="Path_3527" data-name="Path 3527" d="M359.989,93.457l-1.443-1.443v-.274h.468a.468.468,0,0,0,.468-.468V88.468a.468.468,0,0,0-.468-.468H353.4a.468.468,0,0,0-.468.468v2.805a.468.468,0,0,0,.468.468h.468v.274l-1.443,1.443A1.45,1.45,0,0,0,352,94.489v3.854a1.45,1.45,0,0,0,.427,1.032l.314.314-.314.314a1.45,1.45,0,0,0-.428,1.032v6.66a1.45,1.45,0,0,0,.427,1.032l.314.314-.314.314a1.459,1.459,0,0,0,1.032,2.491h5.5a1.459,1.459,0,0,0,1.032-2.491l-.314-.314.314-.314a1.45,1.45,0,0,0,.428-1.032v-6.66a1.45,1.45,0,0,0-.427-1.032l-.314-.314.314-.314a1.45,1.45,0,0,0,.428-1.032V94.489A1.45,1.45,0,0,0,359.989,93.457Zm-7.054,4.829V94.546h6.546v3.741Zm.935-9.352h4.676v1.87H353.87Zm.8,3.6a.467.467,0,0,0,.137-.331v-.468h2.805v.468a.468.468,0,0,0,.137.331l1.072,1.072H353.6Zm4.813,15.156a.521.521,0,0,1-.154.371l-.508.508h-4.015v.935h4.015l.508.508a.524.524,0,0,1-.371.9h-5.5a.524.524,0,0,1-.371-.9l.645-.645a.468.468,0,0,0,0-.661l-.645-.645a.521.521,0,0,1-.154-.371v-6.66a.521.521,0,0,1,.154-.371l.645-.645a.468.468,0,0,0,0-.661l-.137-.137h5.224l-.137.137a.468.468,0,0,0,0,.661l.645.645a.521.521,0,0,1,.154.371Z" transform="translate(-316.361 -67.792)" fill="#265CC7"/>
		<path id="Path_3528" data-name="Path 3528" d="M431.192,307.35a6.1,6.1,0,0,0,0,7.09l.761-.544a5.164,5.164,0,0,1,0-6Z" transform="translate(-389.855 -274.321)" fill="#265CC7"/>
		<path id="Path_3529" data-name="Path 3529" d="M385.49,307.893a5.164,5.164,0,0,1,0,6l.761.544a6.1,6.1,0,0,0,0-7.09Z" transform="translate(-347.894 -274.321)" fill="#265CC7"/>
		<path id="Path_3530" data-name="Path 3530" d="M24.4,183.793h0l-.468-1.87a.468.468,0,0,0-.454-.354h-2.8a3.559,3.559,0,0,0,.46-1.757,1.87,1.87,0,0,0-3.741,0,3.559,3.559,0,0,0,.46,1.757h-.928a.468.468,0,0,0-.454.354l-.468,1.87h0a.467.467,0,0,0-.014.113v10.287a.467.467,0,0,0,.014.113h0l.468,1.87a.468.468,0,0,0,.454.354h6.546a.468.468,0,0,0,.454-.354l.468-1.87h0a.467.467,0,0,0,.014-.113V183.906A.467.467,0,0,0,24.4,183.793Zm-4.468-4.643a.928.928,0,0,1,.266.548H18.345a.934.934,0,0,1,1.589-.548Zm-1.466,1.483h1.61a2.625,2.625,0,0,1-.538.935h-.534A2.625,2.625,0,0,1,18.468,180.633Zm4.648,1.87.234.935H17.066l.234-.935Zm-4.311,11.222h-1.87v-9.352h4.676v.354a4.293,4.293,0,0,1-1.266,3.056,5.222,5.222,0,0,0-1.54,3.717ZM17.3,195.6l-.234-.935H23.35l-.234.935Zm6.181-1.87h-1.87v-.354a4.293,4.293,0,0,1,1.266-3.056,5.314,5.314,0,0,0,.6-.724Zm-1.266-4.071a5.222,5.222,0,0,0-1.54,3.717v.354h-.935V191.5a4.293,4.293,0,0,1,1.266-3.056,5.222,5.222,0,0,0,1.54-3.717v-.354h.935V186.6a4.293,4.293,0,0,1-1.266,3.056Z" transform="translate(0 -152.476)" fill="#265CC7"/>
	</g>
</svg>
