<svg xmlns="http://www.w3.org/2000/svg" width="28.059" height="28.064" viewBox="0 0 28.059 28.064">
    <g id="Outline" transform="translate(-16 -16)">
        <path id="Path_3500" data-name="Path 3500" d="M80.036,76.727a6.744,6.744,0,0,0-1.254,3.925,2.572,2.572,0,1,0,5.144,0,1.639,1.639,0,0,1,1.637-1.637,2.575,2.575,0,0,0,2.561-2.338h.835a7.906,7.906,0,0,0-.356,2.338,4.209,4.209,0,0,0,8.418,0,7.989,7.989,0,0,0-3.18-6.36l-.748-.561a.468.468,0,0,0-.561,0l-.748.561a7.963,7.963,0,0,0-2.469,3.087H88.038a2.576,2.576,0,0,0-2.474-1.871,6.757,6.757,0,0,0-4.672,1.871h-.239a4.688,4.688,0,0,0-2.94,1.039l.588.727A3.693,3.693,0,0,1,80.036,76.727ZM92.345,73.4l.468-.351.468.351a7.049,7.049,0,0,1,2.806,5.612,3.274,3.274,0,0,1-6.547,0A7.049,7.049,0,0,1,92.345,73.4Zm-6.781,1.4a1.637,1.637,0,1,1,0,3.274,2.575,2.575,0,0,0-2.572,2.572,1.637,1.637,0,1,1-3.274,0A5.853,5.853,0,0,1,85.563,74.806Z" transform="translate(-58.105 -52.726)" fill="#265CC7"/>
        <rect id="Rectangle_16909" data-name="Rectangle 16909" width="1" height="7" transform="translate(34 22)" fill="#265CC7"/>
        <rect id="Rectangle_16910" data-name="Rectangle 16910" width="1" height="3" transform="translate(32 24)" fill="#265CC7"/>
        <rect id="Rectangle_16911" data-name="Rectangle 16911" width="1" height="3" transform="translate(36 24)" fill="#265CC7"/>
        <path id="Path_3501" data-name="Path 3501" d="M73.432,159.648a2.571,2.571,0,0,0-3.681,0,1.634,1.634,0,0,1-1.173.5,1.653,1.653,0,0,1-.2-.013,16.434,16.434,0,0,0,3.942-10.679v-.4a4.682,4.682,0,0,0-2.532-4.157l-.429.831a3.742,3.742,0,0,1-1.715,7.067H60.568a1.867,1.867,0,0,0,.059-.468v-1.871a.468.468,0,0,0-.137-.331l-1.4-1.4a.468.468,0,0,0-.331-.137,1.873,1.873,0,0,0-1.871,1.871v1.871a1.867,1.867,0,0,0,.059.468H52.677a3.746,3.746,0,0,1-3.741-3.741,3.7,3.7,0,0,1,.831-2.351l-.727-.588A4.688,4.688,0,0,0,48,149.051v.4a16.436,16.436,0,0,0,4.814,11.622.468.468,0,0,0,.331.137H62.03v-.935H53.34a15.519,15.519,0,0,1-4.171-8.136,4.666,4.666,0,0,0,3.508,1.589h4.844a1.865,1.865,0,0,0,2.471,0h7.65a4.666,4.666,0,0,0,3.508-1.589,15.508,15.508,0,0,1-3.662,7.588c-.029-.025-.057-.051-.084-.079a2.571,2.571,0,0,0-3.681,0,2.671,2.671,0,0,0,0,3.725,6.759,6.759,0,0,0,8.371,1.062l-.486-.8a5.831,5.831,0,0,1-7.217-.918,1.731,1.731,0,0,1,0-2.414,1.636,1.636,0,0,1,2.346,0,2.571,2.571,0,0,0,3.681,0,1.636,1.636,0,0,1,2.346,0,1.731,1.731,0,0,1,0,2.414,6.055,6.055,0,0,1-.515.468l.588.728a6.983,6.983,0,0,0,.6-.54A2.671,2.671,0,0,0,73.432,159.648Zm-13.74-7.323a.935.935,0,0,1-1.871,0v-1.871a.937.937,0,0,1,.758-.919l1.112,1.112Z" transform="translate(-30.129 -121.359)" fill="#265CC7"/>
        <path id="Path_3502" data-name="Path 3502" d="M19.741,416H17.871a.468.468,0,0,0-.331.137l-1.4,1.4a.468.468,0,0,0-.137.331,1.873,1.873,0,0,0,1.871,1.871h1.871a1.871,1.871,0,0,0,0-3.741Zm0,2.806H17.871a.937.937,0,0,1-.919-.758l1.112-1.112h1.677a.935.935,0,0,1,0,1.871Z" transform="translate(0 -376.616)" fill="#265CC7"/>
        <path id="Path_3503" data-name="Path 3503" d="M131.04,440h-1.4a1.637,1.637,0,0,0,0,3.274h1.4a1.637,1.637,0,1,0,0-3.274Zm0,2.338h-1.4a.7.7,0,0,1,0-1.4h1.4a.7.7,0,1,1,0,1.4Z" transform="translate(-105.453 -399.213)" fill="#265CC7"/>
        <path id="Path_3504" data-name="Path 3504" d="M217.86,20.105a1.871,1.871,0,0,0,2.646-2.646l-.775-.775A2.323,2.323,0,0,0,218.077,16h-1.209a.468.468,0,0,0-.468.468v1.209a2.323,2.323,0,0,0,.685,1.653Zm-.525-3.17h.742a1.394,1.394,0,0,1,.992.411l.775.775a.935.935,0,0,1,0,1.323h0a.935.935,0,0,1-1.323,0l-.775-.775a1.394,1.394,0,0,1-.411-.992Z" transform="translate(-188.685 0)" fill="#265CC7"/>
        <path id="Path_3505" data-name="Path 3505" d="M129.63,36.264a1.632,1.632,0,0,0,1.158-.479l.992-.992a1.637,1.637,0,1,0-2.315-2.315l-.992.992a1.636,1.636,0,0,0,1.158,2.794Zm-.5-2.132.992-.992a.7.7,0,0,1,.992.992l-.992.992a.7.7,0,1,1-.992-.992Z" transform="translate(-105.446 -15.063)" fill="#265CC7"/>
    </g>
</svg>
