<svg xmlns="http://www.w3.org/2000/svg" width="28.7" height="41" viewBox="0 0 28.7 41">
    <path id="Path_2083" data-name="Path 2083" d="M14.35,0A14.262,14.262,0,0,0,0,14.35C0,25.01,14.35,41,14.35,41S28.7,25.01,28.7,14.35A14.262,14.262,0,0,0,14.35,0ZM4.1,14.35A10.15,10.15,0,0,1,14.35,4.1,10.15,10.15,0,0,1,24.6,14.35c0,5.945-5.945,14.76-10.25,20.295C10.045,29.11,4.1,20.09,4.1,14.35Zm15.375,0A5.125,5.125,0,1,1,14.35,9.225,5.075,5.075,0,0,1,19.475,14.35Z" transform="translate(0 0)" fill="#265CC7"/>
</svg>
