<svg xmlns="http://www.w3.org/2000/svg" width="36.5" height="29.91" viewBox="0 0 36.5 29.91">
    <g id="Group_1140" data-name="Group 1140" transform="translate(0 0)">
        <g id="Group_1139" data-name="Group 1139">
            <path id="Path_2209" data-name="Path 2209" d="M33,39H7.461a3.5,3.5,0,0,0-3.489,3.506v.042H3.5A3.5,3.5,0,0,0,0,46.03V65.4A3.518,3.518,0,0,0,3.5,68.91H29.039A3.5,3.5,0,0,0,32.529,65.4v-.042H33a3.5,3.5,0,0,0,3.5-3.481V42.506A3.512,3.512,0,0,0,33,39ZM29.039,67.22H3.5A1.828,1.828,0,0,1,1.69,65.4V46.03A1.807,1.807,0,0,1,3.5,44.239H29.039a1.794,1.794,0,0,1,1.8,1.791v4.833a2.08,2.08,0,0,1-.448.051H25.516a4.812,4.812,0,0,0,0,9.624h4.867c.152-.008.3-.025.448-.042l.008,4.909A1.816,1.816,0,0,1,29.039,67.22Zm5.771-5.34A1.807,1.807,0,0,1,33,63.672h-.473V59.886A4.618,4.618,0,0,0,33.5,59l1.31-1.69Zm-2.645-3.9a2.275,2.275,0,0,1-1.774.879H25.516a3.126,3.126,0,0,1,0-6.252h4.867a3.854,3.854,0,0,0,1.681-.38,3.929,3.929,0,0,0,1.428-1.149l1.31-1.69.008,5.162ZM34.81,46.621l-2.281,2.94V46.03a3.483,3.483,0,0,0-3.489-3.481H5.661v-.042a1.816,1.816,0,0,1,1.8-1.817H33a1.828,1.828,0,0,1,1.808,1.817v4.115Z" transform="translate(0 -39)" fill="#457b9d"/>
        </g>
    </g>
</svg>
