<svg xmlns="http://www.w3.org/2000/svg" width="24" height="24" viewBox="0 0 24 24">
    <path id="Path_2103" data-name="Path 2103" d="M976-65.15A3.15,3.15,0,0,1,979.15-62,3.15,3.15,0,0,1,976-58.85,3.15,3.15,0,0,1,972.85-62,3.15,3.15,0,0,1,976-65.15Zm0,13.5c4.455,0,9.15,2.19,9.15,3.15v1.65h-18.3V-48.5C966.85-49.46,971.545-51.65,976-51.65ZM976-68a6,6,0,0,0-6,6,6,6,0,0,0,6,6,6,6,0,0,0,6-6A6,6,0,0,0,976-68Zm0,13.5c-4.005,0-12,2.01-12,6V-44h24v-4.5C988-52.49,980.005-54.5,976-54.5Z" transform="translate(-964 68)"/>
</svg>