<svg xmlns="http://www.w3.org/2000/svg" width="28.007" height="28.001" viewBox="0 0 28.007 28.001">
    <path id="Subtraction_4" data-name="Subtraction 4" d="M22.4,28a2.8,2.8,0,1,1,2.8-2.8A2.8,2.8,0,0,1,22.4,28Zm-14,0a2.8,2.8,0,1,1,2.8-2.8A2.8,2.8,0,0,1,8.4,28Zm16.8-7H8.4A2.768,2.768,0,0,1,6,19.633a2.8,2.8,0,0,1-.049-2.792l1.89-3.416L2.8,2.8H0V0H4.578L5.894,2.8H26.611A1.4,1.4,0,0,1,27.83,4.872l-5.012,9.086a2.789,2.789,0,0,1-2.45,1.443H9.94L8.4,18.2H25.2V21ZM7,5.6l3.36,7h9.8l3.92-7Z" transform="translate(-0.001 0.001)"/>
</svg>
