<svg xmlns="http://www.w3.org/2000/svg" width="29.662" height="29.662" viewBox="0 0 29.662 29.662">
    <g id="price-tag" transform="translate(1.566 0)">
        <path id="Path_3547" data-name="Path 3547" d="M175.926,125.856l3.88-11.641a.823.823,0,1,0-1.562-.521l-3.88,11.641a.823.823,0,1,0,1.562.521Z" transform="translate(-164.756 -106.923)"/>
        <path id="Path_3548" data-name="Path 3548" d="M267,194.142a2.469,2.469,0,1,0-2.469-2.469A2.472,2.472,0,0,0,267,194.142Zm0-3.292a.823.823,0,1,1-.823.823A.824.824,0,0,1,267,190.849Z" transform="translate(-250.017 -178.82)"/>
        <path id="Path_3549" data-name="Path 3549" d="M97.3,189.2a2.469,2.469,0,1,0,2.469,2.469A2.472,2.472,0,0,0,97.3,189.2Zm0,3.292a.823.823,0,1,1,.823-.823A.824.824,0,0,1,97.3,192.5Z" transform="translate(-89.623 -178.82)"/>
        <path id="Path_3550" data-name="Path 3550" d="M29.488,10.776l-3.03-4.04.118-.827a.869.869,0,0,0-.246-.737L24.487,3.327,26.33,1.484A.869.869,0,0,0,25.1.255L23.258,2.1,21.415.255a.87.87,0,0,0-.737-.246l-8.6,1.229a.869.869,0,0,0-.492.246L.932,12.135a3.19,3.19,0,0,0,0,4.506l9.012,9.012a3.179,3.179,0,0,0,.6.47v.352a3.19,3.19,0,0,0,3.186,3.186H26.476a3.19,3.19,0,0,0,3.186-3.186V11.3a.869.869,0,0,0-.174-.521ZM2.161,15.412a1.45,1.45,0,0,1,0-2.048L12.607,2.917l7.886-1.127,1.536,1.536L20.8,4.556l-.615-.615a.869.869,0,1,0-1.229,1.229l2.458,2.458A.869.869,0,1,0,22.644,6.4l-.615-.615,1.229-1.229,1.536,1.536-1.127,7.886L13.222,24.424a1.448,1.448,0,0,1-2.048,0ZM27.924,26.476a1.45,1.45,0,0,1-1.448,1.448H13.73a1.45,1.45,0,0,1-1.444-1.341,3.174,3.174,0,0,0,2.164-.93L25.1,15a.869.869,0,0,0,.246-.492l.763-5.342,1.814,2.418Z" transform="translate(-1.567 0)"/>
    </g>
</svg>
