<svg xmlns="http://www.w3.org/2000/svg" width="28" height="26.3" viewBox="0 0 28 26.3">
    <path id="Path_2085" data-name="Path 2085" d="M159.14,24.72l-.14.144-.14-.144C152.14,18.54,147.8,14.372,147.8,10.2a4.849,4.849,0,0,1,4.9-5.03,5.686,5.686,0,0,1,5.04,3.449h2.66a5.387,5.387,0,0,1,5.04-3.449,4.849,4.849,0,0,1,4.9,5.03C170.2,14.372,165.86,18.54,159.14,24.72ZM165.3,2.3A8.327,8.327,0,0,0,159,5.318,8.327,8.327,0,0,0,152.7,2.3a7.693,7.693,0,0,0-7.7,7.9c0,5.461,4.76,9.916,12.04,16.527L159,28.6l1.96-1.868C168.24,19.977,173,15.522,173,10.2A7.782,7.782,0,0,0,165.3,2.3Z" transform="translate(-145 -2.3)" fill="#457b9d"/>
</svg>
