<svg xmlns="http://www.w3.org/2000/svg" width="28" height="28.001" viewBox="0 0 28 28.001">
    <path id="exit" d="M20.243,21.438v2.188A4.38,4.38,0,0,1,15.868,28H4.875A4.38,4.38,0,0,1,.5,23.626V4.375A4.38,4.38,0,0,1,4.875,0H15.868a4.38,4.38,0,0,1,4.375,4.375V6.563a1.094,1.094,0,1,1-2.188,0V4.375a2.19,2.19,0,0,0-2.188-2.188H4.875A2.19,2.19,0,0,0,2.688,4.375V23.626a2.19,2.19,0,0,0,2.188,2.188H15.868a2.19,2.19,0,0,0,2.188-2.188V21.438a1.094,1.094,0,0,1,2.188,0ZM27.7,12.122,25.251,9.672A1.094,1.094,0,1,0,23.7,11.219l1.742,1.742H12.313a1.094,1.094,0,1,0,0,2.188H25.446L23.7,16.892a1.094,1.094,0,1,0,1.547,1.547L27.7,15.989a2.738,2.738,0,0,0,0-3.867Zm0,0" transform="translate(-0.5)"/>
</svg>
