<svg id="Layer_1" data-name="Layer 1" xmlns="http://www.w3.org/2000/svg" viewBox="0 0 853.71 701.49"><defs><style>.cls-1{fill:#265CC7;}.cls-2{fill:#265CC7;}.cls-3{fill:#265CC7;}.cls-4{fill:#fff;}</style></defs><path class="cls-1" d="M350.07,45.55h0c1.29,0,2.61.05,3.9.17a43,43,0,0,1,38.88,46.55l-5.61,62.47L376.85,270.49,365.23,399.81l-86.1-.09L290.51,273l.89-10,1.47-16.32-16.39,0-63.26-.08a42.89,42.89,0,0,1,.07-85.77h.08l73.47.1,13.73,0,1.23-13.68,5.62-62.67a42.89,42.89,0,0,1,42.65-39m0-15a57.88,57.88,0,0,0-57.59,52.71l-5.62,62.67-73.47-.1h-.1a57.89,57.89,0,0,0-57.88,57.79h0a57.88,57.88,0,0,0,57.79,58l63.26.08-.89,10-12.85,143,116.23.13,12.84-143,10.39-115.75,5.61-62.47a57.89,57.89,0,0,0-52.48-62.83h0c-1.76-.16-3.51-.23-5.24-.23Z"/><path class="cls-2" d="M379,429.83l-116.23-.13-190.45-.24a57.89,57.89,0,0,0-58,57.78h0a57.88,57.88,0,0,0,57.79,58l180.25.24-5.63,62.7A57.89,57.89,0,0,0,299.18,671h0A57.87,57.87,0,0,0,362,618.52l6.55-72.94,143.24.16L522.18,430Z"/><path class="cls-2" d="M773.76,146.69l-92.13-.28,5.64-62.8a57.89,57.89,0,0,0-52.48-62.83h0A57.89,57.89,0,0,0,572,73.26l-6.55,73-143.23-.18L411.79,261.83,555,262l116.21.15,102.33.3a57.9,57.9,0,0,0,58-57.79h0A57.9,57.9,0,0,0,773.76,146.69Z"/><path class="cls-1" d="M568.73,292l86.1.11L643.46,418.76l-.9,10-1.46,16.33h16.39l63.69.07a42.89,42.89,0,0,1-.07,85.77H721l-73.89-.08H633.4l-1.23,13.67-5.63,62.66a42.87,42.87,0,0,1-42.64,39.05c-1.29,0-2.61-.06-3.9-.18a42.88,42.88,0,0,1-38.88-46.54l5.61-62.43,10.39-115.76L568.73,292M555,277,542.18,420,531.79,535.74l-5.61,62.42A57.88,57.88,0,0,0,578.66,661h0c1.75.16,3.51.24,5.24.24a57.88,57.88,0,0,0,57.58-52.71l5.63-62.66,73.9.08h.1A57.89,57.89,0,0,0,779,488.15h0a57.9,57.9,0,0,0-57.79-58l-63.7-.07.9-10,12.83-142.94L555,277Z"/><path class="cls-3" d="M410.29,277.32,396.8,398.17a17.88,17.88,0,0,0,17.42,14.74h94.66a17.87,17.87,0,0,0,17.41-14.74l13.22-120.85Zm34.83,38.4a4.47,4.47,0,0,1-8.93,0v-13.4a4.47,4.47,0,0,1,8.93,0Zm67,0a4.47,4.47,0,0,1-8.93,0v-13.4a4.47,4.47,0,0,1,8.93,0Z"/><path class="cls-4" d="M448.92,240c0-13.1,13-23.72,29-23.72s29,10.62,29,23.72l-1,21.53H515L515.9,240c0-17.13-17-31-38-31S440,222.9,440,240L439,261.56H448Z"/></svg>